<?xml version="1.0" encoding="UTF-8"?>
<svg id="Camada_1" xmlns="http://www.w3.org/2000/svg" version="1.1" viewBox="0 0 595.28 841.89">
  <!-- Generator: Adobe Illustrator 29.6.1, SVG Export Plug-In . SVG Version: 2.1.1 Build 9)  -->
  <defs>
    <style>
      .st0 {
        fill: #19bc00;
      }
    </style>
  </defs>
  <path class="st0" d="M234.57,434.46c12.12,4.86,22.28,9.65,30.3,13.71,7.98,4.05,16.75,8.86,19.78,17.04.47,1.26,2.03,5.49.37,6.97-.87.77-2.54.77-5.31-.42-7.48-3.21-17.02-11.43-24.58-15.81-2.96-1.71-5.53-2.94-6.72-3.5-5.51-2.6-10.28-4.2-13.58-5.18.32-2.74.44-5.92.15-9.39-.1-1.19-.24-2.34-.4-3.43h0Z"/>
  <path class="st0" d="M231.08,446.31c-8.12-2.94-14.12-2.54-18.32-1.43-4.67,1.24-7.9,3.61-9.01,2.4-1.28-1.38.97-6.18,4.12-9.26,3.85-3.76,8.91-4.87,13.14-5.21,1.09-.08,2.34-.1,2.34-.1,1.33,0,3.58.03,4.32.24,2.35.6,3.53,6.34,3.43,13.36h-.02Z"/>
  <path class="st0" d="M382.89,494.97c1.06.55-.77,7.23-3.97,12.77-4.81,8.35-11.86,12.65-15.68,14.92-10.6,6.3-20.8,7.28-25.53,7.44-13.58.47-25.63-4.3-25.39-5.7.2-1.21,9.31,1.63,22.99-.47,4.57-.71,25.93-3.97,39.84-19.98,3.93-4.54,6.76-9.48,7.73-8.97v-.02h.01Z"/>
  <path class="st0" d="M281.75,481.08c-.97-1.31-14.89-6.28-17.53-7.24-17.66-6.4-39.32-12.94-57.81-15.98-2.67-.44-9.71-2.47-10.65.89-1.09,3.93,8.74,4.65,11.11,5.66,5.88,17.61,15.93,30.45,34.89,34.05,13.36,2.54,26.8,3.02,35.36-9.04.76-1.08,2.76-5.41,3.16-5.75l-.02.02h-.01c.76-.63,3.24-.28,1.5-2.61ZM274.7,482.71c-.72,1.68-9.48,8.69-11.48,9.53-8.27,3.48-21.93,1.95-30.13-1.31-10.35-4.1-18.08-14.43-20.33-25.19.72-.64,18.13,3.39,18.85,4.03.39.34,1.16,4.07,1.68,5.31,5.28,12.52,22.52,21.61,32.52,8.97.79-1.01,1.76-3.61,1.93-3.71l.02.02h0c.67-.45,5.21,1.1,6.2,1.49.37.15,1.14-.08.74.86Z"/>
  <path class="st0" d="M176.12,483.8c-.03-2.55,5.46-1.78,5.95-4.3,1.38-7.26-13.44-18.75-19.91-15.06-1.24.71-1.58,2.96-.86,4.03.3.44,8,3.34,9.63,4.37.69.44,5.66,4.17,5.76,4.52.47,1.53-3.66,2.94-4.22,5.48-1.75,7.86,13.01,10.54,16.17,16.47.72,1.36,1.6,4.08-.89,4.13-2.25.05-10.1-6.87-11.06-5.92h-.01c-1.68,1.71,11.81,17.1,16.92,8.04,6.22-11.06-17.43-17.44-17.48-21.76Z"/>
  <path class="st0" d="M309.35,497.62c-3.92-2.82-8.89-4.57-13.78-3.75h0c-3.39.58-14.35,6.8-13.24,10.8s9.34-2.84,11.78-3.63c3.48-1.14,5.53-1.08,8.97.15,2.39.86,8.17,5.33,10.03,4.87,4.52-1.11-2.07-7.21-3.76-8.44Z"/>
  <path class="st0" d="M370.28,445.05c1.56-.24,3.44-.29,5.44.27,1.66.47,2.22,1.01,3.16.74,1.33-.4,1.24-1.81,3.06-4.81,1.66-2.72,2.74-3.21,2.47-4.2h-.01s0,.02,0,.02h-.01,0c-.29-1.06-1.68-1.04-4.57-2.34-4.03-1.81-5.11-3.6-6.07-2.99-1.13.72-.17,3.11-.82,6.82-.5,2.86-1.7,5.06-2.66,6.49Z"/>
  <path class="st0" d="M317.8,471.43c13.54-5.83,28.01-25.39,45.51-26.74,1.73-.13,3.16-.07,4.1.02,1.06-2.12,5.12-10.7,2.46-13.1h0c-1.7-1.5-5.36.1-8.47,1.53-17.01,7.8-23.36,13.19-36.65,21.17-5.49,3.31-12.6,7.29-13.75,13.26-.15.76-.64,3.31.69,4.45.97.84,2.82.84,6.12-.59Z"/>
  <path class="st0" d="M163.13,526.91h0s-.01-.02-.02-.03l.02.03Z"/>
  <path class="st0" d="M414.77,478.94c.59,3.6,7.01,1.92,5.83,5.29-1.18,3.37-13.31,7.88-16.4,12.7-1.93,3.02-2.71,6.12-.42,9.19,3.95,5.34,10.55.12,13.71-3.46.39-.44,4.49-5.86,1.88-5.13-1.63.47-15.22,11.53-11.19,1.75,2.42-5.86,19.11-8.32,16-17.34-.49-1.41-2.5-2.97-4.02-3.26l-.02-.02h0c-.76-1.02,4.65-4.91,5.53-5.48,2.23-1.48,9.65-4.17,10.25-5.41.55-1.18-.15-2.74-1.24-3.33-6.55-3.5-21.04,7.76-19.91,14.5Z"/>
  <path class="st0" d="M396.87,456.72h0c-5.66.31-14,2.68-19.73,4.01-17.81,4.13-40.01,10.3-56.63,17.69-1.51.67-6.57,2.17-5.93,4.27,3.11,1.26,3.58,4.32,5.46,6.94,6.76,9.36,14.96,10.7,26.03,10.05,21.71-1.28,34.55-11.23,42.7-31.09.5-1.21.52-3.61,1.19-4.2,1.14-.99,14.79-1.95,10.49-6.7-1.13-1.24-2.12-1.04-3.58-.97ZM384.05,465.76h0c-2.13,10.74-9.71,20.84-19.93,25.03-8.17,3.33-20.47,4.71-28.97,2.05-5.13-1.6-9.49-6.89-13.04-10.67,1.41-.47,5.41-2.22,6.64-1.83.81.25,1.95,3.21,2.77,4.27,10.74,13.59,32.47-.45,33.79-14.99l18.74-3.86s0,0,0-.01h0Z"/>
  <path class="st0" d="M381.69,446.76h0c1.55.17,3.34.35,5.34.55,4.3.4,5.53.45,6.4-.42.69-.67,1.13-1.83.87-2.82-.35-1.41-1.85-1.46-4.5-4.12-.66-.66-.69-.79-.96-.87-1.81-.57-4.79,3.66-7.18,7.68h.03Z"/>
  <path class="st0" d="M460.47,361.17c-.84-2.69-9.59,1.38-19.74-3.66-7.08-3.52-7.56-7.83-15.36-13.9-4.55-3.53-10.6-6.89-18.72-9.01,3.7-.25,9.35-1.16,15.06-4.52,10.02-5.89,16.4-17.03,14.37-19.38-1.44-1.67-5.83,2.55-13.64,2.92-10.04.45-16.33-5.9-22.95-9.53-7.78-4.27-20.42-7.19-41.61-.72,2.71-.84,8.07-2.97,12.05-8.2,4.05-5.33,6.29-13.38,3.9-15.19-2.07-1.56-5.51,3.04-13.9,5.85-10.38,3.49-15.07-.24-25.59,1.83-4.83.95-11.6,3.26-19.21,9.49-.83-1.88-2.19-4.64-4.34-7.66-4.58-6.43-8.13-7.66-8.55-11.59-.52-4.95,4.59-7.81,3.58-9.24-1.43-2.04-13.61.85-20.05,9.86-5.28,7.4-4.49,15.87-4.1,18.64-12-8.66-21.66-10.39-28.5-10.22-7.97.2-14.81,3.04-22.1-1.09-5.73-3.24-7.46-8.35-8.99-7.68-1.98.89-1.37,10.5,4.02,17.19,4.44,5.51,10.62,7.16,13.16,7.68-13.12-.83-23.43.65-30.55,2.23-12.18,2.7-16.28,5.95-25.39,5.09-13.65-1.29-19.76-10.03-22.42-7.68-3.24,2.87,2.57,18.97,15.11,27.05,5.41,3.48,10.87,4.69,14.65,5.14-3.03.22-7.75.91-12.89,3.26-5.41,2.47-6.43,4.58-14.92,10.6-7.59,5.39-11.51,8.11-16.45,8.77-7.38.99-11.53-2.5-12.44-1.09-1.55,2.42,8,16.4,21.61,16.89,8.69.32,14.97-4.99,16.77-6.64-.2.72-.52,1.8-.97,3.06-.86,2.38-5.16,14.3-14.37,20.33-8.82,5.77-16.65,2.54-17.54,5.85-.92,3.47,6.91,9.57,14.99,12.07,3.82,1.19,7.61,1.54,10.72,1.58-1.63.4-3.19,1.12-4.25,2.43-5.26,6.47,5.65,19.8,0,26.92-2.83,3.56-6.27,1.16-10.22,4.42-8.52,7.04-6.47,29.91,2.57,44.63,5.41,8.81,7.05,12.71,10.33,20.47.94,2.22,1.8,4.44,1.83,7.41.06,6.14-3.48,9.38-2.29,11.06h-.01c.82,1.12,3.74,1.46,13.42-2.48,3.96,3.11,8.1,7.53,8.23,12.97.14,5.73-4.27,8.01-3.04,11.19,2.06,5.37,17.78,7.06,28.53.24,3.28-2.08,5.51-4.58,6.94-6.5,8.24,5.26,18.62,10.96,31.09,15.88,9.56,3.76,18.47,6.34,26.28,8.1,1.3,2.37,3.67,5.9,7.75,8.57,1.77,1.14,6.22,3.69,24.52,2.6,18.06-1.06,21.67-4.01,23.27-5.61,3.06-3.04,4.34-6.67,4.94-9.06,6.67-2.03,14.07-4.72,21.88-8.3,11.69-5.36,21.39-11.37,29.12-16.92.86,1.68,2.52,4.39,5.48,6.59,10.08,7.47,26.87,2.89,27.66-1.65.35-2.02-2.66-2.76-3.8-6.59-1.34-4.49,1.04-9.33,3.8-13.16,10.82,4.7,14.1,4.47,14.99,3.24,1.04-1.43-1.41-3.95-2.07-8.99-.48-3.75.26-7.07,1.97-11.61,6.2-16.42,16.33-25.43,18.5-40.5.51-3.55,2.19-15.18-4.2-20.74-6.06-5.28-14.13-.44-17.91-5.13-5.87-7.24,8.38-25.06,3.29-29.98-.6-.57-1.4-.86-2.29-.98,4.35-1.02,9.93-3.02,14.39-7.05,4.76-4.31,8.56-11.19,6.54-14.27-1.61-2.47-5.84-.74-10.97-1.98-4.7-1.14-11.09-5.02-17.02-18.11,2.56,2.02,8.12,5.77,15.58,5.85,11.35.12,21.41-8.33,20.47-11.34ZM172.36,409.21s-.21.03-.57,0c.35-.03.56-.04.57,0ZM187.55,522.21c-2.12,0-3.83-1.71-3.83-3.83s1.71-3.83,3.83-3.83,3.83,1.71,3.83,3.83-1.71,3.83-3.83,3.83ZM408.93,522.21c-2.12,0-3.83-1.71-3.83-3.83s1.71-3.83,3.83-3.83,3.83,1.71,3.83,3.83-1.71,3.83-3.83,3.83ZM445.1,452.89c5.24,17.58-15.61,50.5-29.52,60.76-.29.21-.59.43-.89.64-1.28-1.8-3.38-2.98-5.76-2.98-3.9,0-7.07,3.17-7.07,7.07,0,.53.06,1.05.18,1.55-1.15.18-2.3.24-3.43.17-.91-.87,5.38-8.44,1.38-11.34-2.67-1.95-4.74,2.62-5.92,4.39-5.31,8.02-6.96,12.37-10.55,16.45-1.78,2.02-4.02,4.5-12.23,9.26-13.95,8.08-29.12,13.93-39.02,17.36-5.43-2.07-14.54-4.72-25.98-4.42-13.56.35-23.85,4.69-29.29,7.46-3.85-.81-9.95-2.2-17.24-4.52-25.39-8.08-39.29-14.6-48.3-26.57-2.5-3.34-9.49-18.97-12.54-19.81-.91-.25-1.33-.05-2.07.44-3.9,2.54,2.29,10.49,1.38,11.34-1.25.11-2.52,0-3.78-.22.11-.5.17-1.01.17-1.54,0-3.9-3.17-7.07-7.07-7.07-2.27,0-4.29,1.08-5.58,2.74-14.03-10.44-28.19-33.89-30.44-49.26-2.22-15.24,2.84-22.27,17.26-12.94,1.78,1.14,6.57,4.72,7.83,6.17,3.75,4.34,6.91,14.25,10.62,17.91,3.04,3.01,6.02.99,6.2-2.91.08-1.78-.57-3.23-.6-4.84-.17-8.45-.77-16.92-.54-25.36.35-12.75.35-13.61,1.23-14.92,4.25-6.34,14.57-6.34,19.26-6.07.66-2.89,1.43-7.19,1.66-12.44.55-12.86-2.59-22.77-1.66-23.04,1.03-.29,2,12.25,11.16,18.28,4.82,3.18,7.7,1.78,12.8,5.85,6.18,4.94,6.37,10.52,8.5,10.28,3.18-.35,6.47-13.11,2.82-24.55-2.16-6.76-6.21-11.38-9.02-14.01h-.04v-.04s.03.03.04.04h10.48c1.58,2.47,3.8,6.52,5.13,11.86,2.82,11.49-1.66,16.48.74,24.13,3.98,12.67,22.69,19.11,25.22,16.27,1.76-1.97-5.58-6.87-5.78-17.01-.18-9.07,5.58-12.28,4.69-20.11-.64-5.65-4.34-10.25-8.77-13.9,10.49-.25,20.95-.49,31.44-.74-2.81,8.42-6.39,23.98.74,38.38,4.57,9.26,13.28,17.44,15.71,16.1,1.28-.71-.02-3.63,0-12.07,0-5.13.02-9.95,1.83-14.99,1.63-4.55,3.06-4.69,6.94-10.97,6.42-10.4,6.91-17.17,8.67-16.97,1.95.22,3.9,8.75,2.3,17.34-2.45,13.07-11.71,18.6-9.86,21.21,1.97,2.79,14.94-.24,22.67-9.14,4.81-5.55,6.23-11.8,6.74-15.36.05,3.31.57,8.3,3.14,13.53,5.26,10.7,16.99,18.23,20.65,15.73,2.82-1.93-1.36-8.37,0-19.01,1.14-8.92,5.53-15.83,9.33-20.47-2,4.49-5.8,14.84-2.97,27.05.91,3.9,2.3,7.19,3.7,9.81,9.75-1.51,13.7.4,15.41,2.67,4.02,5.31-3.38,15.33-4.29,36.68-.15,3.6-1.5,13.19,3.93,12.05,2.4-.5,6.59-7.61,8.49-9.86,3.97-4.71,8.2-9.66,13.49-12.91,5.6-3.41,13.68-7.31,16.28,1.39ZM424.64,409.15c-.13.04-.22.06-.23.05,0-.01.08-.03.23-.05Z"/>
</svg>