<svg xmlns="http://www.w3.org/2000/svg" xmlns:xlink="http://www.w3.org/1999/xlink" width="1024" zoomAndPan="magnify" viewBox="0 0 768 767.999994" height="1024" preserveAspectRatio="xMidYMid meet" version="1.0"><path fill="#19bc00" d="M 581.152344 262.484375 C 552.226562 265.359375 535.46875 268.679688 514.433594 275.707031 C 501.945312 279.878906 492.757812 283.851562 478.433594 291.273438 C 467.796875 296.785156 467.769531 296.792969 464.257812 295.859375 C 455.867188 293.636719 451.945312 285.015625 455.1875 275.925781 C 456.238281 272.976562 456.230469 272.945312 454.738281 274.292969 C 453.902344 275.050781 452.097656 277.949219 450.722656 280.738281 C 446.71875 288.871094 447.367188 298.765625 452.285156 304.609375 L 454.324219 307.035156 L 449.660156 311.011719 C 442.347656 317.246094 428.96875 331.007812 423.078125 338.351562 C 411.914062 352.269531 399.738281 372.945312 395.363281 385.417969 C 394.40625 388.148438 393.453125 390.550781 393.246094 390.757812 C 393.039062 390.964844 392.683594 385.71875 392.453125 379.105469 C 391.917969 363.59375 390.046875 355.09375 384.535156 343.074219 C 382.777344 339.242188 382.628906 338.25 383.253906 334.433594 C 385.152344 322.851562 397.066406 308.675781 409.414062 303.308594 C 414.070312 301.28125 409.257812 302.070312 401.824219 304.550781 C 389.78125 308.566406 379.203125 315.75 372.90625 324.183594 C 371.128906 326.566406 369.566406 328.628906 369.433594 328.769531 C 369.300781 328.90625 366.238281 328.074219 362.625 326.914062 C 358.386719 325.554688 353.550781 324.667969 348.976562 324.414062 L 341.894531 324.019531 L 347.007812 326.601562 C 350.234375 328.230469 354.1875 331.246094 357.703125 334.753906 C 367.125 344.152344 371.332031 355.117188 373.121094 374.910156 C 374.753906 393.015625 372.292969 404.363281 365.191406 411.464844 C 363.414062 413.242188 361.960938 414.8125 361.960938 414.957031 C 361.960938 415.101562 364.175781 414.898438 366.882812 414.507812 C 376.632812 413.097656 392.011719 415.492188 400.355469 419.722656 C 402.507812 420.8125 404.492188 421.484375 404.757812 421.214844 C 405.027344 420.949219 405.25 419.636719 405.25 418.300781 C 405.253906 416.964844 406.132812 412.589844 407.210938 408.570312 C 415.445312 377.828125 440.152344 341.957031 468.667969 319.339844 L 476.800781 312.886719 L 487.261719 312.753906 C 494.300781 312.667969 499.269531 312.191406 502.449219 311.300781 C 508 309.746094 518.921875 304.648438 521.730469 302.304688 C 523.496094 300.828125 523.015625 300.894531 516.984375 302.957031 C 508.785156 305.761719 500.894531 306.605469 494.769531 305.335938 C 492.28125 304.820312 490.25 304.128906 490.25 303.800781 C 490.25 302.816406 506.777344 293.667969 515.949219 289.574219 C 549.132812 274.765625 585.558594 267.859375 635.851562 266.839844 C 662.960938 266.289062 662.933594 266.320312 638.941406 263.515625 C 632.175781 262.726562 586.863281 261.914062 581.152344 262.484375 M 198.003906 287.390625 C 183.207031 296.40625 168.289062 310.539062 159.671875 323.71875 C 157.097656 327.652344 154.546875 331.5 154 332.261719 C 153.398438 333.097656 151.128906 333.984375 148.28125 334.496094 C 141.542969 335.703125 135.230469 339.347656 129.761719 345.191406 C 127.179688 347.953125 125.066406 350.574219 125.066406 351.011719 C 125.066406 351.449219 126.703125 350.679688 128.707031 349.300781 C 133.347656 346.109375 138.777344 344.449219 142.53125 345.074219 C 146.933594 345.808594 147.355469 346.824219 145.480469 352.203125 C 144.589844 354.757812 142.4375 362.160156 140.699219 368.652344 C 138.960938 375.144531 136.835938 382.582031 135.976562 385.179688 C 133.742188 391.9375 128.828125 402.257812 128.1875 401.535156 C 127.886719 401.195312 127.222656 399.199219 126.710938 397.09375 C 125.671875 392.800781 121.664062 384.421875 120.226562 383.535156 C 119.574219 383.128906 119.453125 383.386719 119.835938 384.378906 C 121.214844 387.976562 121.855469 396.773438 121.144531 402.382812 C 118.960938 419.597656 109.367188 434.5625 90.429688 450.292969 C 87.0625 453.089844 87.433594 452.972656 98.304688 447.796875 C 124.53125 435.308594 146.261719 430.777344 170.542969 432.722656 C 189.230469 434.222656 204.605469 438.355469 227.550781 448.046875 C 255.6875 459.929688 274.425781 464.757812 299.851562 466.671875 C 311.265625 467.527344 326.683594 466.820312 338.976562 464.867188 L 345.042969 463.90625 L 331.660156 463.359375 C 296.570312 461.929688 274.945312 455.429688 228.558594 432.378906 C 195.464844 415.929688 184.097656 412.332031 165.242188 412.332031 C 155.132812 412.332031 147.851562 413.769531 139.726562 417.367188 C 137.183594 418.496094 135.027344 419.414062 134.933594 419.414062 C 134.839844 419.414062 137.867188 416.277344 141.660156 412.4375 C 147.699219 406.320312 149.089844 404.355469 152.921875 396.5 C 157.652344 386.800781 160.140625 378.507812 163.28125 361.960938 C 166.191406 346.632812 167.984375 340.0625 171.996094 330.039062 C 178.257812 314.390625 188.066406 299.65625 199.332031 288.964844 C 202.640625 285.828125 205.222656 283.257812 205.066406 283.257812 C 204.914062 283.257812 201.738281 285.117188 198.003906 287.390625 M 668.117188 299.136719 C 650.515625 302.875 630.09375 311.160156 612.632812 321.648438 L 604.761719 326.375 L 604.167969 324.296875 C 603.328125 321.351562 604.820312 315.097656 607.574219 310.023438 L 609.929688 305.691406 L 605.554688 310.367188 C 600.613281 315.644531 596.308594 323.597656 594.839844 330.152344 C 593.972656 334.035156 593.328125 335.019531 589.542969 338.234375 C 584.964844 342.132812 580.398438 346.042969 575.839844 349.960938 C 570.675781 354.398438 566.214844 358.023438 565.929688 358.019531 C 564.644531 358.007812 555.710938 340.882812 555.257812 337.566406 C 553.972656 328.132812 558.304688 317.265625 566.597656 309.117188 C 569.617188 306.148438 571.878906 303.722656 571.625 303.722656 C 571.371094 303.722656 568.273438 305.207031 564.742188 307.027344 C 557.023438 311 547.761719 319.796875 543.78125 326.941406 C 542.332031 329.535156 541.101562 331.738281 541.039062 331.835938 C 540.980469 331.929688 538.292969 330.984375 535.066406 329.738281 C 527.78125 326.914062 518.5 324.964844 512.515625 324.996094 L 507.957031 325.019531 L 514.15625 328.285156 C 522.089844 332.46875 531.828125 341.613281 538.082031 350.757812 C 542.777344 357.628906 550.851562 371.242188 550.851562 372.289062 C 550.851562 372.789062 538.214844 384.671875 515.949219 405.109375 C 483.949219 434.484375 456.480469 448.632812 411.546875 458.882812 L 401.707031 461.128906 L 412.539062 460.714844 C 438.367188 459.730469 462.488281 454.351562 485.527344 444.449219 C 493.648438 440.957031 494.859375 440.640625 497.332031 441.355469 C 508.742188 444.652344 520.964844 442.171875 532.605469 434.1875 C 534.476562 432.90625 535.855469 431.703125 535.671875 431.519531 C 535.484375 431.332031 533.109375 432.234375 530.390625 433.519531 C 524.308594 436.394531 518.199219 437.269531 513.453125 435.941406 C 507.21875 434.195312 507.460938 433.589844 517.1875 426.703125 C 526.554688 420.066406 535.378906 412.621094 547.703125 400.964844 C 559.898438 389.425781 561.261719 388.277344 561.609375 389.21875 C 561.789062 389.710938 564.578125 394.089844 567.804688 398.953125 C 573.636719 407.738281 573.675781 407.832031 573.675781 413.046875 C 573.675781 419.289062 575.34375 426.195312 578.054688 431.175781 C 580.105469 434.945312 586.222656 442.546875 586.765625 442 C 586.941406 441.828125 586.023438 439.421875 584.730469 436.652344 C 582.039062 430.882812 580.984375 424.035156 582.273438 420.707031 L 583.144531 418.457031 L 591.28125 426.289062 C 600.558594 435.226562 612.445312 443.503906 625.148438 449.875 C 633.683594 454.15625 648.878906 459.660156 655.132812 460.738281 C 657.875 461.210938 657.414062 460.828125 651.566406 457.769531 C 632.332031 447.703125 618.609375 435.976562 611.933594 423.894531 C 608.417969 417.535156 604.65625 406.351562 603.539062 398.949219 C 603.050781 395.703125 602.449219 391.8125 602.207031 390.296875 L 601.765625 387.542969 L 601.105469 390.6875 C 600.746094 392.421875 600.183594 397.722656 599.851562 402.46875 L 599.253906 411.097656 L 595.121094 405.519531 C 590.792969 399.679688 584.726562 389.863281 579.070312 379.558594 L 575.726562 373.464844 L 583.554688 366.085938 C 610.054688 341.101562 610.023438 341.128906 611.171875 342.699219 C 612.699219 344.789062 612.460938 349.199219 610.601562 353.300781 L 608.996094 356.839844 L 611.457031 354.484375 C 614.839844 351.242188 619.253906 342 619.851562 336.894531 C 620.433594 331.953125 620.753906 331.597656 633.09375 322.246094 C 645.636719 312.742188 658.898438 305.441406 674.503906 299.4375 C 680.679688 297.0625 678.390625 296.953125 668.117188 299.136719 M 301.8125 326.613281 C 290.210938 329.769531 281.464844 330.460938 246.578125 330.960938 C 225.453125 331.261719 207.683594 331.125 199.09375 330.589844 C 191.542969 330.117188 185.25 329.847656 185.113281 329.984375 C 184.976562 330.125 187.035156 331.089844 189.6875 332.128906 C 194.996094 334.210938 200.792969 338.816406 202.664062 342.433594 C 204.4375 345.859375 204.210938 349.714844 201.765625 357.867188 L 199.578125 365.152344 L 194.785156 367.460938 C 183.574219 372.863281 174.003906 384.25 170.417969 396.457031 L 169.1875 400.652344 L 173.394531 396.378906 C 178.675781 391.011719 185.144531 387.054688 192.871094 384.460938 C 201.480469 381.570312 207.644531 380.882812 225.1875 380.867188 C 242.464844 380.847656 242.332031 380.808594 242.332031 386.433594 C 242.332031 388.886719 242.457031 388.792969 246.183594 383.484375 C 250.742188 376.996094 256.109375 372.003906 264.480469 366.464844 C 267.847656 364.238281 270.496094 362.316406 270.371094 362.191406 C 270.246094 362.066406 268.398438 362.339844 266.273438 362.800781 C 264.144531 363.261719 252.929688 363.835938 241.351562 364.078125 C 223.484375 364.453125 220.296875 364.351562 220.296875 363.402344 C 220.296875 362.789062 221.300781 359.289062 222.53125 355.628906 L 224.769531 348.976562 L 271.058594 348.976562 L 271.304688 352.828125 L 271.550781 356.683594 L 274.285156 352.621094 C 279.835938 344.375 288.710938 336.789062 301.734375 329.15625 C 305.640625 326.863281 308.484375 325.019531 308.050781 325.058594 C 307.617188 325.097656 304.8125 325.796875 301.8125 326.613281 M 320.644531 329.644531 C 303.25 332.480469 288.234375 342.332031 278.605469 357.230469 C 270.222656 370.199219 268.574219 385.792969 274.304688 397.90625 C 276.890625 403.371094 283.8125 410.847656 289.074219 413.855469 C 302.945312 421.792969 323.054688 419.800781 339.925781 408.820312 C 363.628906 393.390625 372.082031 363.933594 358.507812 344.066406 C 351.183594 333.34375 335.230469 327.269531 320.644531 329.644531 M 479.832031 329.71875 C 453.527344 334.148438 432.007812 358.296875 432.007812 383.386719 C 432.007812 387.621094 431.324219 390.855469 428.921875 398.019531 C 427.226562 403.078125 425.601562 408.8125 425.316406 410.757812 L 424.800781 414.300781 L 427.742188 409.972656 C 439.765625 392.296875 457.578125 378.421875 476.421875 372.050781 C 485.652344 368.929688 485.488281 368.519531 475.546875 369.902344 C 470.546875 370.59375 459.753906 373.613281 454.121094 375.894531 C 452.589844 376.515625 453.363281 372.054688 455.621094 367.253906 C 461.042969 355.71875 475.101562 347.203125 487.367188 348.023438 C 493.769531 348.449219 495.660156 349.734375 494.152344 352.621094 C 493.617188 353.648438 495.617188 352.15625 498.601562 349.308594 C 504.179688 343.980469 508.894531 340.824219 515.800781 337.792969 L 519.761719 336.054688 L 516.132812 336.023438 C 513.695312 336 510.988281 335.210938 507.871094 333.617188 C 499.957031 329.5625 489.445312 328.101562 479.832031 329.71875 M 512.597656 344.53125 C 507.730469 347.214844 501.265625 351.789062 501.265625 352.554688 C 501.265625 352.855469 502.242188 354.832031 503.433594 356.945312 C 505.300781 360.257812 505.59375 361.644531 505.578125 367.078125 C 505.5625 372.449219 505.203125 374.125 503.140625 378.492188 C 495.972656 393.652344 478.765625 402.761719 464.671875 398.859375 C 462.683594 398.308594 460.101562 396.570312 457.671875 394.140625 C 455.554688 392.027344 453.59375 390.296875 453.316406 390.296875 C 452.328125 390.296875 439.089844 403.035156 439.089844 403.988281 C 439.089844 405.667969 446.394531 412.390625 450.503906 414.492188 C 456.179688 417.394531 461.457031 418.609375 468.449219 418.621094 C 477.230469 418.632812 484.71875 416.742188 494.183594 412.125 C 501.324219 408.640625 503.359375 407.171875 509.136719 401.347656 C 520.617188 389.777344 525.148438 379.789062 525.214844 365.898438 C 525.246094 359.933594 524.867188 356.515625 523.863281 353.617188 C 522.375 349.335938 518.234375 342.277344 517.222656 342.300781 C 516.886719 342.308594 514.808594 343.3125 512.597656 344.53125 M 316.371094 349.179688 C 308.371094 351.535156 301.839844 361.007812 300.664062 371.972656 L 300.089844 377.308594 L 299.15625 374.160156 C 298.640625 372.429688 298.207031 368.710938 298.191406 365.898438 C 298.164062 361.089844 298.085938 360.878906 296.917969 362.355469 C 293.925781 366.136719 291.757812 372.367188 291.347656 378.351562 C 290.992188 383.5 291.199219 385.050781 292.703125 388.546875 C 296.164062 396.59375 302.800781 400.175781 313.128906 399.582031 C 318.335938 399.277344 320.410156 398.722656 325.214844 396.347656 C 332.136719 392.929688 337.964844 387.445312 341.152344 381.359375 C 343.800781 376.292969 343.507812 375.066406 339.078125 372.753906 C 336.484375 371.398438 331.863281 371.410156 328.285156 372.785156 C 327.441406 373.109375 327.265625 372.941406 327.699219 372.238281 C 328.78125 370.484375 335.414062 368.011719 340.320312 367.539062 L 345.042969 367.078125 L 344.792969 363.996094 C 343.832031 351.996094 330.472656 345.03125 316.371094 349.179688 M 201.242188 387.417969 C 197.472656 388.390625 194.117188 389.453125 193.789062 389.78125 C 192.746094 390.824219 192.542969 401.054688 193.503906 403.972656 C 194.933594 408.296875 201.347656 413.582031 207.46875 415.472656 C 212.164062 416.921875 214.777344 417.054688 238.679688 417.058594 C 263.519531 417.0625 269.492188 417.445312 282.472656 419.859375 L 285.226562 420.371094 L 282.078125 418.191406 C 270.1875 409.957031 263.582031 399.488281 263.582031 388.875 C 263.582031 384.246094 262.726562 385.113281 259.851562 392.65625 L 257.601562 398.558594 L 215.4375 398.558594 L 213.464844 396.265625 C 211.480469 393.957031 211.4375 393.332031 212.867188 387.632812 C 213.347656 385.710938 213.203125 385.578125 210.742188 385.613281 C 209.285156 385.636719 205.011719 386.449219 201.242188 387.417969 M 305.691406 423.761719 C 286.042969 425.566406 275.152344 427.207031 250.402344 432.101562 C 247.695312 432.636719 245.480469 433.28125 245.480469 433.535156 C 245.480469 433.785156 248.933594 435.539062 253.15625 437.425781 L 260.828125 440.859375 L 274.207031 438.773438 C 302.984375 434.289062 329.765625 432.785156 353.960938 434.300781 C 367.070312 435.121094 385.339844 437.582031 387.289062 438.785156 C 388.4375 439.496094 383.429688 444.355469 378.882812 446.941406 C 376.71875 448.175781 372.382812 449.957031 369.242188 450.902344 C 366.105469 451.851562 363.535156 452.722656 363.535156 452.84375 C 363.535156 453.339844 371.496094 452.277344 378.589844 450.835938 C 387.515625 449.019531 393.730469 446.613281 402.132812 441.734375 C 408.25 438.179688 408.304688 438.164062 423.089844 436.28125 C 431.242188 435.242188 442 433.550781 447 432.519531 C 455.667969 430.730469 467.730469 427.328125 467.214844 426.8125 C 467.082031 426.679688 462.382812 427.121094 456.769531 427.792969 C 443.355469 429.394531 416.15625 428.800781 398.953125 426.527344 C 368.4375 422.492188 331.457031 421.394531 305.691406 423.761719 M 194.28125 449.304688 C 176.785156 456.023438 160.585938 463.695312 143.167969 473.507812 C 133.1875 479.132812 107.734375 495.847656 106.058594 497.878906 C 105.429688 498.640625 106.28125 498.363281 108.144531 497.195312 C 114.964844 492.929688 135.527344 482.195312 147.101562 476.863281 C 167.683594 467.378906 191.152344 458.597656 212.304688 452.460938 C 215.484375 451.539062 217.964844 450.671875 217.8125 450.53125 C 217.664062 450.390625 214.511719 449.210938 210.808594 447.90625 L 204.078125 445.539062 Z M 194.28125 449.304688 " fill-opacity="1" fill-rule="evenodd"/></svg>