<svg xmlns="http://www.w3.org/2000/svg" xmlns:xlink="http://www.w3.org/1999/xlink" width="1920" zoomAndPan="magnify" viewBox="0 0 1440 809.999993" height="1080" preserveAspectRatio="xMidYMid meet" version="1.0"><defs><g/><clipPath id="993e14ba4b"><rect x="0" width="1391" y="0" height="318"/></clipPath></defs><g transform="matrix(1, 0, 0, 1, 19, 241)"><g clip-path="url(#993e14ba4b)"><g fill="#8a8788" fill-opacity="1"><g transform="translate(31.056392, 239.371294)"><g><path d="M -28.703125 3.09375 C -29.453125 -0.09375 -29.6875 -2.90625 -29.40625 -5.34375 C -29.125 -7.78125 -28.046875 -10.5 -26.171875 -13.5 C -25.421875 -14.625 -24.53125 -16.453125 -23.5 -18.984375 C -22.46875 -21.523438 -21.578125 -24.015625 -20.828125 -26.453125 C -19.515625 -30.203125 -17.820312 -35.640625 -15.75 -42.765625 C -13.6875 -49.898438 -11.4375 -57.640625 -9 -65.984375 C -6.5625 -74.335938 -4.21875 -82.453125 -1.96875 -90.328125 C 0.28125 -98.203125 2.15625 -104.769531 3.65625 -110.03125 C 6.84375 -122.40625 10.171875 -134.359375 13.640625 -145.890625 C 17.117188 -157.429688 20.453125 -167.890625 23.640625 -177.265625 C 26.828125 -186.648438 29.734375 -194.390625 32.359375 -200.484375 C 34.984375 -206.585938 37.046875 -210.390625 38.546875 -211.890625 C 40.234375 -213.765625 42.578125 -214.46875 45.578125 -214 C 48.585938 -213.53125 50.9375 -212.078125 52.625 -209.640625 C 54.5 -207.203125 55.34375 -203.445312 55.15625 -198.375 C 54.96875 -193.3125 53.5625 -185.71875 50.9375 -175.59375 C 50.1875 -172.769531 49.578125 -170.328125 49.109375 -168.265625 C 48.640625 -166.203125 48.5 -165.078125 48.6875 -164.890625 C 48.6875 -164.890625 48.210938 -163.15625 47.265625 -159.6875 C 46.328125 -156.21875 45.203125 -152.046875 43.890625 -147.171875 C 42.578125 -142.472656 40.890625 -136.375 38.828125 -128.875 C 36.765625 -121.375 34.984375 -114.804688 33.484375 -109.171875 C 31.984375 -103.546875 30.34375 -97.453125 28.5625 -90.890625 C 26.78125 -84.328125 25.421875 -79.164062 24.484375 -75.40625 C 23.734375 -71.84375 22.703125 -67.4375 21.390625 -62.1875 C 20.078125 -56.9375 18.953125 -52.4375 18.015625 -48.6875 C 17.265625 -45.113281 16.554688 -41.96875 15.890625 -39.25 C 15.234375 -36.53125 14.90625 -35.171875 14.90625 -35.171875 C 15.09375 -34.984375 16.171875 -35.21875 18.140625 -35.875 C 20.117188 -36.53125 22.515625 -37.234375 25.328125 -37.984375 C 34.328125 -40.984375 43.84375 -43.703125 53.875 -46.140625 C 63.914062 -48.585938 73.671875 -50.609375 83.140625 -52.203125 C 92.617188 -53.796875 101.0625 -54.921875 108.46875 -55.578125 C 115.882812 -56.234375 121.46875 -56.1875 125.21875 -55.4375 C 128.40625 -54.6875 131.40625 -53.28125 134.21875 -51.21875 C 136.09375 -49.90625 137.3125 -48.820312 137.875 -47.96875 C 138.4375 -47.125 138.8125 -45.765625 139 -43.890625 C 139.375 -42.203125 139.515625 -40.984375 139.421875 -40.234375 C 139.328125 -39.484375 139 -38.640625 138.4375 -37.703125 C 137.5 -36.390625 135.859375 -35.03125 133.515625 -33.625 C 131.171875 -32.21875 128.78125 -31.234375 126.34375 -30.671875 C 125.21875 -30.484375 123.4375 -29.921875 121 -28.984375 C 118.5625 -28.046875 116.03125 -27.109375 113.40625 -26.171875 C 110.96875 -25.234375 106.882812 -23.640625 101.15625 -21.390625 C 95.4375 -19.140625 89.859375 -16.976562 84.421875 -14.90625 C 70.910156 -9.84375 60.164062 -5.765625 52.1875 -2.671875 C 44.21875 0.421875 37.984375 2.90625 33.484375 4.78125 C 28.984375 6.65625 25.234375 8.25 22.234375 9.5625 C 19.234375 10.875 16.039062 12.375 12.65625 14.0625 C 7.59375 16.507812 4.03125 18.109375 1.96875 18.859375 C -0.09375 19.609375 -2.4375 20.078125 -5.0625 20.265625 C -7.5 20.453125 -9.328125 20.40625 -10.546875 20.125 C -11.765625 19.84375 -13.503906 19.234375 -15.765625 18.296875 C -22.515625 14.910156 -26.828125 9.84375 -28.703125 3.09375 Z M -28.703125 3.09375 "/></g></g></g><g fill="#8a8788" fill-opacity="1"><g transform="translate(157.398779, 239.371294)"><g><path d="M 21.671875 -137.59375 C 18.671875 -137.59375 16.320312 -138.53125 14.625 -140.40625 C 8.625 -146.976562 14.347656 -155.140625 31.796875 -164.890625 C 37.984375 -168.265625 41.734375 -170.988281 43.046875 -173.0625 C 46.054688 -178.5 49.15625 -180.9375 52.34375 -180.375 C 54.21875 -179.8125 55.15625 -179.0625 55.15625 -178.125 C 55.15625 -177 55.625 -176.484375 56.5625 -176.578125 C 57.5 -176.671875 59.5625 -177.28125 62.75 -178.40625 C 67.25 -180.09375 72.078125 -181.40625 77.234375 -182.34375 C 82.398438 -183.28125 87.1875 -183.84375 91.59375 -184.03125 C 96 -184.21875 99.328125 -183.84375 101.578125 -182.90625 C 105.890625 -181.21875 108.234375 -179.203125 108.609375 -176.859375 C 108.984375 -174.515625 107.484375 -171.554688 104.109375 -167.984375 C 102.234375 -166.296875 99.84375 -164.609375 96.9375 -162.921875 C 94.03125 -161.234375 89.945312 -159.359375 84.6875 -157.296875 C 79.4375 -155.234375 72.21875 -152.609375 63.03125 -149.421875 L 45.578125 -143.234375 L 41.921875 -132.8125 C 40.984375 -130 40.1875 -127.5625 39.53125 -125.5 C 38.875 -123.4375 38.546875 -122.3125 38.546875 -122.125 C 39.484375 -122.125 42.582031 -123.15625 47.84375 -125.21875 C 57.96875 -128.78125 65.46875 -129.25 70.34375 -126.625 C 73.71875 -124.9375 75.265625 -122.171875 74.984375 -118.328125 C 74.703125 -114.484375 72.6875 -110.960938 68.9375 -107.765625 C 67.625 -106.828125 66.078125 -105.796875 64.296875 -104.671875 C 62.515625 -103.546875 59.84375 -102.140625 56.28125 -100.453125 C 52.71875 -98.765625 47.648438 -96.421875 41.078125 -93.421875 C 37.328125 -91.734375 34.046875 -90.140625 31.234375 -88.640625 C 28.421875 -87.140625 26.828125 -86.203125 26.453125 -85.828125 C 26.078125 -85.265625 25.375 -83.335938 24.34375 -80.046875 C 23.3125 -76.765625 22.1875 -72.921875 20.96875 -68.515625 C 19.75 -64.109375 18.578125 -59.75 17.453125 -55.4375 C 16.328125 -51.125 15.476562 -47.507812 14.90625 -44.59375 C 14.34375 -41.6875 14.15625 -40.234375 14.34375 -40.234375 C 14.53125 -40.234375 15.328125 -40.75 16.734375 -41.78125 C 18.148438 -42.8125 19.796875 -43.984375 21.671875 -45.296875 C 27.296875 -49.617188 33.8125 -54.21875 41.21875 -59.09375 C 48.632812 -63.96875 56 -68.609375 63.3125 -73.015625 C 70.625 -77.429688 77.046875 -81.140625 82.578125 -84.140625 C 88.117188 -87.140625 91.734375 -88.734375 93.421875 -88.921875 C 97.734375 -89.671875 101.4375 -88.59375 104.53125 -85.6875 C 107.625 -82.78125 108.984375 -79.257812 108.609375 -75.125 C 108.234375 -72.125 106.734375 -69.3125 104.109375 -66.6875 C 101.484375 -64.0625 96.890625 -60.78125 90.328125 -56.84375 C 81.128906 -51.40625 73.109375 -46.570312 66.265625 -42.34375 C 59.421875 -38.125 53.65625 -34.421875 48.96875 -31.234375 C 39.019531 -24.671875 31.046875 -19.507812 25.046875 -15.75 C 19.046875 -12 14.398438 -9.328125 11.109375 -7.734375 C 7.828125 -6.140625 5.25 -5.390625 3.375 -5.484375 C 1.5 -5.578125 -0.46875 -6.1875 -2.53125 -7.3125 C -3.28125 -7.6875 -4.125 -8.34375 -5.0625 -9.28125 C -6 -10.21875 -6.65625 -11.0625 -7.03125 -11.8125 C -8.15625 -13.875 -8.53125 -17.71875 -8.15625 -23.34375 C -7.78125 -28.976562 -6.75 -35.6875 -5.0625 -43.46875 C -3.375 -51.257812 -1.125 -59.375 1.6875 -67.8125 C 2.625 -70.625 3.375 -73.015625 3.9375 -74.984375 C 4.5 -76.953125 4.78125 -77.9375 4.78125 -77.9375 C 4.59375 -77.9375 4.125 -77.84375 3.375 -77.65625 C 2.625 -77.46875 1.78125 -77.1875 0.84375 -76.8125 C -2.53125 -75.875 -5.71875 -75.5 -8.71875 -75.6875 C -11.71875 -75.875 -13.875 -76.53125 -15.1875 -77.65625 C -17.070312 -79.539062 -17.921875 -81.703125 -17.734375 -84.140625 C -17.546875 -86.578125 -16.414062 -88.921875 -14.34375 -91.171875 C -12.28125 -93.234375 -8.8125 -96 -3.9375 -99.46875 C 0.9375 -102.9375 5.71875 -105.984375 10.40625 -108.609375 L 17.171875 -112.5625 L 21.109375 -123.25 C 22.234375 -126.25 23.21875 -128.96875 24.0625 -131.40625 C 24.90625 -133.84375 25.421875 -135.25 25.609375 -135.625 C 25.984375 -136.375 25.890625 -136.84375 25.328125 -137.03125 C 24.765625 -137.21875 23.546875 -137.40625 21.671875 -137.59375 Z M 21.671875 -137.59375 "/></g></g></g><g fill="#8a8788" fill-opacity="1"><g transform="translate(266.295222, 239.371294)"><g><path d="M 36.578125 -108.328125 C 34.890625 -107.765625 31.421875 -98.296875 26.171875 -79.921875 C 23.921875 -72.410156 22.28125 -65.234375 21.25 -58.390625 C 20.21875 -51.546875 19.84375 -46.007812 20.125 -41.78125 C 20.40625 -37.5625 21.390625 -35.453125 23.078125 -35.453125 C 23.640625 -35.453125 24.671875 -35.828125 26.171875 -36.578125 C 27.671875 -37.328125 29.171875 -38.171875 30.671875 -39.109375 C 34.609375 -41.734375 38.78125 -45.15625 43.1875 -49.375 C 47.601562 -53.601562 51.59375 -57.875 55.15625 -62.1875 C 57.21875 -64.8125 59.5625 -68.046875 62.1875 -71.890625 C 64.8125 -75.734375 67.15625 -79.296875 69.21875 -82.578125 C 71.28125 -85.867188 72.40625 -87.890625 72.59375 -88.640625 C 72.59375 -89.578125 70.15625 -90.984375 65.28125 -92.859375 C 61.15625 -94.359375 56.742188 -96.421875 52.046875 -99.046875 C 47.359375 -101.671875 43.703125 -104.109375 41.078125 -106.359375 C 39.015625 -108.046875 37.515625 -108.703125 36.578125 -108.328125 Z M 61.625 -153.921875 C 60.875 -151.859375 59.75 -151.015625 58.25 -151.390625 C 57.3125 -151.578125 56.140625 -150.828125 54.734375 -149.140625 C 53.328125 -147.453125 52.203125 -145.570312 51.359375 -143.5 C 50.515625 -141.4375 50.375 -140.03125 50.9375 -139.28125 C 51.875 -137.96875 54.03125 -136.140625 57.40625 -133.796875 C 60.78125 -131.453125 64.53125 -129.0625 68.65625 -126.625 C 72.78125 -124.1875 76.4375 -122.265625 79.625 -120.859375 C 82.820312 -119.453125 84.609375 -119.03125 84.984375 -119.59375 C 85.171875 -119.96875 85.453125 -121.046875 85.828125 -122.828125 C 86.203125 -124.609375 86.578125 -126.53125 86.953125 -128.59375 C 87.703125 -132.15625 88.03125 -136.140625 87.9375 -140.546875 C 87.84375 -144.960938 87.46875 -149.09375 86.8125 -152.9375 C 86.15625 -156.78125 85.171875 -159.734375 83.859375 -161.796875 C 82.546875 -164.421875 81.039062 -166.34375 79.34375 -167.5625 C 77.65625 -168.78125 75.3125 -169.671875 72.3125 -170.234375 C 70.0625 -170.609375 68.75 -170.65625 68.375 -170.375 C 68 -170.09375 67.8125 -169.203125 67.8125 -167.703125 C 67.8125 -165.453125 67.0625 -163.109375 65.5625 -160.671875 C 64.8125 -159.734375 64.0625 -158.609375 63.3125 -157.296875 C 62.5625 -155.984375 62 -154.859375 61.625 -153.921875 Z M 14.0625 -7.59375 C 8.4375 -8.90625 3.9375 -11.628906 0.5625 -15.765625 C -4.125 -21.765625 -7.03125 -29.828125 -8.15625 -39.953125 C -9.09375 -50.460938 -8.015625 -62.140625 -4.921875 -74.984375 C -1.828125 -87.835938 3.46875 -102.894531 10.96875 -120.15625 L 17.171875 -134.5 L 15.46875 -140.125 C 12.09375 -151.757812 13.597656 -160.578125 19.984375 -166.578125 C 21.484375 -168.078125 24.296875 -170.140625 28.421875 -172.765625 C 32.546875 -175.398438 36.859375 -177.9375 41.359375 -180.375 C 45.867188 -182.8125 49.34375 -184.5 51.78125 -185.4375 C 56.46875 -187.125 62.140625 -187.96875 68.796875 -187.96875 C 75.460938 -187.96875 80.765625 -187.125 84.703125 -185.4375 C 92.203125 -182.0625 98.109375 -175.960938 102.421875 -167.140625 C 108.054688 -156.265625 109.507812 -142.007812 106.78125 -124.375 C 104.0625 -106.738281 97.453125 -88.164062 86.953125 -68.65625 C 81.515625 -58.15625 75.039062 -48.304688 67.53125 -39.109375 C 60.03125 -29.921875 52.617188 -22.609375 45.296875 -17.171875 C 39.109375 -12.472656 33.53125 -9.375 28.5625 -7.875 C 23.59375 -6.375 18.757812 -6.28125 14.0625 -7.59375 Z M 14.0625 -7.59375 "/></g></g></g><g fill="#8a8788" fill-opacity="1"><g transform="translate(367.875654, 239.371294)"><g><path d="M 0 8.15625 C -2.625 7.78125 -5.203125 6.609375 -7.734375 4.640625 C -10.265625 2.671875 -11.90625 0.46875 -12.65625 -1.96875 C -13.21875 -3.46875 -13.40625 -7.03125 -13.21875 -12.65625 C -13.03125 -18.289062 -12.65625 -24.90625 -12.09375 -32.5 C -11.53125 -40.09375 -10.828125 -47.59375 -9.984375 -55 C -9.140625 -62.414062 -8.25 -68.65625 -7.3125 -73.71875 C -5.25 -84.789062 -2.71875 -96.046875 0.28125 -107.484375 C 3.28125 -118.929688 6.375 -129.625 9.5625 -139.5625 C 12.75 -149.507812 15.84375 -158 18.84375 -165.03125 C 21.851562 -172.070312 24.484375 -176.625 26.734375 -178.6875 C 28.421875 -180.1875 30.578125 -181.03125 33.203125 -181.21875 C 35.828125 -181.40625 37.796875 -180.84375 39.109375 -179.53125 C 40.421875 -178.21875 41.21875 -176.625 41.5 -174.75 C 41.78125 -172.875 41.5 -169.820312 40.65625 -165.59375 C 39.8125 -161.375 38.359375 -154.859375 36.296875 -146.046875 C 31.421875 -125.597656 27.53125 -109.132812 24.625 -96.65625 C 21.71875 -84.175781 19.796875 -75.125 18.859375 -69.5 C 17.921875 -63.875 17.640625 -60.875 18.015625 -60.5 C 18.203125 -60.3125 20.03125 -62.65625 23.5 -67.53125 C 26.96875 -72.40625 31.328125 -78.828125 36.578125 -86.796875 C 41.828125 -94.773438 47.40625 -103.3125 53.3125 -112.40625 C 59.226562 -121.507812 64.8125 -130.09375 70.0625 -138.15625 C 77.007812 -149.226562 82.640625 -157.8125 86.953125 -163.90625 C 91.265625 -170.007812 94.96875 -174.609375 98.0625 -177.703125 C 101.15625 -180.796875 104.390625 -183.09375 107.765625 -184.59375 C 108.898438 -185.15625 110.59375 -186.421875 112.84375 -188.390625 C 115.09375 -190.359375 117.15625 -192.46875 119.03125 -194.71875 C 122.78125 -199.03125 125.828125 -201.984375 128.171875 -203.578125 C 130.515625 -205.179688 132.71875 -205.703125 134.78125 -205.140625 C 138.15625 -204.390625 140.359375 -202.414062 141.390625 -199.21875 C 142.429688 -196.03125 142.203125 -192 140.703125 -187.125 C 139.753906 -183.9375 137.640625 -179.148438 134.359375 -172.765625 C 131.078125 -166.390625 126.25 -157.804688 119.875 -147.015625 C 113.5 -136.234375 105.335938 -122.585938 95.390625 -106.078125 C 90.328125 -97.828125 86.101562 -90.929688 82.71875 -85.390625 C 79.34375 -79.859375 76.25 -74.796875 73.4375 -70.203125 C 70.625 -65.609375 67.765625 -60.78125 64.859375 -55.71875 C 61.953125 -50.65625 58.34375 -44.554688 54.03125 -37.421875 C 47.457031 -26.546875 41.96875 -17.773438 37.5625 -11.109375 C 33.15625 -4.453125 29.359375 0.46875 26.171875 3.65625 C 22.984375 6.84375 19.976562 8.8125 17.15625 9.5625 C 14.34375 10.3125 11.15625 10.3125 7.59375 9.5625 C 6.65625 9.1875 5.390625 8.90625 3.796875 8.71875 C 2.203125 8.53125 0.9375 8.34375 0 8.15625 Z M 0 8.15625 "/></g></g></g><g fill="#8a8788" fill-opacity="1"><g transform="translate(477.897636, 239.371294)"><g><path d="M 36.578125 -108.328125 C 34.890625 -107.765625 31.421875 -98.296875 26.171875 -79.921875 C 23.921875 -72.410156 22.28125 -65.234375 21.25 -58.390625 C 20.21875 -51.546875 19.84375 -46.007812 20.125 -41.78125 C 20.40625 -37.5625 21.390625 -35.453125 23.078125 -35.453125 C 23.640625 -35.453125 24.671875 -35.828125 26.171875 -36.578125 C 27.671875 -37.328125 29.171875 -38.171875 30.671875 -39.109375 C 34.609375 -41.734375 38.78125 -45.15625 43.1875 -49.375 C 47.601562 -53.601562 51.59375 -57.875 55.15625 -62.1875 C 57.21875 -64.8125 59.5625 -68.046875 62.1875 -71.890625 C 64.8125 -75.734375 67.15625 -79.296875 69.21875 -82.578125 C 71.28125 -85.867188 72.40625 -87.890625 72.59375 -88.640625 C 72.59375 -89.578125 70.15625 -90.984375 65.28125 -92.859375 C 61.15625 -94.359375 56.742188 -96.421875 52.046875 -99.046875 C 47.359375 -101.671875 43.703125 -104.109375 41.078125 -106.359375 C 39.015625 -108.046875 37.515625 -108.703125 36.578125 -108.328125 Z M 61.625 -153.921875 C 60.875 -151.859375 59.75 -151.015625 58.25 -151.390625 C 57.3125 -151.578125 56.140625 -150.828125 54.734375 -149.140625 C 53.328125 -147.453125 52.203125 -145.570312 51.359375 -143.5 C 50.515625 -141.4375 50.375 -140.03125 50.9375 -139.28125 C 51.875 -137.96875 54.03125 -136.140625 57.40625 -133.796875 C 60.78125 -131.453125 64.53125 -129.0625 68.65625 -126.625 C 72.78125 -124.1875 76.4375 -122.265625 79.625 -120.859375 C 82.820312 -119.453125 84.609375 -119.03125 84.984375 -119.59375 C 85.171875 -119.96875 85.453125 -121.046875 85.828125 -122.828125 C 86.203125 -124.609375 86.578125 -126.53125 86.953125 -128.59375 C 87.703125 -132.15625 88.03125 -136.140625 87.9375 -140.546875 C 87.84375 -144.960938 87.46875 -149.09375 86.8125 -152.9375 C 86.15625 -156.78125 85.171875 -159.734375 83.859375 -161.796875 C 82.546875 -164.421875 81.039062 -166.34375 79.34375 -167.5625 C 77.65625 -168.78125 75.3125 -169.671875 72.3125 -170.234375 C 70.0625 -170.609375 68.75 -170.65625 68.375 -170.375 C 68 -170.09375 67.8125 -169.203125 67.8125 -167.703125 C 67.8125 -165.453125 67.0625 -163.109375 65.5625 -160.671875 C 64.8125 -159.734375 64.0625 -158.609375 63.3125 -157.296875 C 62.5625 -155.984375 62 -154.859375 61.625 -153.921875 Z M 14.0625 -7.59375 C 8.4375 -8.90625 3.9375 -11.628906 0.5625 -15.765625 C -4.125 -21.765625 -7.03125 -29.828125 -8.15625 -39.953125 C -9.09375 -50.460938 -8.015625 -62.140625 -4.921875 -74.984375 C -1.828125 -87.835938 3.46875 -102.894531 10.96875 -120.15625 L 17.171875 -134.5 L 15.46875 -140.125 C 12.09375 -151.757812 13.597656 -160.578125 19.984375 -166.578125 C 21.484375 -168.078125 24.296875 -170.140625 28.421875 -172.765625 C 32.546875 -175.398438 36.859375 -177.9375 41.359375 -180.375 C 45.867188 -182.8125 49.34375 -184.5 51.78125 -185.4375 C 56.46875 -187.125 62.140625 -187.96875 68.796875 -187.96875 C 75.460938 -187.96875 80.765625 -187.125 84.703125 -185.4375 C 92.203125 -182.0625 98.109375 -175.960938 102.421875 -167.140625 C 108.054688 -156.265625 109.507812 -142.007812 106.78125 -124.375 C 104.0625 -106.738281 97.453125 -88.164062 86.953125 -68.65625 C 81.515625 -58.15625 75.039062 -48.304688 67.53125 -39.109375 C 60.03125 -29.921875 52.617188 -22.609375 45.296875 -17.171875 C 39.109375 -12.472656 33.53125 -9.375 28.5625 -7.875 C 23.59375 -6.375 18.757812 -6.28125 14.0625 -7.59375 Z M 14.0625 -7.59375 "/></g></g></g><g fill="#8a8788" fill-opacity="1"><g transform="translate(566.252902, 239.371294)"><g><path d="M 5.90625 -72.3125 L 12.9375 -81.890625 L 12.65625 -95.671875 C 12.65625 -102.421875 13.03125 -109.734375 13.78125 -117.609375 C 14.53125 -125.492188 15.515625 -133.375 16.734375 -141.25 C 17.960938 -149.132812 19.375 -156.3125 20.96875 -162.78125 C 22.5625 -169.257812 24.203125 -174.46875 25.890625 -178.40625 C 28.328125 -183.84375 31.703125 -187.03125 36.015625 -187.96875 C 40.328125 -188.90625 43.703125 -187.21875 46.140625 -182.90625 C 47.273438 -180.84375 47.984375 -176.992188 48.265625 -171.359375 C 48.546875 -165.734375 48.3125 -157.203125 47.5625 -145.765625 C 47.375 -140.691406 47.179688 -136.328125 46.984375 -132.671875 C 46.796875 -129.015625 46.800781 -127.1875 47 -127.1875 C 47.1875 -127 47.890625 -127.5625 49.109375 -128.875 C 50.328125 -130.1875 51.6875 -131.78125 53.1875 -133.65625 C 56 -137.21875 59.5625 -141.484375 63.875 -146.453125 C 68.1875 -151.429688 72.78125 -156.640625 77.65625 -162.078125 C 82.539062 -167.515625 87.1875 -172.578125 91.59375 -177.265625 C 96 -181.960938 99.609375 -185.71875 102.421875 -188.53125 C 109.742188 -195.65625 115.515625 -201.09375 119.734375 -204.84375 C 123.953125 -208.601562 127.421875 -211.1875 130.140625 -212.59375 C 132.859375 -214 135.53125 -214.796875 138.15625 -214.984375 C 140.226562 -215.171875 141.734375 -215.078125 142.671875 -214.703125 C 143.609375 -214.328125 144.546875 -213.578125 145.484375 -212.453125 C 146.984375 -210.953125 147.828125 -209.5 148.015625 -208.09375 C 148.203125 -206.6875 147.5 -204.710938 145.90625 -202.171875 C 144.3125 -199.640625 141.445312 -195.84375 137.3125 -190.78125 C 131.5 -183.46875 126.71875 -177.460938 122.96875 -172.765625 C 119.21875 -168.078125 115.976562 -163.953125 113.25 -160.390625 C 110.53125 -156.828125 107.859375 -153.359375 105.234375 -149.984375 C 102.609375 -146.609375 99.609375 -142.570312 96.234375 -137.875 C 92.109375 -132.4375 88.640625 -127.84375 85.828125 -124.09375 C 83.015625 -120.34375 80.429688 -116.820312 78.078125 -113.53125 C 75.734375 -110.25 73.203125 -106.734375 70.484375 -102.984375 C 67.765625 -99.234375 64.4375 -94.640625 60.5 -89.203125 L 49.25 -73.71875 L 50.09375 -68.65625 C 50.65625 -66.03125 51.6875 -62.75 53.1875 -58.8125 C 54.6875 -54.875 56.375 -51.117188 58.25 -47.546875 C 60.125 -43.984375 61.90625 -41.078125 63.59375 -38.828125 C 66.59375 -35.078125 69.875 -31.75 73.4375 -28.84375 C 77.007812 -25.9375 80.953125 -23.546875 85.265625 -21.671875 C 89.015625 -20.171875 91.6875 -19.46875 93.28125 -19.5625 C 94.875 -19.65625 95.671875 -20.640625 95.671875 -22.515625 C 96.046875 -25.703125 96.5625 -28.328125 97.21875 -30.390625 C 97.875 -32.453125 98.859375 -33.765625 100.171875 -34.328125 C 106.171875 -36.953125 110.300781 -32.734375 112.5625 -21.671875 C 113.5 -15.847656 112.554688 -10.5 109.734375 -5.625 C 106.921875 -0.75 102.609375 2.71875 96.796875 4.78125 C 88.734375 7.78125 80.382812 8.484375 71.75 6.890625 C 63.125 5.296875 55.007812 1.734375 47.40625 -3.796875 C 39.8125 -9.328125 33.484375 -16.410156 28.421875 -25.046875 C 26.921875 -27.671875 25.609375 -29.875 24.484375 -31.65625 C 23.359375 -33.4375 22.703125 -34.328125 22.515625 -34.328125 C 22.515625 -34.328125 21.578125 -33.0625 19.703125 -30.53125 C 17.828125 -28 15.664062 -24.859375 13.21875 -21.109375 C 4.40625 -8.535156 -2.296875 0.9375 -6.890625 7.3125 C -11.484375 13.695312 -14.859375 18.109375 -17.015625 20.546875 C -19.179688 22.984375 -21.109375 24.578125 -22.796875 25.328125 C -24.859375 26.265625 -26.40625 26.78125 -27.4375 26.875 C -28.46875 26.96875 -30.015625 26.640625 -32.078125 25.890625 C -35.828125 24.390625 -38.265625 21.242188 -39.390625 16.453125 C -40.515625 11.671875 -40.140625 6.28125 -38.265625 0.28125 C -36.765625 -4.21875 -33.71875 -10.546875 -29.125 -18.703125 C -24.53125 -26.867188 -19.132812 -35.734375 -12.9375 -45.296875 C -6.75 -54.867188 -0.46875 -63.875 5.90625 -72.3125 Z M 5.90625 -72.3125 "/></g></g></g><g fill="#8a8788" fill-opacity="1"><g transform="translate(747.693864, 241.883669)"><g><path d="M 51.875 1.71875 C 35.15625 1.71875 23.078125 -2.425781 15.640625 -10.71875 C 8.210938 -19.007812 4.5 -32.367188 4.5 -50.796875 L 4.5 -68.8125 L 40.734375 -68.8125 L 40.734375 -45.875 C 40.734375 -36.726562 43.660156 -32.15625 49.515625 -32.15625 C 52.804688 -32.15625 55.09375 -33.117188 56.375 -35.046875 C 57.664062 -36.972656 58.3125 -40.222656 58.3125 -44.796875 C 58.3125 -50.796875 57.59375 -55.757812 56.15625 -59.6875 C 54.726562 -63.625 52.90625 -66.914062 50.6875 -69.5625 C 48.476562 -72.207031 44.515625 -76.316406 38.796875 -81.890625 L 22.9375 -97.75 C 10.644531 -109.75 4.5 -123.039062 4.5 -137.625 C 4.5 -153.34375 8.109375 -165.304688 15.328125 -173.515625 C 22.546875 -181.734375 33.082031 -185.84375 46.9375 -185.84375 C 63.519531 -185.84375 75.453125 -181.445312 82.734375 -172.65625 C 90.023438 -163.875 93.671875 -150.125 93.671875 -131.40625 L 56.15625 -131.40625 L 55.953125 -144.046875 C 55.953125 -146.472656 55.269531 -148.398438 53.90625 -149.828125 C 52.550781 -151.265625 50.660156 -151.984375 48.234375 -151.984375 C 45.367188 -151.984375 43.222656 -151.195312 41.796875 -149.625 C 40.367188 -148.050781 39.65625 -145.90625 39.65625 -143.1875 C 39.65625 -137.1875 43.085938 -130.972656 49.953125 -124.546875 L 71.375 -103.96875 C 76.382812 -99.101562 80.53125 -94.488281 83.8125 -90.125 C 87.101562 -85.769531 89.75 -80.628906 91.75 -74.703125 C 93.75 -68.773438 94.75 -61.738281 94.75 -53.59375 C 94.75 -35.4375 91.425781 -21.675781 84.78125 -12.3125 C 78.132812 -2.957031 67.164062 1.71875 51.875 1.71875 Z M 51.875 1.71875 "/></g></g></g><g fill="#8a8788" fill-opacity="1"><g transform="translate(846.503154, 241.883669)"><g><path d="M 24.015625 0 L 24.015625 -148.765625 L 2.140625 -148.765625 L 2.140625 -184.140625 L 82.75 -184.140625 L 82.75 -148.765625 L 60.875 -148.765625 L 60.875 0 Z M 24.015625 0 "/></g></g></g><g fill="#8a8788" fill-opacity="1"><g transform="translate(931.380517, 241.883669)"><g><path d="M 50.796875 1.71875 C 35.648438 1.71875 24.394531 -2.566406 17.03125 -11.140625 C 9.675781 -19.722656 6 -32.441406 6 -49.296875 L 6 -184.140625 L 41.796875 -184.140625 L 41.796875 -50.796875 C 41.796875 -44.941406 42.367188 -40.367188 43.515625 -37.078125 C 44.660156 -33.796875 47.085938 -32.15625 50.796875 -32.15625 C 54.515625 -32.15625 56.945312 -33.757812 58.09375 -36.96875 C 59.238281 -40.1875 59.8125 -44.796875 59.8125 -50.796875 L 59.8125 -184.140625 L 95.609375 -184.140625 L 95.609375 -49.296875 C 95.609375 -32.441406 91.925781 -19.722656 84.5625 -11.140625 C 77.207031 -2.566406 65.953125 1.71875 50.796875 1.71875 Z M 50.796875 1.71875 "/></g></g></g><g fill="#8a8788" fill-opacity="1"><g transform="translate(1032.976133, 241.883669)"><g><path d="M 8.140625 -184.140625 L 58.953125 -184.140625 C 72.097656 -184.140625 81.957031 -180.492188 88.53125 -173.203125 C 95.101562 -165.910156 98.460938 -155.117188 98.609375 -140.828125 L 99.03125 -54.65625 C 99.175781 -36.507812 96.03125 -22.863281 89.59375 -13.71875 C 83.164062 -4.570312 72.519531 0 57.65625 0 L 8.140625 0 Z M 51.65625 -32.578125 C 58.375 -32.578125 61.734375 -35.863281 61.734375 -42.4375 L 61.734375 -137.40625 C 61.734375 -141.550781 61.410156 -144.660156 60.765625 -146.734375 C 60.128906 -148.804688 58.953125 -150.195312 57.234375 -150.90625 C 55.515625 -151.625 52.867188 -151.984375 49.296875 -151.984375 L 45.234375 -151.984375 L 45.234375 -32.578125 Z M 51.65625 -32.578125 "/></g></g></g><g fill="#8a8788" fill-opacity="1"><g transform="translate(1138.644162, 241.883669)"><g><path d="M 6.4375 0 L 6.4375 -184.140625 L 42.015625 -184.140625 L 42.015625 0 Z M 6.4375 0 "/></g></g></g><g fill="#8a8788" fill-opacity="1"><g transform="translate(1187.298614, 241.883669)"><g><path d="M 52.09375 1.71875 C 37.226562 1.71875 25.9375 -2.816406 18.21875 -11.890625 C 10.5 -20.972656 6.640625 -33.726562 6.640625 -50.15625 L 6.640625 -137.828125 C 6.640625 -153.691406 10.5 -165.660156 18.21875 -173.734375 C 25.9375 -181.804688 37.226562 -185.84375 52.09375 -185.84375 C 66.945312 -185.84375 78.234375 -181.804688 85.953125 -173.734375 C 93.671875 -165.660156 97.53125 -153.691406 97.53125 -137.828125 L 97.53125 -50.15625 C 97.53125 -33.582031 93.671875 -20.789062 85.953125 -11.78125 C 78.234375 -2.78125 66.945312 1.71875 52.09375 1.71875 Z M 52.09375 -32.15625 C 55.375 -32.15625 57.585938 -33.582031 58.734375 -36.4375 C 59.878906 -39.300781 60.453125 -43.300781 60.453125 -48.4375 L 60.453125 -138.46875 C 60.453125 -142.476562 59.914062 -145.734375 58.84375 -148.234375 C 57.769531 -150.734375 55.585938 -151.984375 52.296875 -151.984375 C 46.160156 -151.984375 43.09375 -147.335938 43.09375 -138.046875 L 43.09375 -48.234375 C 43.09375 -42.941406 43.734375 -38.9375 45.015625 -36.21875 C 46.296875 -33.507812 48.65625 -32.15625 52.09375 -32.15625 Z M 52.09375 -32.15625 "/></g></g></g><g fill="#8a8788" fill-opacity="1"><g transform="translate(1291.466331, 241.883669)"><g><path d="M 51.875 1.71875 C 35.15625 1.71875 23.078125 -2.425781 15.640625 -10.71875 C 8.210938 -19.007812 4.5 -32.367188 4.5 -50.796875 L 4.5 -68.8125 L 40.734375 -68.8125 L 40.734375 -45.875 C 40.734375 -36.726562 43.660156 -32.15625 49.515625 -32.15625 C 52.804688 -32.15625 55.09375 -33.117188 56.375 -35.046875 C 57.664062 -36.972656 58.3125 -40.222656 58.3125 -44.796875 C 58.3125 -50.796875 57.59375 -55.757812 56.15625 -59.6875 C 54.726562 -63.625 52.90625 -66.914062 50.6875 -69.5625 C 48.476562 -72.207031 44.515625 -76.316406 38.796875 -81.890625 L 22.9375 -97.75 C 10.644531 -109.75 4.5 -123.039062 4.5 -137.625 C 4.5 -153.34375 8.109375 -165.304688 15.328125 -173.515625 C 22.546875 -181.734375 33.082031 -185.84375 46.9375 -185.84375 C 63.519531 -185.84375 75.453125 -181.445312 82.734375 -172.65625 C 90.023438 -163.875 93.671875 -150.125 93.671875 -131.40625 L 56.15625 -131.40625 L 55.953125 -144.046875 C 55.953125 -146.472656 55.269531 -148.398438 53.90625 -149.828125 C 52.550781 -151.265625 50.660156 -151.984375 48.234375 -151.984375 C 45.367188 -151.984375 43.222656 -151.195312 41.796875 -149.625 C 40.367188 -148.050781 39.65625 -145.90625 39.65625 -143.1875 C 39.65625 -137.1875 43.085938 -130.972656 49.953125 -124.546875 L 71.375 -103.96875 C 76.382812 -99.101562 80.53125 -94.488281 83.8125 -90.125 C 87.101562 -85.769531 89.75 -80.628906 91.75 -74.703125 C 93.75 -68.773438 94.75 -61.738281 94.75 -53.59375 C 94.75 -35.4375 91.425781 -21.675781 84.78125 -12.3125 C 78.132812 -2.957031 67.164062 1.71875 51.875 1.71875 Z M 51.875 1.71875 "/></g></g></g></g></g></svg>