<?xml version="1.0" encoding="UTF-8"?>
<svg id="Camada_1" xmlns="http://www.w3.org/2000/svg" version="1.1" viewBox="0 0 595.28 841.89">
  <!-- Generator: Adobe Illustrator 29.6.1, SVG Export Plug-In . SVG Version: 2.1.1 Build 9)  -->
  <path d="M482.57,516.42l-50.52-55.12-51.44,54.22c-29.68.31-59.36.62-89.04.94,36.24-31.84,72.49-63.69,108.73-95.53-8.61-10.69-17.21-21.38-25.82-32.07,11.75-14.93,23.5-29.86,35.25-44.79,9.19,12.25,18.37,24.5,27.56,36.75,17.54-18.46,35.08-36.93,52.62-55.39h62.74l.82,1.6-86.01,95.49,85.19,92.3-.82,1.6h-69.26Z"/>
  <path d="M345.24,325.43h65.52c-49.66,63.68-99.32,127.35-148.99,191.03-48.88-63.68-97.76-127.35-146.64-191.03h63.52l83.89,107.07,82.69-107.07Z"/>
  <path d="M95.34,325.45v143.84h113.85c11.59,15.72,23.17,31.43,34.76,47.15H41.81v-190.99h53.53Z"/>
</svg>