<svg xmlns="http://www.w3.org/2000/svg" xmlns:xlink="http://www.w3.org/1999/xlink" width="1080" zoomAndPan="magnify" viewBox="0 0 810 817.92" height="1080" preserveAspectRatio="xMidYMid meet" version="1.0"><defs><clipPath id="0db28aeb74"><path d="M 298 75.121094 L 512 75.121094 L 512 735 L 298 735 Z M 298 75.121094 " clip-rule="nonzero"/></clipPath></defs><g clip-path="url(#0db28aeb74)"><path fill="#23bf0b" d="M 388.691406 154.578125 C 387.546875 158.492188 386.238281 163.3125 386.550781 169.5625 C 386.808594 174.636719 387.972656 177.390625 389.519531 185.214844 C 390.675781 191.085938 391.273438 195.894531 391.59375 198.90625 C 382.386719 260.753906 381.082031 286.488281 381.082031 297 C 381.082031 298.75 382.25 316.855469 382.25 316.855469 C 380.589844 323.976562 377.03125 335.097656 368.882812 346.519531 C 363.085938 354.648438 356.796875 360.363281 351.890625 364.144531 C 350.414062 363.035156 348.371094 361.300781 346.335938 358.847656 C 341.691406 353.246094 340.042969 347.464844 338.515625 340.8125 C 336.839844 333.507812 335.007812 323.859375 333.789062 312.183594 C 331.839844 311.40625 329.894531 310.625 327.949219 309.84375 C 325.355469 301.53125 322.859375 293.011719 320.480469 284.285156 C 310.320312 247.070312 303.714844 211.5625 299.613281 178.46875 C 299.777344 214.707031 303.085938 237.09375 306.355469 251.222656 C 306.96875 253.875 308.996094 262.355469 311.46875 274.371094 C 314.402344 288.660156 316.765625 302.171875 317.777344 308.945312 C 321.335938 332.808594 320.792969 358.53125 319.195312 379.339844 C 321.910156 386.527344 325.421875 396.261719 329.121094 407.949219 C 331.878906 416.660156 334.648438 425.398438 337.296875 436.5625 C 337.34375 436.765625 337.394531 437.023438 337.445312 437.226562 C 321.144531 413.78125 307.769531 394.855469 298.324219 381.566406 C 324.171875 423.230469 334.644531 441.789062 339.054688 450.671875 C 339.382812 451.328125 340.003906 452.59375 340.910156 454.3125 C 341.960938 460.390625 342.945312 467.109375 343.714844 474.515625 C 344.0625 469.796875 344.371094 465.320312 344.652344 461.050781 C 345.605469 462.671875 346.667969 464.421875 347.84375 466.269531 C 352.582031 473.695312 357.027344 479.351562 359.949219 482.867188 C 359.71875 484.726562 359.492188 486.585938 359.261719 488.453125 C 386.835938 517.0625 393.082031 524.371094 392.65625 524.796875 C 392.601562 524.855469 392.457031 524.761719 392.082031 524.652344 C 389.082031 523.710938 385.949219 525.523438 385.398438 525.792969 C 378.882812 528.976562 337.222656 509.378906 337.222656 509.378906 C 334.34375 505.765625 331.449219 501.679688 328.703125 497.078125 C 318.863281 480.582031 315.070312 464.429688 313.554688 452.578125 C 317.414062 501.832031 321.265625 551.085938 325.125 600.34375 C 330.140625 633.292969 334.417969 668.070312 337.609375 704.554688 C 337.964844 708.644531 338.292969 712.695312 338.613281 716.746094 L 351.011719 696.082031 L 367.804688 734.921875 C 370.1875 731.71875 372.316406 728.777344 374.148438 726.191406 C 392.316406 700.535156 398.992188 685.539062 422.429688 649.5 C 431.597656 635.410156 439.359375 624.199219 444.207031 617.308594 C 445.105469 614.769531 446.808594 610.546875 449.890625 605.953125 C 455.460938 597.625 462.125 593.132812 464.09375 591.746094 C 471.050781 586.855469 484.207031 575.175781 511.574219 544.785156 C 484.542969 566.175781 457.511719 587.5625 430.480469 608.953125 C 424.617188 625.808594 412.363281 652.066406 386.457031 672.226562 C 381.265625 676.257812 376.074219 679.625 371.058594 682.445312 C 364.597656 659.335938 358.132812 636.21875 351.675781 613.109375 L 339.765625 601.488281 C 338.671875 595.183594 327.90625 530.828125 346.746094 523.375 C 349.28125 522.367188 352.871094 522.195312 358.058594 524.523438 C 364.597656 527.613281 371.730469 531.601562 379.035156 536.773438 C 399.847656 551.523438 412.527344 569.195312 419.867188 581.824219 C 422.933594 562.09375 426.003906 542.363281 429.066406 522.632812 L 418.65625 551.035156 C 390.910156 513.914062 370.75 485.402344 357.078125 465.605469 C 354.050781 461.226562 351.683594 457.773438 348.289062 452.867188 C 347.3125 451.453125 346.386719 450.125 345.429688 448.738281 C 345.964844 439.714844 346.355469 432.046875 346.636719 426.054688 C 347.574219 405.835938 347.632812 396.996094 354.226562 389.265625 C 361.949219 380.210938 374.015625 378.09375 381.671875 377.585938 C 403.277344 396.46875 424.878906 415.34375 446.484375 434.230469 C 443.476562 430.339844 439 424.507812 433.636719 417.296875 C 427.691406 409.308594 427.945312 409.425781 425.460938 406.199219 C 414.132812 391.476562 410.160156 390.589844 405.027344 382.253906 C 402.351562 377.929688 398.28125 369.839844 397.433594 359.484375 C 396.316406 345.890625 400.648438 327.027344 414.363281 319.195312 C 417.25 317.550781 419.964844 316.722656 421.957031 316.277344 C 422.53125 312.191406 423.117188 308.109375 423.710938 304.015625 C 429.519531 263.894531 435.960938 224.382812 442.980469 185.476562 C 434.367188 207.359375 426.109375 230.519531 418.457031 254.964844 C 415.992188 262.835938 413.65625 270.621094 411.449219 278.320312 C 409.464844 282.011719 407.714844 283.765625 406.191406 283.578125 C 403.066406 283.203125 400.929688 274.636719 399.769531 257.890625 C 399.578125 248.835938 399.839844 238.769531 400.886719 227.886719 C 402.246094 213.6875 404.648438 201.027344 407.359375 190.15625 C 406.777344 187.621094 406.191406 185.09375 405.609375 182.5625 C 402.882812 171.527344 400.152344 160.503906 397.425781 149.472656 C 403.070312 124.6875 408.714844 99.902344 414.363281 75.121094 C 401.183594 114.277344 391.894531 143.609375 388.691406 154.578125 Z M 388.691406 154.578125 " fill-opacity="1" fill-rule="nonzero"/></g></svg>