<?xml version="1.0" encoding="UTF-8"?>
<svg id="Leovox" xmlns="http://www.w3.org/2000/svg" version="1.1" viewBox="0 0 90.77 127.85">
  <!-- Generator: Adobe Illustrator 30.3.0, SVG Export Plug-In . SVG Version: 2.1.3 Build 182)  -->
  <path d="M38.44,29.54c6.51.27,11.61-5.68,15.6-10.07,4.36-4.81,8.22-10.08,11.5-15.68,1.06-1.8-.71-4.38-2.82-3.67-2.61.88-4.38,2.74-5.92,4.96s-2.97,4.55-4.4,6.85c-2.98,4.81-5.8,9.71-8.47,14.69-5.37,10.03-10.09,20.4-14.18,31.01-2.28,5.91-4.34,11.9-6.2,17.95-.7,2.27,2.57,4.42,4.18,2.43,11.61-14.37,23.08-28.85,34.39-43.46,3.23-4.18,6.45-8.36,9.66-12.56l-4.32-2.52c-5.86,11.94-11.58,23.94-17.16,36.02s-10.77,23.25-15.39,35.19c-2.6,6.73-4.92,13.57-6.75,20.55-.72,2.73,3.11,4.38,4.57,1.93,3.83-6.45,7.06-13.25,9.67-20.29.61-1.65,1.19-3.32,1.73-5,.63-1.98,1.27-4.09.55-6.14-1.04-2.96-4.08-4.24-7.02-4.27s-6.08,1.22-8.71,2.67c-2.8,1.55-5.34,3.63-7.58,5.9-4.76,4.81-8.65,10.63-11.99,16.49-3.96,6.96-7.08,14.42-9.29,22.12-.65,2.27,2.55,4.42,4.18,2.43,5.98-7.29,11.96-14.58,18.01-21.82,5.02-5.99,10.08-11.96,15.48-17.61,4.15-4.33,8.62-8.6,13.39-12.01s9.87-6.43,15.46-7.7c7.41-1.68,14.68,1.38,19.85,6.28,2.33,2.21,5.88-1.32,3.54-3.54-5.14-4.87-11.77-8.19-18.95-8.23s-13.66,3.17-19.44,6.85c-11.75,7.47-21.02,18.4-29.93,28.93-7.07,8.36-14,16.84-20.94,25.3l4.18,2.43c3.4-11.8,9.01-23.32,16.81-32.85,3.4-4.15,7.51-8.2,12.68-10.01,1.13-.39,2.13-.66,3.25-.65.49,0,.71.02,1.18.14.43.11.78.3.89.41.22.21.24.24.28.57.09.68-.23,1.44-.42,2.08-.49,1.61-1.04,3.21-1.61,4.8-2.53,7.02-5.76,13.76-9.56,20.17l4.57,1.93c3.18-12.1,7.81-23.74,12.85-35.18s10.73-23.68,16.31-35.42c3.17-6.67,6.38-13.33,9.64-19.96,1.45-2.95-2.39-5.04-4.32-2.52-11.05,14.44-22.24,28.76-33.59,42.96-3.21,4.02-6.44,8.04-9.68,12.04l4.18,2.43c6.33-20.64,15.14-40.46,26.22-58.99,1.55-2.59,3.14-5.15,4.77-7.68,1.17-1.81,2.48-4.57,4.68-5.3l-2.82-3.67c-2.92,4.99-6.29,9.69-10.13,14.01-1.88,2.11-3.84,4.16-5.93,6.06-1.89,1.7-4.06,3.31-6.71,3.2-3.22-.13-3.21,4.87,0,5h0Z" fill="#1d1d1b"/>
</svg>