<svg xmlns="http://www.w3.org/2000/svg" xmlns:xlink="http://www.w3.org/1999/xlink" width="1080" zoomAndPan="magnify" viewBox="0 0 810 1012.49997" height="1350" preserveAspectRatio="xMidYMid meet" version="1.0"><path fill="#ffffff" d="M 640.503906 489.816406 C 649.976562 473.4375 659.417969 454.953125 668.078125 434.34375 C 689.226562 384.007812 698.867188 337.375 703.21875 300.019531 L 491.089844 300.019531 C 474.40625 282.269531 452.289062 254.742188 434.292969 216.691406 C 414.53125 174.90625 407.597656 137.027344 404.964844 111.683594 C 355.074219 213.957031 305.183594 316.246094 255.277344 418.519531 C 277.007812 418.53125 298.738281 418.546875 320.472656 418.5625 L 393.894531 266.859375 C 420.113281 309.722656 445.78125 352.800781 477.097656 392.234375 C 534.277344 464.242188 612.710938 526.542969 625 624.742188 L 555.085938 624.742188 L 525.464844 684 L 703.21875 684 C 699.746094 656.039062 693.347656 622.328125 681.457031 585.214844 C 669.214844 547.011719 654.328125 515.070312 640.503906 489.847656 Z M 617.664062 399.785156 C 611.882812 416.640625 603.882812 429.253906 597.746094 437.449219 C 587.074219 427.960938 575.984375 417.332031 564.742188 405.523438 C 549.578125 389.589844 536.539062 373.964844 525.355469 359.277344 L 625 359.277344 C 624.707031 369.304688 623.214844 383.589844 617.664062 399.785156 Z M 617.664062 399.785156 " fill-opacity="1" fill-rule="nonzero"/><path fill="#ffffff" d="M 488.722656 580.832031 C 463.625 631.261719 438.523438 681.675781 413.410156 732.105469 C 401.011719 710.972656 390.433594 694.6875 384.234375 685.304688 C 295.035156 550.597656 222.902344 511.242188 185.917969 400.125 C 182.011719 388.390625 179.503906 378.871094 178.320312 374.210938 L 254.953125 374.300781 C 262.566406 354.664062 270.179688 335.007812 277.792969 315.367188 C 219.859375 316.289062 161.910156 317.214844 103.976562 318.136719 C 107.3125 386.207031 137.578125 448.660156 167.398438 508.535156 C 150.40625 534.433594 129.441406 573.328125 117.1875 624.050781 C 110.355469 652.316406 107.757812 677.9375 107.144531 699.332031 L 315.703125 699.332031 C 333.699219 720.941406 354.214844 749.269531 373.023438 784.640625 C 393.386719 822.9375 405.859375 858.417969 413.703125 886.992188 C 458.855469 784.933594 503.996094 682.875 549.148438 580.816406 L 488.707031 580.816406 Z M 175.859375 640.089844 C 177.164062 630.417969 179.65625 618.558594 184.472656 605.59375 C 191.652344 586.277344 201.3125 571.726562 209.046875 561.914062 L 274.226562 640.089844 Z M 175.859375 640.089844 " fill-opacity="1" fill-rule="nonzero"/><path fill="#ffffff" d="M 452.582031 529.710938 C 454.625 527.710938 455.257812 524.113281 452.84375 522.175781 C 446.351562 516.929688 434.496094 526.695312 427.296875 522.542969 C 421.667969 519.300781 419.070312 501.550781 409.8125 508.441406 C 403.519531 513.132812 405.179688 524.480469 393.769531 523.652344 C 388.449219 523.265625 372.4375 515.59375 373.070312 526.359375 C 373.5 533.726562 392.308594 533.648438 393.953125 539.140625 C 395.371094 543.859375 394.339844 565.929688 394.199219 572.542969 C 394.09375 577.742188 389.816406 595.613281 399.828125 595.074219 C 408.089844 594.628906 405.105469 580.800781 413.65625 580.355469 C 420.515625 580.003906 420.851562 592.734375 424.574219 594.550781 C 439.078125 597.734375 433.0625 576.527344 432.925781 568.359375 C 432.816406 562.207031 431.496094 539.539062 435.695312 536.417969 C 439.046875 533.925781 449.273438 533.003906 452.613281 529.742188 Z M 452.582031 529.710938 " fill-opacity="1" fill-rule="nonzero"/><path fill="#ffffff" d="M 424.730469 413.902344 C 421.285156 408.566406 421.007812 399.03125 412.472656 399.832031 C 406.6875 400.371094 405.335938 409.597656 402.351562 413.902344 C 395.539062 423.699219 375.160156 423.667969 373.332031 428.945312 C 368.484375 442.894531 392.601562 433.003906 394.140625 434.542969 L 394.140625 484.371094 C 394.140625 487.570312 403.875 488.078125 406.394531 484.574219 C 409.332031 480.496094 405.289062 465.671875 413.515625 465.023438 C 422.390625 464.316406 416.46875 487.003906 426.296875 487.816406 C 436.015625 488.632812 434.1875 469.546875 433.988281 463.394531 C 433.800781 457.550781 430.757812 441.21875 432.601562 436.867188 C 434.308594 432.835938 441.691406 436.417969 445.046875 436.636719 C 453.257812 437.140625 458.457031 430.390625 450.472656 425.929688 C 442.339844 421.378906 430.835938 423.378906 424.730469 413.917969 Z M 424.730469 413.902344 " fill-opacity="1" fill-rule="nonzero"/><path fill="#ffffff" d="M 355.105469 446.417969 C 349.585938 430.914062 339.417969 449.953125 333.574219 451.152344 C 329.484375 451.984375 328.652344 449.460938 325.453125 449.136719 C 316.871094 448.277344 316.304688 454.691406 315.613281 461.425781 C 313.613281 480.835938 314.027344 501.597656 313.425781 521.128906 C 313.074219 532.386719 305.832031 564.285156 326.363281 546.859375 C 329.574219 549.917969 332.375 553.101562 337.390625 551.902344 L 338.558594 522.667969 C 369.222656 523.484375 341.28125 506.351562 337.097656 497.398438 C 334.898438 492.691406 334.789062 480.3125 335.511719 475.039062 C 337.003906 463.980469 350.015625 455.890625 355.136719 446.429688 Z M 355.105469 446.417969 " fill-opacity="1" fill-rule="nonzero"/><path fill="#ffffff" d="M 490.566406 551.582031 C 494.429688 552.765625 497.980469 549.105469 500.75 546.84375 C 504.71875 548.691406 506.703125 553.320312 511.992188 551.902344 C 517.3125 550.089844 513.761719 529.988281 513.667969 525.3125 C 513.285156 504.765625 513.730469 482.742188 511.59375 462.347656 C 511.128906 457.980469 510.898438 452.566406 506.746094 450.414062 C 501.210938 447.539062 498.179688 452.015625 493.503906 451.167969 C 487.460938 450.0625 480.800781 435.773438 474.375 445.0625 C 471.882812 450.597656 481.09375 456.289062 484.324219 460.273438 C 488.367188 465.257812 491.015625 469.363281 491.691406 475.992188 C 492.089844 480.050781 492.304688 495.277344 490.707031 498.058594 C 486.078125 506.121094 457.65625 523.144531 488.554688 522.652344 C 489.078125 527.664062 487.109375 548.996094 490.582031 551.597656 Z M 490.566406 551.582031 " fill-opacity="1" fill-rule="nonzero"/></svg>