<svg xmlns="http://www.w3.org/2000/svg" xmlns:xlink="http://www.w3.org/1999/xlink" width="1080" zoomAndPan="magnify" viewBox="0 0 810 1012.49997" height="1350" preserveAspectRatio="xMidYMid meet" version="1.0"><defs><g/><clipPath id="690a87117d"><path d="M 1 106 L 741 106 L 741 223.347656 L 1 223.347656 Z M 1 106 " clip-rule="nonzero"/></clipPath><clipPath id="815a677972"><rect x="0" width="742" y="0" height="224"/></clipPath></defs><g transform="matrix(1, 0, 0, 1, 37, 367)"><g clip-path="url(#815a677972)"><g clip-path="url(#690a87117d)"><path fill="#ffffff" d="M 162.042969 108.191406 C 140.496094 111.863281 128.773438 120.019531 125.070312 133.925781 C 122.238281 144.554688 124.359375 153.667969 131.257812 160.550781 C 139.339844 168.609375 150.761719 171.800781 178.023438 173.613281 C 187.191406 174.21875 194.171875 175.132812 196.671875 176.054688 C 200.488281 177.457031 200.667969 177.679688 200.667969 181.046875 C 200.667969 184.269531 200.363281 184.722656 197.117188 186.347656 C 194.03125 187.890625 191.816406 188.121094 180.246094 188.101562 C 163.132812 188.074219 151.167969 185.289062 135.941406 177.789062 C 133.058594 176.371094 130.59375 175.320312 130.457031 175.457031 C 130.324219 175.589844 128.464844 184.398438 126.328125 195.027344 L 122.449219 214.351562 L 128.257812 216.015625 C 146.242188 221.164062 155.410156 222.425781 178.46875 222.9375 C 200.386719 223.425781 209.238281 222.507812 219.757812 218.652344 C 230.09375 214.867188 237.628906 208.507812 241.207031 200.554688 C 244.027344 194.289062 244.082031 180.933594 241.308594 175.632812 C 238.828125 170.882812 233.078125 165.777344 227.375 163.253906 C 220.621094 160.265625 206.683594 157.707031 193.5625 157.042969 C 172.046875 155.957031 166.480469 154.414062 166.480469 149.542969 C 166.480469 139.0625 196.421875 138.835938 226.554688 149.09375 C 231.515625 150.78125 235.851562 152.160156 236.191406 152.160156 C 236.53125 152.160156 236.574219 148.265625 236.289062 143.503906 C 236.003906 138.742188 235.515625 130.164062 235.207031 124.445312 L 234.644531 114.042969 L 230.085938 112.761719 C 211.367188 107.488281 178.945312 105.3125 162.042969 108.191406 M 270.898438 109.449219 L 250.5625 109.984375 L 250.921875 122.859375 C 251.382812 139.394531 251.386719 191.292969 250.925781 208.546875 L 250.570312 221.867188 L 296.566406 221.867188 L 296.125 210.765625 C 295.882812 204.660156 295.679688 195.875 295.679688 191.246094 C 295.679688 183.933594 295.882812 182.785156 297.234375 182.523438 C 298.472656 182.28125 298.789062 182.84375 298.789062 185.296875 C 298.789062 186.988281 299.421875 191.707031 300.195312 195.785156 C 303.523438 213.335938 311.027344 220.625 327.476562 222.289062 C 337.773438 223.332031 361.265625 221.398438 363.324219 219.339844 C 363.980469 218.683594 365.820312 179.824219 365.222656 179.230469 C 364.953125 178.960938 362.78125 179.183594 360.398438 179.730469 C 347.199219 182.742188 324.03125 184.0625 315.710938 182.28125 C 311.355469 181.34375 307.210938 177.941406 307.902344 175.867188 C 308.066406 175.382812 313.972656 174.902344 321.46875 174.765625 C 344.980469 174.324219 357.550781 168.671875 363.394531 155.90625 C 365.371094 151.589844 365.546875 150.257812 365.210938 142.097656 C 364.902344 134.542969 364.464844 132.347656 362.523438 128.628906 C 357.636719 119.257812 348.472656 113.621094 333.863281 110.996094 C 324.339844 109.285156 299.929688 108.683594 270.898438 109.449219 M 391.191406 134.167969 C 388.625 147.238281 385.804688 161.128906 384.921875 165.035156 C 383.722656 170.363281 382.53125 175.6875 381.355469 181.019531 C 380.277344 185.902344 377.640625 197.011719 375.5 205.707031 C 373.355469 214.402344 371.601562 221.695312 371.601562 221.914062 C 371.601562 222.132812 381.351562 222.308594 393.265625 222.308594 L 414.929688 222.308594 L 416.308594 215.871094 C 417.066406 212.332031 418.203125 206.636719 418.839844 203.21875 L 419.992188 197.003906 L 444.851562 197.003906 L 446.9375 208.546875 C 448.085938 214.894531 449.171875 220.589844 449.355469 221.199219 C 449.605469 222.046875 454.832031 222.308594 471.570312 222.308594 L 493.457031 222.308594 L 492.894531 220.3125 C 489.007812 206.542969 478.378906 159.238281 472.589844 129.960938 L 468.816406 110.871094 L 432.335938 110.640625 L 395.859375 110.40625 Z M 1.320312 125.078125 L 1.320312 138.839844 L 35.089844 138.839844 L 34.855469 165.703125 L 34.617188 192.5625 L 1.320312 193.046875 L 1.320312 220.535156 L 112.316406 220.535156 L 112.316406 193.007812 L 78.824219 193.007812 L 78.253906 187.550781 C 77.519531 180.496094 77.515625 151.363281 78.253906 144.320312 L 78.820312 138.878906 L 95.347656 138.640625 L 111.871094 138.398438 L 112.117188 124.855469 L 112.363281 111.316406 L 1.320312 111.316406 Z M 502.574219 166.8125 L 502.574219 222.308594 L 612.925781 222.308594 L 613.433594 218.535156 C 613.710938 216.460938 614.207031 209.027344 614.539062 202.023438 L 615.136719 189.28125 L 608.582031 189.847656 C 599.023438 190.671875 548.113281 192.105469 547.257812 191.578125 C 546.855469 191.328125 546.527344 187.726562 546.527344 183.570312 L 546.527344 176.011719 L 561.84375 176.53125 C 570.269531 176.820312 580.460938 177.28125 584.488281 177.5625 L 591.8125 178.070312 L 591.8125 166.351562 C 591.8125 156.320312 591.625 154.707031 590.488281 155.144531 C 589.757812 155.425781 579.570312 155.929688 567.84375 156.265625 L 546.527344 156.878906 L 546.527344 141.265625 L 572.058594 141.921875 C 586.097656 142.28125 601.316406 142.84375 605.871094 143.171875 C 610.429688 143.496094 614.246094 143.558594 614.347656 143.300781 C 614.453125 143.046875 614.164062 135.746094 613.703125 127.074219 L 612.863281 111.316406 L 502.574219 111.316406 Z M 627.984375 123.523438 C 628.359375 129.75 628.664062 149.628906 628.664062 167.699219 C 628.664062 185.769531 628.359375 205.648438 627.984375 211.875 L 627.304688 223.199219 L 740.992188 223.199219 L 740.992188 178.601562 L 729.671875 179.128906 C 723.441406 179.417969 711.554688 179.894531 703.253906 180.1875 C 686.292969 180.78125 682.589844 181.828125 679.097656 187 C 676.855469 190.328125 674.746094 197.789062 673.878906 205.46875 C 673.417969 209.523438 672.9375 210.765625 671.832031 210.765625 C 670.5625 210.765625 670.464844 209.832031 671.011719 202.996094 C 671.351562 198.722656 671.855469 179.84375 672.128906 161.039062 C 672.402344 142.238281 672.828125 123.558594 673.070312 119.527344 L 673.515625 112.203125 L 627.304688 112.203125 Z M 430.765625 129.738281 C 430.507812 131.082031 430.046875 134.777344 429.738281 137.953125 C 429.433594 141.128906 428.011719 150.777344 426.585938 159.402344 C 425.15625 168.023438 423.988281 175.316406 423.988281 175.605469 C 423.988281 175.898438 427.785156 176.136719 432.425781 176.136719 C 437.066406 176.136719 440.859375 175.921875 440.859375 175.664062 C 440.859375 175.40625 439.867188 169.816406 438.652344 163.242188 C 436.726562 152.800781 433.757812 131.703125 433.757812 128.433594 C 433.757812 126.226562 431.226562 127.332031 430.765625 129.738281 M 296.789062 139.453125 C 295.433594 139.808594 295.234375 141.046875 295.234375 149.117188 L 295.234375 158.375 L 304.609375 158.375 C 320.21875 158.375 325.425781 155.933594 325.425781 148.609375 C 325.425781 144.351562 322.761719 140.945312 318.503906 139.765625 C 315.285156 138.871094 299.863281 138.648438 296.789062 139.453125 " fill-opacity="1" fill-rule="evenodd"/></g><g fill="#ffffff" fill-opacity="1"><g transform="translate(199.333207, 88.877506)"><g><path d="M 52.828125 -54.21875 C 51.515625 -54.9375 49.921875 -55.625 48.046875 -56.28125 C 46.171875 -56.945312 43.6875 -57.28125 40.59375 -57.28125 C 36.570312 -57.28125 33.144531 -56.503906 30.3125 -54.953125 C 27.476562 -53.410156 25.207031 -51.351562 23.5 -48.78125 C 21.789062 -46.21875 20.640625 -43.40625 20.046875 -40.34375 C 19.453125 -37.28125 19.453125 -34.21875 20.046875 -31.15625 C 20.640625 -28.09375 21.789062 -25.273438 23.5 -22.703125 C 25.207031 -20.140625 27.476562 -18.082031 30.3125 -16.53125 C 33.144531 -14.988281 36.570312 -14.21875 40.59375 -14.21875 C 43.6875 -14.21875 46.398438 -14.578125 48.734375 -15.296875 C 51.066406 -16.023438 52.894531 -16.71875 54.21875 -17.375 L 56.09375 -2.765625 C 53.914062 -1.910156 51.410156 -1.203125 48.578125 -0.640625 C 45.753906 -0.078125 43.09375 0.203125 40.59375 0.203125 C 34.59375 0.203125 29.351562 -0.800781 24.875 -2.8125 C 20.40625 -4.820312 16.671875 -7.535156 13.671875 -10.953125 C 10.679688 -14.378906 8.441406 -18.210938 6.953125 -22.453125 C 5.472656 -26.703125 4.734375 -31.097656 4.734375 -35.640625 C 4.734375 -40.191406 5.472656 -44.585938 6.953125 -48.828125 C 8.441406 -53.078125 10.679688 -56.910156 13.671875 -60.328125 C 16.671875 -63.753906 20.40625 -66.472656 24.875 -68.484375 C 29.351562 -70.492188 34.59375 -71.5 40.59375 -71.5 C 45.71875 -71.5 50.359375 -70.578125 54.515625 -68.734375 Z M 52.828125 -54.21875 "/></g></g></g><g fill="#ffffff" fill-opacity="1"><g transform="translate(258.775924, 88.877506)"><g><path d="M 40.78125 -86.796875 L 31.296875 -75.4375 L 18.5625 -75.4375 L 23.40625 -86.796875 Z M 44.4375 0 L 7.90625 0 L 7.90625 -70.609375 L 43.25 -70.609375 L 43.25 -56.484375 L 22.015625 -56.484375 L 22.015625 -42.359375 L 40.59375 -42.359375 L 40.59375 -28.25 L 22.015625 -28.25 L 22.015625 -14.125 L 44.4375 -14.125 Z M 44.4375 0 "/></g></g></g><g fill="#ffffff" fill-opacity="1"><g transform="translate(308.541922, 88.877506)"><g><path d="M 7.90625 -70.609375 L 22.015625 -70.609375 L 22.015625 -14.125 L 44.4375 -14.125 L 44.4375 0 L 7.90625 0 Z M 7.90625 -70.609375 "/></g></g></g><g fill="#ffffff" fill-opacity="1"><g transform="translate(357.221744, 88.877506)"><g><path d="M 58.5625 -24.59375 C 58.5625 -19.78125 57.640625 -15.660156 55.796875 -12.234375 C 53.953125 -8.816406 51.515625 -6.085938 48.484375 -4.046875 C 45.453125 -2.003906 42.125 -0.640625 38.5 0.046875 C 34.882812 0.742188 31.25 0.742188 27.59375 0.046875 C 23.945312 -0.640625 20.609375 -2.003906 17.578125 -4.046875 C 14.546875 -6.085938 12.109375 -8.816406 10.265625 -12.234375 C 8.421875 -15.660156 7.5 -19.78125 7.5 -24.59375 L 7.5 -70.609375 L 21.625 -70.609375 L 21.625 -24.6875 C 21.625 -21.726562 22.394531 -19.359375 23.9375 -17.578125 C 25.488281 -15.796875 27.398438 -14.609375 29.671875 -14.015625 C 31.941406 -13.429688 34.210938 -13.429688 36.484375 -14.015625 C 38.753906 -14.609375 40.660156 -15.796875 42.203125 -17.578125 C 43.753906 -19.359375 44.53125 -21.726562 44.53125 -24.6875 L 44.53125 -70.609375 L 58.5625 -70.609375 Z M 58.5625 -24.59375 "/></g></g></g><g fill="#ffffff" fill-opacity="1"><g transform="translate(423.477648, 88.877506)"><g><path d="M 7.90625 -70.609375 L 22.015625 -70.609375 L 22.015625 -14.125 L 44.4375 -14.125 L 44.4375 0 L 7.90625 0 Z M 7.90625 -70.609375 "/></g></g></g><g fill="#ffffff" fill-opacity="1"><g transform="translate(472.15747, 88.877506)"><g><path d="M 1.578125 0 L 31.296875 -73.171875 L 32.78125 -73.171875 L 62.515625 0 L 46.609375 0 L 43.75 -7.609375 L 20.34375 -7.609375 L 17.578125 0 Z M 25.484375 -20.84375 L 38.515625 -20.84375 L 32.09375 -39.203125 Z M 25.484375 -20.84375 "/></g></g></g></g></g></svg>