<svg xmlns="http://www.w3.org/2000/svg" xmlns:xlink="http://www.w3.org/1999/xlink" width="1080" zoomAndPan="magnify" viewBox="0 0 810 1012.49997" height="1350" preserveAspectRatio="xMidYMid meet" version="1.0"><defs><g/><clipPath id="bc92871f2e"><path d="M 1 48 L 105 48 L 105 182.351562 L 1 182.351562 Z M 1 48 " clip-rule="nonzero"/></clipPath><clipPath id="1d23a5bb5e"><path d="M 166 84 L 735.898438 84 L 735.898438 175 L 166 175 Z M 166 84 " clip-rule="nonzero"/></clipPath><clipPath id="dac1857e6d"><rect x="0" width="736" y="0" height="183"/></clipPath></defs><g transform="matrix(1, 0, 0, 1, 36, 402)"><g clip-path="url(#dac1857e6d)"><path fill="#38b6ff" d="M 126.292969 89.390625 C 128.503906 85.566406 130.707031 81.246094 132.730469 76.4375 C 137.667969 64.679688 139.921875 53.792969 140.9375 45.070312 L 91.402344 45.070312 C 87.503906 40.925781 82.339844 34.496094 78.140625 25.613281 C 73.523438 15.855469 71.90625 7.007812 71.289062 1.089844 C 59.640625 24.972656 47.988281 48.859375 36.335938 72.738281 C 41.410156 72.742188 46.484375 72.746094 51.558594 72.75 L 68.703125 37.328125 C 74.828125 47.335938 80.820312 57.394531 88.132812 66.601562 C 101.484375 83.417969 119.800781 97.964844 122.671875 120.894531 L 106.34375 120.894531 L 99.429688 134.734375 L 140.9375 134.734375 C 140.125 128.203125 138.632812 120.332031 135.855469 111.667969 C 132.996094 102.746094 129.519531 95.285156 126.292969 89.398438 Z M 120.957031 68.367188 C 119.609375 72.300781 117.742188 75.246094 116.308594 77.160156 C 113.816406 74.945312 111.226562 72.464844 108.601562 69.707031 C 105.058594 65.984375 102.015625 62.335938 99.402344 58.90625 L 122.671875 58.90625 C 122.601562 61.246094 122.253906 64.585938 120.957031 68.367188 Z M 120.957031 68.367188 " fill-opacity="1" fill-rule="nonzero"/><g clip-path="url(#bc92871f2e)"><path fill="#38b6ff" d="M 90.847656 110.644531 C 84.988281 122.417969 79.125 134.191406 73.261719 145.96875 C 70.367188 141.03125 67.898438 137.230469 66.449219 135.039062 C 45.621094 103.582031 28.777344 94.390625 20.140625 68.445312 C 19.226562 65.703125 18.640625 63.480469 18.367188 62.394531 L 36.261719 62.414062 C 38.039062 57.828125 39.816406 53.238281 41.59375 48.652344 C 28.066406 48.867188 14.535156 49.085938 1.003906 49.300781 C 1.785156 65.195312 8.851562 79.777344 15.816406 93.761719 C 11.847656 99.808594 6.953125 108.890625 4.089844 120.734375 C 2.496094 127.335938 1.886719 133.320312 1.746094 138.3125 L 50.445312 138.3125 C 54.648438 143.359375 59.4375 149.976562 63.832031 158.234375 C 68.585938 167.175781 71.5 175.460938 73.332031 182.136719 C 83.875 158.304688 94.414062 134.472656 104.957031 110.640625 L 90.84375 110.640625 Z M 17.789062 124.480469 C 18.097656 122.222656 18.679688 119.453125 19.800781 116.425781 C 21.480469 111.914062 23.734375 108.515625 25.539062 106.226562 L 40.761719 124.480469 Z M 17.789062 124.480469 " fill-opacity="1" fill-rule="nonzero"/></g><path fill="#38b6ff" d="M 82.410156 98.707031 C 82.886719 98.238281 83.035156 97.398438 82.46875 96.945312 C 80.953125 95.722656 78.1875 98 76.503906 97.03125 C 75.191406 96.273438 74.582031 92.128906 72.421875 93.738281 C 70.953125 94.832031 71.339844 97.484375 68.675781 97.289062 C 67.433594 97.199219 63.695312 95.410156 63.84375 97.921875 C 63.941406 99.644531 68.335938 99.625 68.71875 100.90625 C 69.050781 102.007812 68.808594 107.164062 68.777344 108.707031 C 68.75 109.921875 67.753906 114.09375 70.089844 113.96875 C 72.019531 113.863281 71.324219 110.636719 73.320312 110.53125 C 74.921875 110.449219 75 113.421875 75.871094 113.847656 C 79.257812 114.589844 77.851562 109.636719 77.820312 107.730469 C 77.792969 106.292969 77.484375 101 78.464844 100.269531 C 79.25 99.6875 81.636719 99.472656 82.417969 98.710938 Z M 82.410156 98.707031 " fill-opacity="1" fill-rule="nonzero"/><path fill="#38b6ff" d="M 75.90625 71.664062 C 75.101562 70.417969 75.035156 68.191406 73.042969 68.375 C 71.691406 68.503906 71.375 70.65625 70.679688 71.664062 C 69.089844 73.949219 64.332031 73.941406 63.902344 75.175781 C 62.773438 78.433594 68.402344 76.125 68.761719 76.480469 L 68.761719 88.117188 C 68.761719 88.863281 71.035156 88.984375 71.625 88.164062 C 72.308594 87.214844 71.367188 83.75 73.289062 83.601562 C 75.359375 83.433594 73.976562 88.730469 76.273438 88.921875 C 78.542969 89.113281 78.113281 84.65625 78.066406 83.21875 C 78.023438 81.855469 77.3125 78.039062 77.742188 77.023438 C 78.144531 76.082031 79.867188 76.921875 80.648438 76.972656 C 82.566406 77.089844 83.78125 75.511719 81.917969 74.472656 C 80.015625 73.410156 77.332031 73.875 75.90625 71.667969 Z M 75.90625 71.664062 " fill-opacity="1" fill-rule="nonzero"/><path fill="#38b6ff" d="M 59.648438 79.253906 C 58.359375 75.636719 55.984375 80.082031 54.621094 80.359375 C 53.664062 80.554688 53.46875 79.964844 52.722656 79.890625 C 50.71875 79.6875 50.585938 81.1875 50.425781 82.761719 C 49.957031 87.292969 50.054688 92.140625 49.914062 96.703125 C 49.832031 99.332031 48.140625 106.777344 52.933594 102.710938 C 53.6875 103.425781 54.339844 104.167969 55.511719 103.886719 L 55.78125 97.0625 C 62.945312 97.25 56.417969 93.25 55.441406 91.160156 C 54.929688 90.0625 54.902344 87.171875 55.070312 85.9375 C 55.421875 83.355469 58.457031 81.46875 59.65625 79.257812 Z M 59.648438 79.253906 " fill-opacity="1" fill-rule="nonzero"/><path fill="#38b6ff" d="M 91.28125 103.8125 C 92.179688 104.089844 93.011719 103.234375 93.65625 102.707031 C 94.582031 103.136719 95.046875 104.21875 96.28125 103.886719 C 97.523438 103.464844 96.695312 98.769531 96.671875 97.679688 C 96.585938 92.878906 96.6875 87.738281 96.1875 82.976562 C 96.082031 81.957031 96.027344 80.691406 95.058594 80.1875 C 93.765625 79.515625 93.058594 80.5625 91.964844 80.363281 C 90.554688 80.105469 89 76.769531 87.496094 78.9375 C 86.917969 80.230469 89.066406 81.558594 89.820312 82.492188 C 90.765625 83.652344 91.382812 84.613281 91.542969 86.160156 C 91.636719 87.109375 91.683594 90.664062 91.3125 91.316406 C 90.230469 93.195312 83.59375 97.171875 90.808594 97.058594 C 90.929688 98.226562 90.472656 103.207031 91.285156 103.816406 Z M 91.28125 103.8125 " fill-opacity="1" fill-rule="nonzero"/><g clip-path="url(#1d23a5bb5e)"><path fill="#38b6ff" d="M 290.039062 85.894531 C 273.449219 88.722656 264.421875 95.003906 261.570312 105.710938 C 259.390625 113.898438 261.019531 120.914062 266.335938 126.214844 C 272.558594 132.421875 281.355469 134.878906 302.347656 136.273438 C 309.410156 136.742188 314.78125 137.445312 316.707031 138.152344 C 319.648438 139.234375 319.785156 139.40625 319.785156 142 C 319.785156 144.480469 319.550781 144.828125 317.050781 146.082031 C 314.675781 147.269531 312.96875 147.445312 304.058594 147.429688 C 290.882812 147.410156 281.667969 145.265625 269.941406 139.488281 C 267.722656 138.398438 265.824219 137.589844 265.71875 137.691406 C 265.613281 137.796875 264.183594 144.578125 262.539062 152.765625 L 259.550781 167.644531 L 264.027344 168.925781 C 277.875 172.890625 284.933594 173.863281 302.691406 174.257812 C 319.570312 174.632812 326.386719 173.925781 334.488281 170.957031 C 342.445312 168.042969 348.25 163.148438 351.003906 157.019531 C 353.175781 152.195312 353.21875 141.910156 351.082031 137.828125 C 349.171875 134.171875 344.746094 130.238281 340.351562 128.296875 C 335.152344 125.996094 324.417969 124.023438 314.316406 123.515625 C 297.746094 122.679688 293.460938 121.492188 293.460938 117.738281 C 293.460938 109.667969 316.515625 109.496094 339.722656 117.390625 C 343.542969 118.691406 346.878906 119.753906 347.140625 119.753906 C 347.402344 119.753906 347.4375 116.753906 347.21875 113.085938 C 346.996094 109.421875 346.621094 102.816406 346.382812 98.410156 L 345.953125 90.402344 L 342.441406 89.414062 C 328.023438 85.351562 303.058594 83.675781 290.039062 85.894531 M 373.871094 86.863281 L 358.207031 87.273438 L 358.484375 97.1875 C 358.839844 109.921875 358.84375 149.890625 358.488281 163.175781 L 358.214844 173.433594 L 393.636719 173.433594 L 393.296875 164.886719 C 393.109375 160.183594 392.953125 153.417969 392.953125 149.851562 C 392.953125 144.21875 393.109375 143.335938 394.148438 143.136719 C 395.101562 142.949219 395.34375 143.382812 395.34375 145.269531 C 395.34375 146.574219 395.832031 150.207031 396.429688 153.347656 C 398.992188 166.863281 404.769531 172.476562 417.441406 173.757812 C 425.367188 174.5625 443.457031 173.070312 445.042969 171.484375 C 445.546875 170.980469 446.964844 141.058594 446.507812 140.601562 C 446.296875 140.390625 444.625 140.566406 442.789062 140.984375 C 432.625 143.304688 414.785156 144.324219 408.378906 142.949219 C 405.023438 142.226562 401.832031 139.609375 402.367188 138.011719 C 402.492188 137.636719 407.039062 137.269531 412.8125 137.160156 C 430.917969 136.824219 440.597656 132.46875 445.097656 122.636719 C 446.617188 119.316406 446.753906 118.289062 446.496094 112.007812 C 446.257812 106.1875 445.921875 104.496094 444.429688 101.632812 C 440.664062 94.417969 433.609375 90.074219 422.355469 88.054688 C 415.023438 86.734375 396.222656 86.273438 373.871094 86.863281 M 466.503906 105.898438 C 464.527344 115.964844 462.355469 126.660156 461.675781 129.667969 C 460.75 133.769531 459.835938 137.871094 458.929688 141.976562 C 458.101562 145.738281 456.070312 154.292969 454.417969 160.988281 C 452.769531 167.683594 451.417969 173.300781 451.417969 173.46875 C 451.417969 173.636719 458.925781 173.773438 468.101562 173.773438 L 484.785156 173.773438 L 485.847656 168.816406 C 486.429688 166.089844 487.304688 161.707031 487.792969 159.074219 L 488.683594 154.285156 L 507.828125 154.285156 L 509.433594 163.175781 C 510.316406 168.066406 511.152344 172.449219 511.292969 172.917969 C 511.488281 173.574219 515.511719 173.773438 528.402344 173.773438 L 545.257812 173.773438 L 544.824219 172.234375 C 541.832031 161.632812 533.644531 125.203125 529.1875 102.660156 L 526.28125 87.957031 L 498.1875 87.777344 L 470.097656 87.601562 Z M 166.273438 98.898438 L 166.273438 109.496094 L 192.277344 109.496094 L 192.097656 130.183594 L 191.914062 150.867188 L 179.09375 151.054688 L 166.273438 151.238281 L 166.273438 172.40625 L 251.746094 172.40625 L 251.746094 151.207031 L 225.957031 151.207031 L 225.519531 147.003906 C 224.949219 141.574219 224.949219 119.140625 225.515625 113.714844 L 225.953125 109.527344 L 238.679688 109.339844 L 251.40625 109.15625 L 251.59375 98.726562 L 251.78125 88.300781 L 166.273438 88.300781 Z M 552.277344 131.035156 L 552.277344 173.773438 L 637.253906 173.773438 L 637.648438 170.867188 C 637.863281 169.269531 638.246094 163.546875 638.5 158.152344 L 638.960938 148.339844 L 633.910156 148.773438 C 626.550781 149.410156 587.347656 150.515625 586.6875 150.109375 C 586.378906 149.917969 586.125 147.140625 586.125 143.941406 L 586.125 138.121094 L 597.921875 138.523438 C 604.410156 138.742188 612.253906 139.101562 615.359375 139.316406 L 621 139.707031 L 621 130.683594 C 621 122.957031 620.851562 121.714844 619.976562 122.050781 C 619.417969 122.265625 611.570312 122.65625 602.542969 122.914062 L 586.125 123.386719 L 586.125 111.367188 L 605.785156 111.871094 C 616.597656 112.148438 628.316406 112.578125 631.824219 112.832031 C 635.335938 113.082031 638.273438 113.128906 638.351562 112.933594 C 638.433594 112.734375 638.210938 107.113281 637.855469 100.4375 L 637.207031 88.300781 L 552.277344 88.300781 Z M 648.855469 97.703125 C 649.140625 102.496094 649.378906 117.804688 649.378906 131.71875 C 649.378906 145.636719 649.140625 160.945312 648.855469 165.738281 L 648.328125 174.457031 L 735.878906 174.457031 L 735.878906 140.117188 L 727.160156 140.523438 C 722.363281 140.746094 713.210938 141.113281 706.816406 141.335938 C 693.753906 141.792969 690.902344 142.597656 688.214844 146.582031 C 686.488281 149.144531 684.863281 154.890625 684.195312 160.804688 C 683.839844 163.925781 683.472656 164.886719 682.621094 164.886719 C 681.640625 164.886719 681.566406 164.167969 681.988281 158.902344 C 682.25 155.609375 682.636719 141.070312 682.847656 126.59375 C 683.058594 112.113281 683.386719 97.726562 683.574219 94.625 L 683.917969 88.984375 L 648.328125 88.984375 Z M 496.980469 102.488281 C 496.78125 103.523438 496.425781 106.367188 496.191406 108.8125 C 495.953125 111.257812 494.859375 118.691406 493.761719 125.328125 C 492.660156 131.96875 491.761719 137.585938 491.761719 137.808594 C 491.761719 138.035156 494.683594 138.214844 498.257812 138.214844 C 501.832031 138.214844 504.753906 138.054688 504.753906 137.855469 C 504.753906 137.65625 503.988281 133.347656 503.054688 128.289062 C 501.570312 120.246094 499.285156 104 499.285156 101.484375 C 499.285156 99.78125 497.335938 100.632812 496.980469 102.488281 M 393.808594 109.96875 C 392.761719 110.242188 392.609375 111.195312 392.609375 117.410156 L 392.609375 124.539062 L 399.828125 124.539062 C 411.851562 124.539062 415.859375 122.660156 415.859375 117.019531 C 415.859375 113.742188 413.808594 111.117188 410.53125 110.207031 C 408.050781 109.519531 396.175781 109.347656 393.808594 109.96875 " fill-opacity="1" fill-rule="evenodd"/></g><g fill="#38b6ff" fill-opacity="1"><g transform="translate(166.367981, 75.980337)"><g><path d="M 40.6875 -41.75 C 39.675781 -42.3125 38.445312 -42.84375 37 -43.34375 C 35.550781 -43.851562 33.632812 -44.109375 31.25 -44.109375 C 28.15625 -44.109375 25.519531 -43.507812 23.34375 -42.3125 C 21.164062 -41.125 19.414062 -39.539062 18.09375 -37.5625 C 16.78125 -35.582031 15.894531 -33.414062 15.4375 -31.0625 C 14.976562 -28.707031 14.976562 -26.347656 15.4375 -23.984375 C 15.894531 -21.628906 16.78125 -19.460938 18.09375 -17.484375 C 19.414062 -15.515625 21.164062 -13.929688 23.34375 -12.734375 C 25.519531 -11.546875 28.15625 -10.953125 31.25 -10.953125 C 33.632812 -10.953125 35.726562 -11.226562 37.53125 -11.78125 C 39.332031 -12.34375 40.738281 -12.878906 41.75 -13.390625 L 43.1875 -2.125 C 41.519531 -1.46875 39.59375 -0.921875 37.40625 -0.484375 C 35.226562 -0.0546875 33.175781 0.15625 31.25 0.15625 C 26.632812 0.15625 22.601562 -0.613281 19.15625 -2.15625 C 15.71875 -3.707031 12.84375 -5.800781 10.53125 -8.4375 C 8.226562 -11.070312 6.503906 -14.023438 5.359375 -17.296875 C 4.222656 -20.566406 3.65625 -23.953125 3.65625 -27.453125 C 3.65625 -30.953125 4.222656 -34.335938 5.359375 -37.609375 C 6.503906 -40.878906 8.226562 -43.832031 10.53125 -46.46875 C 12.84375 -49.101562 15.71875 -51.191406 19.15625 -52.734375 C 22.601562 -54.285156 26.632812 -55.0625 31.25 -55.0625 C 35.207031 -55.0625 38.785156 -54.347656 41.984375 -52.921875 Z M 40.6875 -41.75 "/></g></g></g><g fill="#38b6ff" fill-opacity="1"><g transform="translate(212.143585, 75.980337)"><g><path d="M 31.40625 -66.84375 L 24.109375 -58.09375 L 14.296875 -58.09375 L 18.015625 -66.84375 Z M 34.21875 0 L 6.078125 0 L 6.078125 -54.375 L 33.3125 -54.375 L 33.3125 -43.5 L 16.953125 -43.5 L 16.953125 -32.625 L 31.25 -32.625 L 31.25 -21.75 L 16.953125 -21.75 L 16.953125 -10.875 L 34.21875 -10.875 Z M 34.21875 0 "/></g></g></g><g fill="#38b6ff" fill-opacity="1"><g transform="translate(250.467348, 75.980337)"><g><path d="M 6.078125 -54.375 L 16.953125 -54.375 L 16.953125 -10.875 L 34.21875 -10.875 L 34.21875 0 L 6.078125 0 Z M 6.078125 -54.375 "/></g></g></g><g fill="#38b6ff" fill-opacity="1"><g transform="translate(287.95467, 75.980337)"><g><path d="M 45.09375 -18.9375 C 45.09375 -15.238281 44.382812 -12.066406 42.96875 -9.421875 C 41.550781 -6.785156 39.675781 -4.679688 37.34375 -3.109375 C 35.007812 -1.546875 32.445312 -0.5 29.65625 0.03125 C 26.863281 0.570312 24.0625 0.570312 21.25 0.03125 C 18.4375 -0.5 15.863281 -1.546875 13.53125 -3.109375 C 11.195312 -4.679688 9.320312 -6.785156 7.90625 -9.421875 C 6.488281 -12.066406 5.78125 -15.238281 5.78125 -18.9375 L 5.78125 -54.375 L 16.65625 -54.375 L 16.65625 -19.015625 C 16.65625 -16.734375 17.25 -14.90625 18.4375 -13.53125 C 19.632812 -12.164062 21.101562 -11.253906 22.84375 -10.796875 C 24.59375 -10.335938 26.34375 -10.335938 28.09375 -10.796875 C 29.84375 -11.253906 31.3125 -12.164062 32.5 -13.53125 C 33.695312 -14.90625 34.296875 -16.734375 34.296875 -19.015625 L 34.296875 -54.375 L 45.09375 -54.375 Z M 45.09375 -18.9375 "/></g></g></g><g fill="#38b6ff" fill-opacity="1"><g transform="translate(338.976968, 75.980337)"><g><path d="M 6.078125 -54.375 L 16.953125 -54.375 L 16.953125 -10.875 L 34.21875 -10.875 L 34.21875 0 L 6.078125 0 Z M 6.078125 -54.375 "/></g></g></g><g fill="#38b6ff" fill-opacity="1"><g transform="translate(376.464289, 75.980337)"><g><path d="M 1.21875 0 L 24.109375 -56.34375 L 25.25 -56.34375 L 48.140625 0 L 35.890625 0 L 33.6875 -5.859375 L 15.671875 -5.859375 L 13.53125 0 Z M 19.625 -16.046875 L 29.65625 -16.046875 L 24.71875 -30.1875 Z M 19.625 -16.046875 "/></g></g></g></g></g></svg>