<svg xmlns="http://www.w3.org/2000/svg" xmlns:xlink="http://www.w3.org/1999/xlink" width="1080" zoomAndPan="magnify" viewBox="0 0 810 1012.49997" height="1350" preserveAspectRatio="xMidYMid meet" version="1.0"><path fill="#ffffff" d="M 641.742188 494.816406 C 651.699219 477.675781 661.265625 458.5625 670.421875 437.445312 C 692.324219 385.261719 702.296875 337.046875 706.671875 298.804688 L 487.566406 298.804688 C 470.445312 280.476562 447.332031 251.796875 429.003906 212.363281 C 408.289062 169.339844 401.109375 130.296875 398.726562 104.003906 C 366.523438 169.648438 334.449219 235.425781 302.359375 301.1875 C 230.773438 301.726562 159.183594 302.265625 87.597656 302.789062 C 91.1875 373.296875 122.246094 437.835938 153.324219 499.582031 C 135.402344 526.269531 113.890625 566.5 101.144531 619.089844 C 94.371094 648.175781 91.578125 674.453125 90.796875 696.765625 L 306.3125 696.765625 C 325.03125 719.078125 346.152344 748.164062 365.671875 784.808594 C 386.792969 824.242188 399.542969 860.902344 407.507812 890.769531 C 430.75 838.050781 454.058594 785.28125 477.480469 732.464844 C 482.308594 721.542969 488.269531 708.128906 494.011719 695.167969 L 706.6875 695.167969 C 703.097656 666.488281 696.324219 631.429688 684.375 593.1875 C 671.628906 553.753906 656.089844 520.6875 641.742188 494.78125 Z M 294.789062 497.328125 C 300.402344 508.265625 337.878906 529.15625 296.746094 528.160156 L 295.164062 563.839844 C 288.4375 565.308594 284.699219 561.425781 280.390625 557.6875 C 252.855469 578.953125 262.585938 540.042969 263.058594 526.300781 C 263.855469 502.488281 263.320312 477.15625 265.996094 453.472656 C 266.925781 445.261719 267.691406 437.425781 279.199219 438.472656 C 283.492188 438.863281 284.617188 441.949219 290.101562 440.921875 C 297.9375 439.46875 311.582031 416.242188 318.976562 435.140625 C 312.121094 446.683594 294.671875 456.539062 292.664062 470.039062 C 291.703125 476.46875 291.847656 491.566406 294.789062 497.3125 Z M 343.394531 413.875 C 345.84375 407.445312 373.183594 407.492188 382.320312 395.527344 C 386.320312 390.289062 388.148438 379.027344 395.902344 378.375 C 407.34375 377.394531 407.71875 389.03125 412.339844 395.546875 C 420.53125 407.085938 435.941406 404.652344 446.859375 410.203125 C 457.566406 415.652344 450.582031 423.878906 439.578125 423.261719 C 435.074219 423 425.183594 418.625 422.882812 423.554688 C 420.417969 428.859375 424.496094 448.769531 424.742188 455.902344 C 424.988281 463.394531 427.46875 486.671875 414.425781 485.691406 C 401.253906 484.695312 409.203125 457.03125 397.304688 457.878906 C 386.273438 458.679688 391.691406 476.761719 387.757812 481.742188 C 384.363281 486.019531 371.320312 485.398438 371.320312 481.496094 L 371.320312 420.714844 C 369.25 418.835938 336.914062 430.914062 343.410156 413.890625 Z M 449.683594 536.796875 C 445.210938 540.777344 431.484375 541.902344 426.996094 544.941406 C 421.378906 548.726562 423.160156 576.390625 423.289062 583.902344 C 423.46875 593.855469 431.53125 619.726562 412.09375 615.859375 C 407.097656 613.640625 406.640625 598.117188 397.453125 598.542969 C 385.976562 599.078125 389.976562 615.957031 378.910156 616.496094 C 365.476562 617.148438 371.222656 595.359375 371.355469 589.007812 C 371.53125 580.945312 372.921875 554.015625 371.027344 548.253906 C 368.824219 541.5625 343.605469 541.660156 343.019531 532.664062 C 342.171875 519.542969 363.648438 528.894531 370.78125 529.367188 C 386.09375 530.382812 383.855469 516.539062 392.292969 510.828125 C 404.714844 502.421875 408.207031 524.082031 415.75 528.03125 C 425.410156 533.089844 441.308594 521.191406 450.007812 527.589844 C 453.242188 529.972656 452.390625 534.363281 449.667969 536.796875 Z M 529.351562 563.875 C 522.25 565.605469 519.605469 559.957031 514.285156 557.703125 C 510.578125 560.445312 505.8125 564.933594 500.640625 563.480469 C 495.988281 560.316406 498.632812 534.28125 497.914062 528.175781 C 456.488281 528.796875 494.601562 508.003906 500.804688 498.175781 C 502.941406 494.78125 502.664062 476.191406 502.109375 471.246094 C 501.210938 463.167969 497.652344 458.15625 492.234375 452.066406 C 487.910156 447.21875 475.554688 440.285156 478.898438 433.527344 C 487.515625 422.183594 496.445312 439.613281 504.558594 440.96875 C 510.839844 442.015625 514.890625 436.546875 522.332031 440.054688 C 527.898438 442.683594 528.222656 449.277344 528.828125 454.613281 C 531.683594 479.488281 531.097656 506.355469 531.601562 531.425781 C 531.71875 537.136719 536.464844 561.652344 529.351562 563.875 Z M 529.351562 563.875 " fill-opacity="1" fill-rule="nonzero"/></svg>