<svg xmlns="http://www.w3.org/2000/svg" xmlns:xlink="http://www.w3.org/1999/xlink" width="1080" zoomAndPan="magnify" viewBox="0 0 810 1012.49997" height="1350" preserveAspectRatio="xMidYMid meet" version="1.0"><path fill="#ffffff" d="M 528.78125 574.285156 C 509.621094 558.808594 474.613281 587.613281 453.351562 575.351562 C 436.742188 565.773438 429.050781 513.378906 401.710938 533.710938 C 383.132812 547.546875 388.054688 581.046875 354.351562 578.585938 C 338.632812 577.433594 291.359375 554.773438 293.222656 586.546875 C 294.488281 608.320312 350.003906 608.078125 354.859375 624.285156 C 359.03125 638.207031 355.96875 703.371094 355.59375 722.882812 C 355.28125 738.226562 342.644531 790.972656 372.222656 789.378906 C 396.589844 788.046875 387.785156 747.230469 413.039062 745.921875 C 433.261719 744.878906 434.28125 782.460938 445.28125 787.824219 C 488.070312 797.203125 470.3125 734.589844 469.914062 710.488281 C 469.625 692.308594 465.699219 625.394531 478.070312 616.214844 C 487.984375 608.851562 518.179688 606.148438 528.027344 596.523438 C 534.035156 590.648438 535.898438 580.007812 528.78125 574.265625 Z M 528.78125 574.285156 " fill-opacity="1" fill-rule="nonzero"/><path fill="#ffffff" d="M 521.796875 290.171875 C 497.761719 276.734375 463.816406 282.632812 445.789062 254.695312 C 435.632812 238.953125 434.8125 210.796875 409.625 213.144531 C 392.578125 214.742188 388.5625 241.992188 379.738281 254.675781 C 359.628906 283.609375 299.453125 283.519531 294.042969 299.0625 C 279.742188 340.257812 350.914062 311.035156 355.480469 315.582031 L 355.480469 462.671875 C 355.480469 472.117188 384.21875 473.625 391.6875 463.269531 C 400.335938 451.253906 388.40625 407.460938 412.707031 405.554688 C 438.917969 403.492188 421.398438 470.429688 450.421875 472.847656 C 479.136719 475.242188 473.703125 418.902344 473.148438 400.765625 C 472.617188 383.515625 463.617188 335.316406 469.046875 322.476562 C 474.082031 310.570312 495.898438 321.144531 505.789062 321.765625 C 530.019531 323.273438 545.386719 303.34375 521.816406 290.148438 Z M 521.796875 290.171875 " fill-opacity="1" fill-rule="nonzero"/><path fill="#ffffff" d="M 240.277344 350.65625 C 223.980469 304.894531 193.957031 361.101562 176.707031 364.625 C 164.648438 367.085938 162.183594 359.636719 152.71875 358.683594 C 127.398438 356.132812 125.691406 375.089844 123.648438 394.980469 C 117.753906 452.273438 118.949219 513.554688 117.199219 571.203125 C 116.179688 604.460938 94.761719 698.628906 155.355469 647.144531 C 164.867188 656.167969 173.09375 665.570312 187.882812 662.019531 L 191.34375 575.703125 C 281.894531 578.121094 199.367188 527.546875 187.019531 501.09375 C 180.523438 487.195312 180.234375 450.652344 182.339844 435.089844 C 186.773438 402.429688 225.15625 378.574219 240.253906 350.65625 Z M 240.277344 350.65625 " fill-opacity="1" fill-rule="nonzero"/><path fill="#ffffff" d="M 708.351562 583.574219 C 707.242188 522.914062 708.53125 457.902344 702.253906 397.707031 C 700.902344 384.800781 700.191406 368.816406 687.929688 362.476562 C 671.570312 353.984375 662.632812 367.199219 648.820312 364.671875 C 630.972656 361.390625 611.304688 319.21875 592.324219 346.667969 C 584.964844 363.03125 612.167969 379.835938 621.679688 391.566406 C 633.609375 406.289062 641.4375 418.394531 643.410156 437.972656 C 644.605469 449.945312 645.226562 494.910156 640.527344 503.136719 C 626.890625 526.902344 542.96875 577.191406 634.1875 575.726562 C 635.738281 590.515625 629.953125 653.507812 640.171875 661.15625 C 651.589844 664.683594 662.054688 653.839844 670.214844 647.1875 C 681.945312 652.640625 687.777344 666.300781 703.40625 662.109375 C 719.105469 656.742188 708.617188 597.410156 708.375 583.597656 Z M 708.351562 583.574219 " fill-opacity="1" fill-rule="nonzero"/></svg>