<?xml version="1.0" encoding="UTF-8"?>
<svg id="Camada_1" xmlns="http://www.w3.org/2000/svg" version="1.1" xmlns:xlink="http://www.w3.org/1999/xlink" viewBox="0 0 595.28 841.89">
  <!-- Generator: Adobe Illustrator 29.6.1, SVG Export Plug-In . SVG Version: 2.1.1 Build 9)  -->
  <defs>
    <style>
      .st0 {
        fill: #010101;
      }

      .st1 {
        fill: #fff;
      }

      .st2 {
        fill: #fbfbfb;
      }

      .st3 {
        fill: url(#Gradiente_sem_nome_352);
      }

      .st4 {
        fill: #f8f8f8;
      }
    </style>
    <linearGradient id="Gradiente_sem_nome_352" data-name="Gradiente sem nome 352" x1="120.95" y1="422.91" x2="473.46" y2="422.91" gradientUnits="userSpaceOnUse">
      <stop offset="0" stop-color="#fff"/>
      <stop offset="0" stop-color="#f9fdee"/>
      <stop offset=".03" stop-color="#fcfef6"/>
      <stop offset=".04" stop-color="#f9fdf3"/>
      <stop offset=".08" stop-color="#cff1c5"/>
      <stop offset=".12" stop-color="#a9e69c"/>
      <stop offset=".17" stop-color="#86db77"/>
      <stop offset=".22" stop-color="#68d356"/>
      <stop offset=".27" stop-color="#4fcb3b"/>
      <stop offset=".34" stop-color="#3bc625"/>
      <stop offset=".41" stop-color="#2bc114"/>
      <stop offset=".51" stop-color="#20be08"/>
      <stop offset=".64" stop-color="#1abc01"/>
      <stop offset="1" stop-color="#19bc00"/>
    </linearGradient>
  </defs>
  <path d="M424.28,335.21"/>
  <path class="st1" d="M99.04,376.05"/>
  <g>
    <g>
      <path class="st3" d="M298.7,590.62c-13.9,0-19.63-2.5-23.39-4.96-3.31-2.15-6.2-4.84-8.65-8.02-7.83-2-15.56-4.5-23.06-7.46-8.42-3.33-16.64-7.26-24.55-11.75-.6.44-1.23.86-1.85,1.24-6.59,4.18-14.8,6.49-23.12,6.49-12.1,0-21.21-4.84-24.35-12.94-2.17-5.58-.71-10.3.69-13.29-1.88.39-3.58.59-5.13.59-7.19,0-11.01-3.86-12.65-6.17-4.69-6.57-1.92-13.31-.87-15.83.55-1.36.77-1.95.77-2.57,0-.45-.13-.91-.82-2.54-3.21-7.61-4.54-10.75-9.43-18.72-11.8-19.17-14.6-49.09.22-61.32,2.22-1.83,4.47-2.96,6.44-3.66-.13-.5-.27-1.01-.39-1.45-.72-2.69-1.61-5.95-1.9-9.46-10.82-4.49-22.92-14.01-19.63-26.26,2-7.44,7.97-9.93,12.3-10.86-7.33-4.02-12.99-10.12-16.01-15.86-4.17-7.97-1.9-13.68-.18-16.38,2.52-3.93,6.86-6.28,11.61-6.28,2.35,0,4.22.55,5.73.99,1.21.35,2.17.64,3.29.64.3,0,.62-.02.94-.07,1.8-.24,5.07-2.52,10.7-6.5,2.42-1.71,4.13-3.06,5.6-4.23-8.32-8.4-13.21-19.17-13.78-26.82-.6-7.81,2.97-12.23,5.16-14.17,2.66-2.35,6.07-3.65,9.63-3.65,4.62,0,8.1,2.05,11.16,3.85,3.04,1.78,6.49,3.81,11.38,4.29.59.05,1.14.08,1.68.08,2.34,0,4.23-.55,8.32-1.81,2.94-.91,6.62-2.05,11.39-3.11,1.31-.29,2.64-.55,3.97-.81-1.83-5.71-2.13-11.34-1.16-15.36,1.53-6.35,5.75-9.07,8.13-10.12,1.75-.77,3.6-1.18,5.51-1.18,6.65,0,10.38,4.49,12.18,6.64.96,1.16,1.8,2.15,2.87,2.77.62.35,1.24.55,2.62.55s3.06-.2,5.01-.45c2.3-.29,4.92-.6,7.81-.67h1.18c5.88,0,11.8,1.08,17.69,3.21.92-2.08,2.08-4.17,3.55-6.22,7.44-10.44,19.98-15.88,28.52-15.88,7.21,0,10.97,3.81,12.57,6.08,1.95,2.76,4.32,8.18.37,15.19.76.81,1.6,1.76,2.47,2.86,4.1-1.98,8.32-3.41,12.65-4.25,3.11-.6,6.18-.91,9.38-.91,2.12,0,4,.12,5.65.24,1.34.08,2.5.17,3.6.17,1.38,0,2.99-.1,5.34-.91,2.6-.87,4.54-2.03,6.39-3.16,2.71-1.63,6.08-3.68,10.65-3.68,3.19,0,6.22,1.03,8.75,2.94,2.4,1.83,7.51,7.04,5.68,17.38,6.72.77,12.89,2.67,18.4,5.7,2.03,1.11,3.86,2.32,5.65,3.48,4.37,2.86,6.97,4.49,10.08,4.49h.44c1.95-.1,3.61-.77,5.38-1.46,2.08-.84,4.69-1.87,7.91-1.87,4.13,0,8.05,1.76,10.7,4.86,1.66,1.93,4.32,6.13,3.26,12.55-1.09,6.62-6.34,14.57-13.22,20.74,2.99,2.62,4.99,4.94,6.54,6.76,1.98,2.3,2.5,2.87,4.05,3.63,2.44,1.21,4.74,1.38,6.86,1.38.76,0,1.45-.02,2.08-.03.77-.02,1.48-.03,2.1-.03,10.92,0,14.3,7.02,15.26,10.05.86,2.71,1.61,8.13-2.81,14.15-1.78,2.44-4.42,4.89-7.63,7.04.3.37.59.77.87,1.21,6.52,9.95.07,22.99-8.67,30.89-2.12,1.92-4.47,3.6-7.04,5.06-.6,4.02-2.02,7.88-3.19,11.06-.22.6-.49,1.31-.74,2.05,3.97.47,8.86,1.8,13.33,5.7,7.75,6.76,10.6,17.61,8.49,32.3-1.61,11.28-6.47,19.53-11.17,27.49-2.99,5.07-5.81,9.88-8.02,15.71-1.34,3.55-1.34,4.62-1.24,5.41.1.82.4,1.55.79,2.57.99,2.52,3.63,9.19-1.09,15.68-1.65,2.27-5.48,6.05-12.55,6.05h-.15c.27,1.51.32,3.21,0,5.07-1.95,11.26-15.01,16.3-27.07,16.3-7.97,0-15.19-2.23-20.92-6.47-6.94,4.35-14.17,8.27-21.59,11.68-5.66,2.6-11.51,4.92-17.43,6.96-1.48,2.92-3.38,5.53-5.66,7.81-4.79,4.77-12,8.18-31.61,9.36-3.21.18-6.22.29-8.94.29l-.05-.05Z"/>
      <path class="st1" d="M139.65,444.9"/>
    </g>
    <g>
      <g>
        <path class="st0" d="M163.14,526.89c-1.19-1.68,2.35-4.92,2.29-11.06-.03-2.97-.89-5.19-1.83-7.41-3.28-7.76-4.92-11.66-10.33-20.47-9.04-14.72-11.09-37.59-2.57-44.63,3.95-3.26,7.39-.86,10.22-4.42,5.65-7.12-5.26-20.45,0-26.92,3.31-4.08,11.46-2.54,11.44-2.77-.02-.25-8.89,1.56-17.91-1.24-8.08-2.5-15.91-8.6-14.99-12.07.89-3.31,8.72-.08,17.54-5.85,9.21-6.03,13.51-17.95,14.37-20.33.45-1.26.77-2.34.97-3.06-1.8,1.65-8.08,6.96-16.77,6.64-13.61-.49-23.16-14.47-21.61-16.89.91-1.41,5.06,2.08,12.44,1.09,4.94-.66,8.86-3.38,16.45-8.77,8.49-6.02,9.51-8.13,14.92-10.6,5.14-2.35,9.86-3.04,12.89-3.26-3.78-.45-9.24-1.66-14.65-5.14-12.54-8.08-18.35-24.18-15.11-27.05,2.66-2.35,8.77,6.39,22.42,7.68,9.11.86,13.21-2.39,25.39-5.09,7.12-1.58,17.43-3.06,30.55-2.23-2.54-.52-8.72-2.17-13.16-7.68-5.39-6.69-6-16.3-4.02-17.19,1.53-.67,3.26,4.44,8.99,7.68,7.29,4.13,14.13,1.29,22.1,1.09,6.84-.17,16.5,1.56,28.5,10.22-.39-2.77-1.18-11.24,4.1-18.64,6.44-9.01,18.62-11.9,20.05-9.86,1.01,1.43-4.1,4.29-3.58,9.24.42,3.93,3.97,5.16,8.55,11.59,2.15,3.02,3.51,5.78,4.34,7.66,7.61-6.23,14.38-8.54,19.21-9.49,10.52-2.07,15.21,1.66,25.59-1.83,8.39-2.81,11.83-7.41,13.9-5.85,2.39,1.81.15,9.86-3.9,15.19-3.98,5.23-9.34,7.36-12.05,8.2,21.19-6.47,33.83-3.55,41.61.72,6.62,3.63,12.91,9.98,22.95,9.53,7.81-.37,12.2-4.59,13.64-2.92,2.03,2.35-4.35,13.49-14.37,19.38-5.71,3.36-11.36,4.27-15.06,4.52,8.12,2.12,14.17,5.48,18.72,9.01,7.8,6.07,8.28,10.38,15.36,13.9,10.15,5.04,18.9.97,19.74,3.66.94,3.01-9.12,11.46-20.47,11.34-7.46-.08-13.02-3.83-15.58-5.85,5.93,13.09,12.32,16.97,17.02,18.11,5.13,1.24,9.36-.49,10.97,1.98,2.02,3.08-1.78,9.96-6.54,14.27-8.65,7.81-21.49,8-21.46,8.18.03.15,6.72-2.69,9.36-.15,5.09,4.92-9.16,22.74-3.29,29.98,3.78,4.69,11.85-.15,17.91,5.13,6.39,5.56,4.71,17.19,4.2,20.74-2.17,15.07-12.3,24.08-18.5,40.5-1.71,4.54-2.45,7.86-1.97,11.61.66,5.04,3.11,7.56,2.07,8.99-.89,1.23-4.17,1.46-14.99-3.24-2.76,3.83-5.14,8.67-3.8,13.16,1.14,3.83,4.15,4.57,3.8,6.59-.79,4.54-17.58,9.12-27.66,1.65-2.96-2.2-4.62-4.91-5.48-6.59-7.73,5.55-17.43,11.56-29.12,16.92-7.81,3.58-15.21,6.27-21.88,8.3-.6,2.39-1.88,6.02-4.94,9.06-1.6,1.6-5.21,4.55-23.27,5.61-18.3,1.09-22.75-1.46-24.52-2.6-4.08-2.67-6.45-6.2-7.75-8.57-7.81-1.76-16.72-4.34-26.28-8.1-12.47-4.92-22.85-10.62-31.09-15.88-1.43,1.92-3.66,4.42-6.94,6.5-10.75,6.82-26.47,5.13-28.53-.24-1.23-3.18,3.18-5.46,3.04-11.19-.13-5.44-4.27-9.86-8.23-12.97-9.75,3.97-12.64,3.6-13.44,2.47l.02.03Z"/>
        <path class="st2" d="M208.46,491.08c0-.1-.52-.34-.54-.54.2.17.37.35.54.54Z"/>
        <path class="st1" d="M239.01,382.2h10.52c1.58,2.47,3.8,6.52,5.13,11.86,2.82,11.49-1.66,16.48.74,24.13,3.98,12.67,22.69,19.11,25.22,16.27,1.76-1.97-5.58-6.87-5.78-17.01-.18-9.07,5.58-12.28,4.69-20.11-.64-5.65-4.34-10.25-8.77-13.9,10.49-.25,20.95-.49,31.44-.74-2.81,8.42-6.39,23.98.74,38.38,4.57,9.26,13.28,17.44,15.71,16.1,1.28-.71-.02-3.63,0-12.07,0-5.13.02-9.95,1.83-14.99,1.63-4.55,3.06-4.69,6.94-10.97,6.42-10.4,6.91-17.17,8.67-16.97,1.95.22,3.9,8.75,2.3,17.34-2.45,13.07-11.71,18.6-9.86,21.21,1.97,2.79,14.94-.24,22.67-9.14,4.81-5.55,6.23-11.8,6.74-15.36.05,3.31.57,8.3,3.14,13.53,5.26,10.7,16.99,18.23,20.65,15.73,2.82-1.93-1.36-8.37,0-19.01,1.14-8.92,5.53-15.83,9.33-20.47-2,4.49-5.8,14.84-2.97,27.05.91,3.9,2.3,7.19,3.7,9.81,9.75-1.51,13.7.4,15.41,2.67,4.02,5.31-3.38,15.33-4.29,36.68-.15,3.6-1.5,13.19,3.93,12.05,2.4-.5,6.59-7.61,8.49-9.86,3.97-4.71,8.2-9.66,13.49-12.91,5.6-3.41,13.68-7.31,16.28,1.39,5.24,17.58-15.61,50.5-29.52,60.76-4.64,3.43-11.04,6.84-16.97,6.45-.91-.87,5.38-8.44,1.38-11.34-2.67-1.95-4.74,2.62-5.92,4.39-5.31,8.02-6.96,12.37-10.55,16.45-1.78,2.02-4.02,4.5-12.23,9.26-13.95,8.08-29.12,13.93-39.02,17.36-5.43-2.07-14.54-4.72-25.98-4.42-13.56.35-23.85,4.69-29.29,7.46-3.85-.81-9.95-2.2-17.24-4.52-25.39-8.08-39.29-14.6-48.3-26.57-2.5-3.34-9.49-18.97-12.54-19.81-.91-.25-1.33-.05-2.07.44-3.9,2.54,2.29,10.49,1.38,11.34-4,.34-8.17-1.29-11.66-3.14-15.38-8.13-32.55-35.15-35.04-52.21-2.22-15.24,2.84-22.27,17.26-12.94,1.78,1.14,6.57,4.72,7.83,6.17,3.75,4.34,6.91,14.25,10.62,17.91,3.04,3.01,6.02.99,6.2-2.91.08-1.78-.57-3.23-.6-4.84-.17-8.45-.77-16.92-.54-25.36.35-12.75.35-13.61,1.23-14.92,4.25-6.34,14.57-6.34,19.26-6.07.66-2.89,1.43-7.19,1.66-12.44.55-12.86-2.59-22.77-1.66-23.04,1.03-.29,2,12.25,11.16,18.28,4.82,3.18,7.7,1.78,12.8,5.85,6.18,4.94,6.37,10.52,8.5,10.28,3.18-.35,6.47-13.11,2.82-24.55-2.17-6.79-6.25-11.43-9.06-14.05h0ZM369.86,431.61c-1.7-1.5-5.36.1-8.47,1.53-17.01,7.8-23.36,13.19-36.65,21.17-5.49,3.31-12.6,7.29-13.75,13.26-.15.76-.64,3.31.69,4.45.97.84,2.82.84,6.12-.59,13.54-5.83,28.01-25.39,45.51-26.74,1.73-.13,3.16-.07,4.1.02,1.06-2.13,5.14-10.74,2.44-13.12l.02.02ZM384.4,437.07c-.29-1.06-1.68-1.04-4.57-2.34-4.03-1.81-5.11-3.6-6.07-2.99-1.13.72-.17,3.11-.82,6.82-.5,2.86-1.7,5.06-2.66,6.49,1.56-.24,3.44-.29,5.44.27,1.66.47,2.22,1.01,3.16.74,1.33-.4,1.24-1.81,3.06-4.81,1.66-2.72,2.74-3.21,2.47-4.2l-.02.02ZM381.69,446.76c1.55.17,3.34.35,5.34.55,4.3.4,5.53.45,6.4-.42.69-.67,1.13-1.83.87-2.82-.35-1.41-1.85-1.46-4.5-4.12-.66-.66-.69-.79-.96-.87-1.81-.57-4.79,3.66-7.18,7.68h.02ZM280.25,483.68c.76-.62,3.24-.27,1.5-2.6-.97-1.31-14.89-6.28-17.53-7.24-17.66-6.4-39.32-12.94-57.81-15.98-2.67-.44-9.71-2.47-10.65.89-1.09,3.93,8.74,4.65,11.11,5.66,5.88,17.61,15.93,30.45,34.89,34.05,13.36,2.54,26.8,3.02,35.36-9.04.76-1.08,2.76-5.41,3.16-5.75l-.02.02ZM396.87,456.73c-5.66.3-14,2.67-19.73,4-17.81,4.13-40.01,10.3-56.63,17.69-1.51.67-6.57,2.17-5.93,4.27,3.11,1.26,3.58,4.32,5.46,6.94,6.76,9.36,14.96,10.7,26.03,10.05,21.71-1.28,34.55-11.23,42.7-31.09.5-1.21.52-3.61,1.19-4.2,1.14-.99,14.79-1.95,10.49-6.7-1.13-1.24-2.12-1.04-3.58-.97v.02ZM176.68,497.53c-1.68,1.7,11.81,17.09,16.92,8.03,6.22-11.06-17.43-17.44-17.48-21.76-.03-2.55,5.46-1.78,5.95-4.3,1.38-7.26-13.44-18.75-19.91-15.06-1.24.71-1.58,2.96-.86,4.03.3.44,8,3.34,9.63,4.37.69.44,5.66,4.17,5.76,4.52.47,1.53-3.66,2.94-4.22,5.48-1.75,7.86,13.01,10.54,16.17,16.47.72,1.36,1.6,4.08-.89,4.13-2.25.05-10.1-6.87-11.06-5.92h-.02ZM420.14,478.67c-.76-1.03,4.65-4.92,5.53-5.49,2.23-1.48,9.65-4.17,10.25-5.41.55-1.18-.15-2.74-1.24-3.33-6.55-3.5-21.04,7.76-19.91,14.5.59,3.6,7.01,1.92,5.83,5.29s-13.31,7.88-16.4,12.7c-1.93,3.02-2.71,6.12-.42,9.19,3.95,5.34,10.55.12,13.71-3.46.39-.44,4.49-5.86,1.88-5.13-1.63.47-15.22,11.53-11.19,1.75,2.42-5.86,19.11-8.32,16-17.34-.49-1.41-2.5-2.97-4.02-3.26l-.02-.02ZM295.57,493.88c-3.39.57-14.35,6.79-13.24,10.79,1.11,4,9.34-2.84,11.78-3.63,3.48-1.14,5.53-1.08,8.97.15,2.39.86,8.17,5.33,10.03,4.87,4.52-1.11-2.07-7.21-3.76-8.44-3.92-2.82-8.89-4.57-13.78-3.75Z"/>
        <path class="st0" d="M234.57,434.46c12.12,4.86,22.28,9.65,30.3,13.71,7.98,4.05,16.75,8.86,19.78,17.04.47,1.26,2.03,5.49.37,6.97-.87.77-2.54.77-5.31-.42-7.48-3.21-17.02-11.43-24.58-15.81-2.96-1.71-5.53-2.94-6.72-3.5-5.51-2.6-10.28-4.2-13.58-5.18.32-2.74.44-5.92.15-9.39-.1-1.19-.24-2.34-.4-3.43h0Z"/>
        <path class="st0" d="M231.08,446.31c-8.12-2.94-14.12-2.54-18.32-1.43-4.67,1.24-7.9,3.61-9.01,2.4-1.28-1.38.97-6.18,4.12-9.26,3.85-3.76,8.91-4.87,13.14-5.21,1.09-.08,2.34-.1,2.34-.1,1.33,0,3.58.03,4.32.24,2.35.6,3.53,6.34,3.43,13.36h-.02Z"/>
        <path class="st0" d="M280.25,483.68c-.39.32-2.39,4.67-3.16,5.75-8.55,12.07-22,11.58-35.36,9.04-18.96-3.61-29-16.45-34.89-34.05-2.37-1.01-12.2-1.73-11.11-5.66.94-3.36,7.98-1.33,10.65-.89,18.5,3.04,40.16,9.58,57.81,15.98,2.64.96,16.55,5.93,17.53,7.24,1.75,2.34-.74,1.98-1.5,2.6l.02-.02ZM267.76,480.35c-.18.12-1.14,2.72-1.93,3.71-10,12.64-27.24,3.53-32.52-8.97-.54-1.26-1.29-4.97-1.68-5.31-.72-.64-18.13-4.67-18.85-4.03,2.23,10.75,9.98,21.07,20.33,25.19,8.22,3.26,21.88,4.79,30.13,1.31,2-.84,10.75-7.85,11.48-9.53.4-.94-.37-.71-.74-.86-.99-.39-5.51-1.93-6.2-1.5l-.02-.02Z"/>
        <path class="st0" d="M396.87,456.73c1.46-.08,2.45-.29,3.58.97,4.29,4.74-9.36,5.7-10.49,6.7-.67.59-.69,2.97-1.19,4.2-8.15,19.86-21.01,29.81-42.7,31.09-11.07.66-19.27-.69-26.03-10.05-1.88-2.62-2.37-5.68-5.46-6.94-.64-2.1,4.42-3.6,5.93-4.27,16.64-7.39,38.82-13.56,56.63-17.69,5.75-1.33,14.07-3.7,19.73-4v-.02ZM384.05,465.75l-18.74,3.86c-1.33,14.54-23.04,28.58-33.79,14.99-.82-1.06-1.97-4.02-2.77-4.27-1.23-.39-5.23,1.34-6.64,1.83,3.53,3.76,7.91,9.07,13.04,10.67,8.5,2.64,20.8,1.28,28.97-2.05,10.22-4.18,17.8-14.3,19.93-25.04Z"/>
        <path class="st0" d="M382.89,494.97c1.06.55-.77,7.23-3.97,12.77-4.81,8.35-11.86,12.65-15.68,14.92-10.6,6.3-20.8,7.28-25.53,7.44-13.58.47-25.63-4.3-25.39-5.7.2-1.21,9.31,1.63,22.99-.47,4.57-.71,25.93-3.97,39.84-19.98,3.93-4.54,6.76-9.48,7.73-8.97v-.02Z"/>
        <path class="st0" d="M420.14,478.67c1.5.29,3.51,1.85,4.02,3.26,3.11,9.02-13.58,11.48-16,17.34-4.03,9.8,9.54-1.28,11.19-1.75,2.6-.76-1.5,4.69-1.88,5.13-3.16,3.56-9.76,8.81-13.71,3.46-2.27-3.08-1.51-6.18.42-9.19,3.09-4.82,15.17-9.23,16.4-12.7,1.23-3.48-5.23-1.71-5.83-5.29-1.11-6.74,13.36-18,19.91-14.5,1.11.59,1.8,2.15,1.24,3.33-.59,1.26-8,3.95-10.25,5.41-.87.57-6.28,4.47-5.53,5.49l.02.02Z"/>
        <path class="st0" d="M176.68,497.53c.96-.96,8.81,5.97,11.06,5.92,2.49-.05,1.63-2.77.89-4.13-3.16-5.93-17.9-8.6-16.17-16.47.55-2.54,4.69-3.95,4.22-5.48-.1-.35-5.07-4.08-5.76-4.52-1.63-1.03-9.33-3.93-9.63-4.37-.72-1.08-.4-3.33.86-4.03,6.47-3.7,21.29,7.78,19.91,15.06-.49,2.52-5.97,1.75-5.95,4.3.05,4.32,23.71,10.7,17.48,21.76-5.09,9.06-18.6-6.34-16.92-8.03h.02Z"/>
        <path class="st0" d="M295.57,493.88c4.89-.82,9.86.91,13.78,3.75,1.7,1.23,8.28,7.33,3.76,8.44-1.85.45-7.63-4.02-10.03-4.87-3.44-1.23-5.49-1.29-8.97-.15-2.44.81-10.69,7.65-11.78,3.63-1.09-4.02,9.85-10.22,13.24-10.79Z"/>
        <path class="st4" d="M267.76,480.35c.67-.44,5.21,1.11,6.2,1.5.37.15,1.14-.08.74.86-.72,1.68-9.48,8.69-11.48,9.53-8.27,3.48-21.93,1.95-30.13-1.31-10.35-4.1-18.08-14.43-20.33-25.19.72-.64,18.13,3.39,18.85,4.03.39.34,1.16,4.07,1.68,5.31,5.28,12.52,22.52,21.61,32.52,8.97.79-1.01,1.76-3.61,1.93-3.71l.02.02Z"/>
        <path class="st4" d="M384.05,465.75c-2.13,10.74-9.71,20.85-19.93,25.04-8.17,3.33-20.47,4.71-28.97,2.05-5.13-1.6-9.49-6.89-13.04-10.67,1.41-.47,5.41-2.22,6.64-1.83.81.25,1.95,3.21,2.77,4.27,10.74,13.59,32.47-.45,33.79-14.99l18.74-3.86Z"/>
      </g>
      <g>
        <circle cx="408.93" cy="518.38" r="7.07"/>
        <circle class="st2" cx="408.93" cy="518.38" r="3.83"/>
      </g>
      <g>
        <circle cx="187.55" cy="518.38" r="7.07"/>
        <circle class="st2" cx="187.55" cy="518.38" r="3.83"/>
      </g>
    </g>
  </g>
</svg>