<svg xmlns="http://www.w3.org/2000/svg" xmlns:xlink="http://www.w3.org/1999/xlink" width="1080" zoomAndPan="magnify" viewBox="0 0 810 817.92" height="1080" preserveAspectRatio="xMidYMid meet" version="1.0"><defs><clipPath id="6f9b8dd945"><path d="M 144.246094 104.300781 L 665.445312 104.300781 L 665.445312 705.742188 L 144.246094 705.742188 Z M 144.246094 104.300781 " clip-rule="nonzero"/></clipPath></defs><g clip-path="url(#6f9b8dd945)"><path fill="#23bf0b" d="M 258.195312 543.023438 C 255.953125 543.023438 253.722656 543.023438 251.476562 543.023438 C 251.476562 540.777344 251.476562 538.546875 251.476562 536.304688 C 253.722656 536.304688 255.953125 536.304688 258.195312 536.304688 C 258.195312 538.546875 258.195312 540.777344 258.195312 543.023438 Z M 402.644531 111.691406 C 400.402344 111.691406 398.171875 111.691406 395.925781 111.691406 C 395.925781 113.933594 395.925781 116.164062 395.925781 118.410156 C 398.171875 118.410156 400.402344 118.410156 402.644531 118.410156 C 402.644531 116.164062 402.644531 113.933594 402.644531 111.691406 Z M 251.476562 557.804688 C 253.722656 557.804688 255.953125 557.804688 258.195312 557.804688 C 258.195312 555.558594 258.195312 553.328125 258.195312 551.085938 C 255.953125 551.085938 253.722656 551.085938 251.476562 551.085938 C 251.476562 553.328125 251.476562 555.558594 251.476562 557.804688 Z M 402.644531 126.472656 C 400.402344 126.472656 398.171875 126.472656 395.925781 126.472656 C 395.925781 128.714844 395.925781 130.945312 395.925781 133.191406 C 398.171875 133.191406 400.402344 133.191406 402.644531 133.191406 C 402.644531 130.945312 402.644531 128.714844 402.644531 126.472656 Z M 251.476562 572.585938 C 253.722656 572.585938 255.953125 572.585938 258.195312 572.585938 C 258.195312 570.339844 258.195312 568.109375 258.195312 565.867188 C 255.953125 565.867188 253.722656 565.867188 251.476562 565.867188 C 251.476562 568.109375 251.476562 570.339844 251.476562 572.585938 Z M 402.644531 141.253906 C 400.402344 141.253906 398.171875 141.253906 395.925781 141.253906 C 395.925781 143.496094 395.925781 145.726562 395.925781 147.972656 C 398.171875 147.972656 400.402344 147.972656 402.644531 147.972656 C 402.644531 145.726562 402.644531 143.496094 402.644531 141.253906 Z M 251.476562 602.148438 C 253.722656 602.148438 255.953125 602.148438 258.195312 602.148438 C 258.195312 599.902344 258.195312 597.671875 258.195312 595.429688 C 255.953125 595.429688 253.722656 595.429688 251.476562 595.429688 C 251.476562 592.742188 251.476562 590.054688 251.476562 587.367188 C 253.722656 587.367188 255.953125 587.367188 258.195312 587.367188 C 258.195312 585.121094 258.195312 582.890625 258.195312 580.648438 C 253.265625 580.648438 248.347656 580.648438 243.414062 580.648438 C 243.414062 585.578125 243.414062 590.496094 243.414062 595.429688 C 241.171875 595.429688 238.941406 595.429688 236.699219 595.429688 C 236.699219 597.671875 236.699219 599.902344 236.699219 602.148438 C 238.941406 602.148438 241.171875 602.148438 243.414062 602.148438 C 243.414062 604.835938 243.414062 607.519531 243.414062 610.207031 C 246.101562 610.207031 248.789062 610.207031 251.476562 610.207031 C 251.476562 607.519531 251.476562 604.835938 251.476562 602.148438 Z M 402.644531 156.035156 C 400.402344 156.035156 398.171875 156.035156 395.925781 156.035156 C 395.925781 158.277344 395.925781 160.507812 395.925781 162.753906 C 398.171875 162.753906 400.402344 162.753906 402.644531 162.753906 C 402.644531 160.507812 402.644531 158.277344 402.644531 156.035156 Z M 266.257812 595.429688 C 266.257812 592.742188 266.257812 590.054688 266.257812 587.367188 C 263.570312 587.367188 260.882812 587.367188 258.195312 587.367188 C 258.195312 590.054688 258.195312 592.742188 258.195312 595.429688 C 260.882812 595.429688 263.570312 595.429688 266.257812 595.429688 Z M 402.644531 170.8125 C 400.402344 170.8125 398.171875 170.8125 395.925781 170.8125 C 395.925781 173.058594 395.925781 175.289062 395.925781 177.53125 C 398.171875 177.53125 400.402344 177.53125 402.644531 177.53125 C 402.644531 175.289062 402.644531 173.058594 402.644531 170.8125 Z M 287.757812 624.988281 C 285.515625 624.988281 283.285156 624.988281 281.039062 624.988281 C 281.039062 622.300781 281.039062 619.613281 281.039062 616.925781 C 278.351562 616.925781 275.664062 616.925781 272.976562 616.925781 C 272.976562 619.613281 272.976562 622.300781 272.976562 624.988281 C 270.734375 624.988281 268.503906 624.988281 266.257812 624.988281 C 266.257812 627.234375 266.257812 629.464844 266.257812 631.707031 C 263.570312 631.707031 260.882812 631.707031 258.195312 631.707031 C 258.195312 634.394531 258.195312 637.082031 258.195312 639.769531 C 255.953125 639.769531 253.722656 639.769531 251.476562 639.769531 C 251.476562 637.082031 251.476562 634.394531 251.476562 631.707031 C 253.722656 631.707031 255.953125 631.707031 258.195312 631.707031 C 258.195312 629.464844 258.195312 627.234375 258.195312 624.988281 C 255.953125 624.988281 253.722656 624.988281 251.476562 624.988281 C 251.476562 622.300781 251.476562 619.613281 251.476562 616.925781 C 248.789062 616.925781 246.101562 616.925781 243.414062 616.925781 C 243.414062 619.613281 243.414062 622.300781 243.414062 624.988281 C 241.171875 624.988281 238.941406 624.988281 236.699219 624.988281 C 236.699219 622.300781 236.699219 619.613281 236.699219 616.925781 C 238.941406 616.925781 241.171875 616.925781 243.414062 616.925781 C 243.414062 614.683594 243.414062 612.453125 243.414062 610.207031 C 236.253906 610.207031 229.078125 610.207031 221.917969 610.207031 C 221.917969 612.453125 221.917969 614.683594 221.917969 616.925781 C 224.160156 616.925781 226.390625 616.925781 228.636719 616.925781 C 228.636719 619.613281 228.636719 622.300781 228.636719 624.988281 C 226.390625 624.988281 224.160156 624.988281 221.917969 624.988281 C 221.917969 622.300781 221.917969 619.613281 221.917969 616.925781 C 219.230469 616.925781 216.542969 616.925781 213.855469 616.925781 C 213.855469 621.859375 213.855469 626.777344 213.855469 631.707031 C 218.785156 631.707031 223.703125 631.707031 228.636719 631.707031 C 228.636719 634.394531 228.636719 637.082031 228.636719 639.769531 C 231.324219 639.769531 234.011719 639.769531 236.699219 639.769531 C 236.699219 642.015625 236.699219 644.246094 236.699219 646.488281 C 238.941406 646.488281 241.171875 646.488281 243.414062 646.488281 C 243.414062 651.421875 243.414062 656.339844 243.414062 661.269531 C 248.347656 661.269531 253.265625 661.269531 258.195312 661.269531 C 258.195312 659.027344 258.195312 656.796875 258.195312 654.550781 C 255.953125 654.550781 253.722656 654.550781 251.476562 654.550781 C 251.476562 651.863281 251.476562 649.175781 251.476562 646.488281 C 253.722656 646.488281 255.953125 646.488281 258.195312 646.488281 C 258.195312 649.175781 258.195312 651.863281 258.195312 654.550781 C 260.882812 654.550781 263.570312 654.550781 266.257812 654.550781 C 266.257812 651.863281 266.257812 649.175781 266.257812 646.488281 C 268.503906 646.488281 270.734375 646.488281 272.976562 646.488281 C 272.976562 644.246094 272.976562 642.015625 272.976562 639.769531 C 275.664062 639.769531 278.351562 639.769531 281.039062 639.769531 C 281.039062 637.082031 281.039062 634.394531 281.039062 631.707031 C 285.972656 631.707031 290.890625 631.707031 295.820312 631.707031 C 295.820312 626.777344 295.820312 621.859375 295.820312 616.925781 C 293.132812 616.925781 290.445312 616.925781 287.757812 616.925781 C 287.757812 619.613281 287.757812 622.300781 287.757812 624.988281 Z M 258.195312 616.925781 C 258.195312 614.683594 258.195312 612.453125 258.195312 610.207031 C 255.953125 610.207031 253.722656 610.207031 251.476562 610.207031 C 251.476562 612.453125 251.476562 614.683594 251.476562 616.925781 C 253.722656 616.925781 255.953125 616.925781 258.195312 616.925781 Z M 272.976562 610.207031 C 270.734375 610.207031 268.503906 610.207031 266.257812 610.207031 C 266.257812 612.453125 266.257812 614.683594 266.257812 616.925781 C 268.503906 616.925781 270.734375 616.925781 272.976562 616.925781 C 272.976562 614.683594 272.976562 612.453125 272.976562 610.207031 Z M 287.757812 610.207031 C 285.515625 610.207031 283.285156 610.207031 281.039062 610.207031 C 281.039062 612.453125 281.039062 614.683594 281.039062 616.925781 C 283.285156 616.925781 285.515625 616.925781 287.757812 616.925781 C 287.757812 614.683594 287.757812 612.453125 287.757812 610.207031 Z M 402.644531 185.59375 C 400.402344 185.59375 398.171875 185.59375 395.925781 185.59375 C 395.925781 187.839844 395.925781 190.070312 395.925781 192.3125 C 398.171875 192.3125 400.402344 192.3125 402.644531 192.3125 C 402.644531 190.070312 402.644531 187.839844 402.644531 185.59375 Z M 184.292969 624.988281 C 186.980469 624.988281 189.667969 624.988281 192.355469 624.988281 C 192.355469 622.300781 192.355469 619.613281 192.355469 616.925781 C 189.667969 616.925781 186.980469 616.925781 184.292969 616.925781 C 184.292969 619.613281 184.292969 622.300781 184.292969 624.988281 Z M 199.074219 624.988281 C 201.761719 624.988281 204.449219 624.988281 207.136719 624.988281 C 207.136719 622.300781 207.136719 619.613281 207.136719 616.925781 C 204.449219 616.925781 201.761719 616.925781 199.074219 616.925781 C 199.074219 619.613281 199.074219 622.300781 199.074219 624.988281 Z M 266.257812 624.988281 C 266.257812 622.300781 266.257812 619.613281 266.257812 616.925781 C 263.570312 616.925781 260.882812 616.925781 258.195312 616.925781 C 258.195312 619.613281 258.195312 622.300781 258.195312 624.988281 C 260.882812 624.988281 263.570312 624.988281 266.257812 624.988281 Z M 317.320312 624.988281 C 320.007812 624.988281 322.695312 624.988281 325.382812 624.988281 C 325.382812 622.300781 325.382812 619.613281 325.382812 616.925781 C 322.695312 616.925781 320.007812 616.925781 317.320312 616.925781 C 317.320312 619.613281 317.320312 622.300781 317.320312 624.988281 Z M 395.925781 200.375 C 395.925781 202.621094 395.925781 204.851562 395.925781 207.09375 C 398.171875 207.09375 400.402344 207.09375 402.644531 207.09375 C 402.644531 204.851562 402.644531 202.621094 402.644531 200.375 C 400.402344 200.375 398.171875 200.375 395.925781 200.375 Z M 358.304688 333.402344 C 360.992188 333.402344 363.679688 333.402344 366.367188 333.402344 C 366.367188 330.714844 366.367188 328.027344 366.367188 325.339844 C 368.609375 325.339844 370.839844 325.339844 373.085938 325.339844 C 373.085938 323.097656 373.085938 320.867188 373.085938 318.621094 C 370.839844 318.621094 368.609375 318.621094 366.367188 318.621094 C 366.367188 315.933594 366.367188 313.246094 366.367188 310.5625 C 368.609375 310.5625 370.839844 310.5625 373.085938 310.5625 C 373.085938 313.246094 373.085938 315.933594 373.085938 318.621094 C 375.773438 318.621094 378.460938 318.621094 381.148438 318.621094 C 381.148438 315.933594 381.148438 313.246094 381.148438 310.5625 C 383.390625 310.5625 385.621094 310.5625 387.867188 310.5625 C 387.867188 308.316406 387.867188 306.085938 387.867188 303.84375 C 385.621094 303.84375 383.390625 303.84375 381.148438 303.84375 C 381.148438 301.15625 381.148438 298.46875 381.148438 295.78125 C 383.390625 295.78125 385.621094 295.78125 387.867188 295.78125 C 387.867188 293.535156 387.867188 291.304688 387.867188 289.0625 C 385.621094 289.0625 383.390625 289.0625 381.148438 289.0625 C 381.148438 286.375 381.148438 283.6875 381.148438 281 C 383.390625 281 385.621094 281 387.867188 281 C 387.867188 278.753906 387.867188 276.523438 387.867188 274.28125 C 390.550781 274.28125 393.238281 274.28125 395.925781 274.28125 C 395.925781 271.59375 395.925781 268.90625 395.925781 266.21875 C 398.171875 266.21875 400.402344 266.21875 402.644531 266.21875 C 402.644531 263.972656 402.644531 261.742188 402.644531 259.5 C 400.402344 259.5 398.171875 259.5 395.925781 259.5 C 395.925781 256.8125 395.925781 254.125 395.925781 251.4375 C 398.171875 251.4375 400.402344 251.4375 402.644531 251.4375 C 402.644531 249.191406 402.644531 246.960938 402.644531 244.71875 C 400.402344 244.71875 398.171875 244.71875 395.925781 244.71875 C 395.925781 242.03125 395.925781 239.34375 395.925781 236.65625 C 398.171875 236.65625 400.402344 236.65625 402.644531 236.65625 C 402.644531 234.414062 402.644531 232.183594 402.644531 229.9375 C 400.402344 229.9375 398.171875 229.9375 395.925781 229.9375 C 395.925781 227.25 395.925781 224.5625 395.925781 221.875 C 398.171875 221.875 400.402344 221.875 402.644531 221.875 C 402.644531 224.5625 402.644531 227.25 402.644531 229.9375 C 405.332031 229.9375 408.019531 229.9375 410.707031 229.9375 C 410.707031 222.320312 410.707031 214.714844 410.707031 207.09375 C 408.019531 207.09375 405.332031 207.09375 402.644531 207.09375 C 402.644531 209.78125 402.644531 212.46875 402.644531 215.15625 C 397.714844 215.15625 392.796875 215.15625 387.867188 215.15625 C 387.867188 227.25 387.867188 239.34375 387.867188 251.4375 C 385.621094 251.4375 383.390625 251.4375 381.148438 251.4375 C 381.148438 259.054688 381.148438 266.660156 381.148438 274.28125 C 378.460938 274.28125 375.773438 274.28125 373.085938 274.28125 C 373.085938 284.128906 373.085938 293.992188 373.085938 303.84375 C 368.152344 303.84375 363.234375 303.84375 358.304688 303.84375 C 358.304688 308.773438 358.304688 313.691406 358.304688 318.621094 C 356.058594 318.621094 353.828125 318.621094 351.585938 318.621094 C 351.585938 320.867188 351.585938 323.097656 351.585938 325.339844 C 353.828125 325.339844 356.058594 325.339844 358.304688 325.339844 C 358.304688 328.027344 358.304688 330.714844 358.304688 333.402344 Z M 410.707031 244.71875 C 410.707031 242.03125 410.707031 239.34375 410.707031 236.65625 C 408.019531 236.65625 405.332031 236.65625 402.644531 236.65625 C 402.644531 239.34375 402.644531 242.03125 402.644531 244.71875 C 405.332031 244.71875 408.019531 244.71875 410.707031 244.71875 Z M 251.476562 676.050781 C 253.722656 676.050781 255.953125 676.050781 258.195312 676.050781 C 258.195312 673.808594 258.195312 671.578125 258.195312 669.332031 C 255.953125 669.332031 253.722656 669.332031 251.476562 669.332031 C 251.476562 671.578125 251.476562 673.808594 251.476562 676.050781 Z M 417.425781 251.4375 C 417.425781 249.191406 417.425781 246.960938 417.425781 244.71875 C 415.183594 244.71875 412.953125 244.71875 410.707031 244.71875 C 410.707031 246.960938 410.707031 249.191406 410.707031 251.4375 C 412.953125 251.4375 415.183594 251.4375 417.425781 251.4375 Z M 402.644531 259.5 C 405.332031 259.5 408.019531 259.5 410.707031 259.5 C 410.707031 256.8125 410.707031 254.125 410.707031 251.4375 C 408.019531 251.4375 405.332031 251.4375 402.644531 251.4375 C 402.644531 254.125 402.644531 256.8125 402.644531 259.5 Z M 251.476562 690.832031 C 253.722656 690.832031 255.953125 690.832031 258.195312 690.832031 C 258.195312 688.585938 258.195312 686.355469 258.195312 684.113281 C 255.953125 684.113281 253.722656 684.113281 251.476562 684.113281 C 251.476562 686.355469 251.476562 688.585938 251.476562 690.832031 Z M 417.425781 266.21875 C 417.425781 263.972656 417.425781 261.742188 417.425781 259.5 C 415.183594 259.5 412.953125 259.5 410.707031 259.5 C 410.707031 261.742188 410.707031 263.972656 410.707031 266.21875 C 412.953125 266.21875 415.183594 266.21875 417.425781 266.21875 Z M 251.476562 705.613281 C 253.722656 705.613281 255.953125 705.613281 258.195312 705.613281 C 258.195312 703.367188 258.195312 701.136719 258.195312 698.894531 C 255.953125 698.894531 253.722656 698.894531 251.476562 698.894531 C 251.476562 701.136719 251.476562 703.367188 251.476562 705.613281 Z M 402.644531 281 C 402.644531 278.753906 402.644531 276.523438 402.644531 274.28125 C 400.402344 274.28125 398.171875 274.28125 395.925781 274.28125 C 395.925781 276.523438 395.925781 278.753906 395.925781 281 C 398.171875 281 400.402344 281 402.644531 281 Z M 417.425781 274.28125 C 415.183594 274.28125 412.953125 274.28125 410.707031 274.28125 C 410.707031 276.523438 410.707031 278.753906 410.707031 281 C 412.953125 281 415.183594 281 417.425781 281 C 417.425781 278.753906 417.425781 276.523438 417.425781 274.28125 Z M 395.925781 281 C 393.238281 281 390.550781 281 387.867188 281 C 387.867188 283.6875 387.867188 286.375 387.867188 289.0625 C 390.550781 289.0625 393.238281 289.0625 395.925781 289.0625 C 395.925781 286.375 395.925781 283.6875 395.925781 281 Z M 410.707031 289.0625 C 410.707031 286.375 410.707031 283.6875 410.707031 281 C 408.019531 281 405.332031 281 402.644531 281 C 402.644531 283.6875 402.644531 286.375 402.644531 289.0625 C 405.332031 289.0625 408.019531 289.0625 410.707031 289.0625 Z M 425.488281 289.0625 C 425.488281 286.375 425.488281 283.6875 425.488281 281 C 422.800781 281 420.113281 281 417.425781 281 C 417.425781 283.6875 417.425781 286.375 417.425781 289.0625 C 420.113281 289.0625 422.800781 289.0625 425.488281 289.0625 Z M 402.644531 295.78125 C 402.644531 293.535156 402.644531 291.304688 402.644531 289.0625 C 400.402344 289.0625 398.171875 289.0625 395.925781 289.0625 C 395.925781 291.304688 395.925781 293.535156 395.925781 295.78125 C 398.171875 295.78125 400.402344 295.78125 402.644531 295.78125 Z M 417.425781 295.78125 C 417.425781 293.535156 417.425781 291.304688 417.425781 289.0625 C 415.183594 289.0625 412.953125 289.0625 410.707031 289.0625 C 410.707031 291.304688 410.707031 293.535156 410.707031 295.78125 C 412.953125 295.78125 415.183594 295.78125 417.425781 295.78125 Z M 432.207031 295.78125 C 432.207031 293.535156 432.207031 291.304688 432.207031 289.0625 C 429.964844 289.0625 427.734375 289.0625 425.488281 289.0625 C 425.488281 291.304688 425.488281 293.535156 425.488281 295.78125 C 427.734375 295.78125 429.964844 295.78125 432.207031 295.78125 Z M 395.925781 295.78125 C 393.238281 295.78125 390.550781 295.78125 387.867188 295.78125 C 387.867188 298.46875 387.867188 301.15625 387.867188 303.84375 C 390.550781 303.84375 393.238281 303.84375 395.925781 303.84375 C 395.925781 301.15625 395.925781 298.46875 395.925781 295.78125 Z M 417.425781 303.84375 C 420.113281 303.84375 422.800781 303.84375 425.488281 303.84375 C 425.488281 301.15625 425.488281 298.46875 425.488281 295.78125 C 422.800781 295.78125 420.113281 295.78125 417.425781 295.78125 C 417.425781 298.46875 417.425781 301.15625 417.425781 303.84375 Z M 402.644531 303.84375 C 400.402344 303.84375 398.171875 303.84375 395.925781 303.84375 C 395.925781 306.085938 395.925781 308.316406 395.925781 310.5625 C 398.171875 310.5625 400.402344 310.5625 402.644531 310.5625 C 402.644531 308.316406 402.644531 306.085938 402.644531 303.84375 Z M 410.707031 310.5625 C 412.953125 310.5625 415.183594 310.5625 417.425781 310.5625 C 417.425781 308.316406 417.425781 306.085938 417.425781 303.84375 C 415.183594 303.84375 412.953125 303.84375 410.707031 303.84375 C 410.707031 306.085938 410.707031 308.316406 410.707031 310.5625 Z M 432.207031 310.5625 C 432.207031 313.246094 432.207031 315.933594 432.207031 318.621094 C 434.894531 318.621094 437.582031 318.621094 440.269531 318.621094 C 440.269531 313.691406 440.269531 308.773438 440.269531 303.84375 C 435.339844 303.84375 430.421875 303.84375 425.488281 303.84375 C 425.488281 306.085938 425.488281 308.316406 425.488281 310.5625 C 427.734375 310.5625 429.964844 310.5625 432.207031 310.5625 Z M 395.925781 318.621094 C 395.925781 315.933594 395.925781 313.246094 395.925781 310.5625 C 393.238281 310.5625 390.550781 310.5625 387.867188 310.5625 C 387.867188 313.246094 387.867188 315.933594 387.867188 318.621094 C 390.550781 318.621094 393.238281 318.621094 395.925781 318.621094 Z M 410.707031 318.621094 C 410.707031 315.933594 410.707031 313.246094 410.707031 310.5625 C 408.019531 310.5625 405.332031 310.5625 402.644531 310.5625 C 402.644531 313.246094 402.644531 315.933594 402.644531 318.621094 C 405.332031 318.621094 408.019531 318.621094 410.707031 318.621094 Z M 425.488281 318.621094 C 425.488281 315.933594 425.488281 313.246094 425.488281 310.5625 C 422.800781 310.5625 420.113281 310.5625 417.425781 310.5625 C 417.425781 313.246094 417.425781 315.933594 417.425781 318.621094 C 420.113281 318.621094 422.800781 318.621094 425.488281 318.621094 Z M 387.867188 325.339844 C 387.867188 323.097656 387.867188 320.867188 387.867188 318.621094 C 385.621094 318.621094 383.390625 318.621094 381.148438 318.621094 C 381.148438 320.867188 381.148438 323.097656 381.148438 325.339844 C 383.390625 325.339844 385.621094 325.339844 387.867188 325.339844 Z M 402.644531 325.339844 C 402.644531 323.097656 402.644531 320.867188 402.644531 318.621094 C 400.402344 318.621094 398.171875 318.621094 395.925781 318.621094 C 395.925781 320.867188 395.925781 323.097656 395.925781 325.339844 C 398.171875 325.339844 400.402344 325.339844 402.644531 325.339844 Z M 417.425781 325.339844 C 417.425781 323.097656 417.425781 320.867188 417.425781 318.621094 C 415.183594 318.621094 412.953125 318.621094 410.707031 318.621094 C 410.707031 320.867188 410.707031 323.097656 410.707031 325.339844 C 412.953125 325.339844 415.183594 325.339844 417.425781 325.339844 Z M 425.488281 325.339844 C 427.734375 325.339844 429.964844 325.339844 432.207031 325.339844 C 432.207031 323.097656 432.207031 320.867188 432.207031 318.621094 C 429.964844 318.621094 427.734375 318.621094 425.488281 318.621094 C 425.488281 320.867188 425.488281 323.097656 425.488281 325.339844 Z M 446.988281 325.339844 C 446.988281 323.097656 446.988281 320.867188 446.988281 318.621094 C 444.746094 318.621094 442.515625 318.621094 440.269531 318.621094 C 440.269531 320.867188 440.269531 323.097656 440.269531 325.339844 C 442.515625 325.339844 444.746094 325.339844 446.988281 325.339844 Z M 343.523438 348.183594 C 346.210938 348.183594 348.898438 348.183594 351.585938 348.183594 C 351.585938 345.496094 351.585938 342.808594 351.585938 340.121094 C 353.828125 340.121094 356.058594 340.121094 358.304688 340.121094 C 358.304688 337.878906 358.304688 335.648438 358.304688 333.402344 C 356.058594 333.402344 353.828125 333.402344 351.585938 333.402344 C 351.585938 330.714844 351.585938 328.027344 351.585938 325.339844 C 348.898438 325.339844 346.210938 325.339844 343.523438 325.339844 C 343.523438 328.027344 343.523438 330.714844 343.523438 333.402344 C 341.277344 333.402344 339.046875 333.402344 336.804688 333.402344 C 336.804688 335.648438 336.804688 337.878906 336.804688 340.121094 C 339.046875 340.121094 341.277344 340.121094 343.523438 340.121094 C 343.523438 342.808594 343.523438 345.496094 343.523438 348.183594 Z M 373.085938 340.121094 C 373.085938 342.808594 373.085938 345.496094 373.085938 348.183594 C 375.773438 348.183594 378.460938 348.183594 381.148438 348.183594 C 381.148438 345.496094 381.148438 342.808594 381.148438 340.121094 C 383.390625 340.121094 385.621094 340.121094 387.867188 340.121094 C 387.867188 337.878906 387.867188 335.648438 387.867188 333.402344 C 385.621094 333.402344 383.390625 333.402344 381.148438 333.402344 C 381.148438 330.714844 381.148438 328.027344 381.148438 325.339844 C 378.460938 325.339844 375.773438 325.339844 373.085938 325.339844 C 373.085938 328.027344 373.085938 330.714844 373.085938 333.402344 C 370.839844 333.402344 368.609375 333.402344 366.367188 333.402344 C 366.367188 335.648438 366.367188 337.878906 366.367188 340.121094 C 368.609375 340.121094 370.839844 340.121094 373.085938 340.121094 Z M 395.925781 325.339844 C 393.238281 325.339844 390.550781 325.339844 387.867188 325.339844 C 387.867188 328.027344 387.867188 330.714844 387.867188 333.402344 C 390.550781 333.402344 393.238281 333.402344 395.925781 333.402344 C 395.925781 330.714844 395.925781 328.027344 395.925781 325.339844 Z M 417.425781 333.402344 C 420.113281 333.402344 422.800781 333.402344 425.488281 333.402344 C 425.488281 330.714844 425.488281 328.027344 425.488281 325.339844 C 422.800781 325.339844 420.113281 325.339844 417.425781 325.339844 C 417.425781 328.027344 417.425781 330.714844 417.425781 333.402344 Z M 455.050781 333.402344 C 455.050781 330.714844 455.050781 328.027344 455.050781 325.339844 C 452.363281 325.339844 449.675781 325.339844 446.988281 325.339844 C 446.988281 328.027344 446.988281 330.714844 446.988281 333.402344 C 449.675781 333.402344 452.363281 333.402344 455.050781 333.402344 Z M 402.644531 333.402344 C 400.402344 333.402344 398.171875 333.402344 395.925781 333.402344 C 395.925781 335.648438 395.925781 337.878906 395.925781 340.121094 C 398.171875 340.121094 400.402344 340.121094 402.644531 340.121094 C 402.644531 337.878906 402.644531 335.648438 402.644531 333.402344 Z M 410.707031 340.121094 C 412.953125 340.121094 415.183594 340.121094 417.425781 340.121094 C 417.425781 337.878906 417.425781 335.648438 417.425781 333.402344 C 415.183594 333.402344 412.953125 333.402344 410.707031 333.402344 C 410.707031 335.648438 410.707031 337.878906 410.707031 340.121094 Z M 432.207031 340.121094 C 432.207031 337.878906 432.207031 335.648438 432.207031 333.402344 C 429.964844 333.402344 427.734375 333.402344 425.488281 333.402344 C 425.488281 335.648438 425.488281 337.878906 425.488281 340.121094 C 427.734375 340.121094 429.964844 340.121094 432.207031 340.121094 Z M 446.988281 333.402344 C 444.746094 333.402344 442.515625 333.402344 440.269531 333.402344 C 440.269531 335.648438 440.269531 337.878906 440.269531 340.121094 C 442.515625 340.121094 444.746094 340.121094 446.988281 340.121094 C 446.988281 337.878906 446.988281 335.648438 446.988281 333.402344 Z M 461.769531 340.121094 C 461.769531 342.808594 461.769531 345.496094 461.769531 348.183594 C 464.457031 348.183594 467.144531 348.183594 469.832031 348.183594 C 469.832031 343.253906 469.832031 338.335938 469.832031 333.402344 C 464.902344 333.402344 459.980469 333.402344 455.050781 333.402344 C 455.050781 335.648438 455.050781 337.878906 455.050781 340.121094 C 457.296875 340.121094 459.527344 340.121094 461.769531 340.121094 Z M 550.453125 384.464844 C 553.140625 384.464844 555.828125 384.464844 558.515625 384.464844 C 558.515625 387.152344 558.515625 389.839844 558.515625 392.527344 C 548.667969 392.527344 538.804688 392.527344 528.957031 392.527344 C 528.957031 394.769531 528.957031 397 528.957031 399.246094 C 521.335938 399.246094 513.730469 399.246094 506.113281 399.246094 C 506.113281 401.933594 506.113281 404.621094 506.113281 407.308594 C 498.949219 407.308594 491.773438 407.308594 484.613281 407.308594 C 484.613281 409.550781 484.613281 411.78125 484.613281 414.027344 C 481.925781 414.027344 479.238281 414.027344 476.550781 414.027344 C 476.550781 416.714844 476.550781 419.402344 476.550781 422.089844 C 471.617188 422.089844 466.699219 422.089844 461.769531 422.089844 C 461.769531 419.402344 461.769531 416.714844 461.769531 414.027344 C 459.527344 414.027344 457.296875 414.027344 455.050781 414.027344 C 455.050781 416.714844 455.050781 419.402344 455.050781 422.089844 C 457.296875 422.089844 459.527344 422.089844 461.769531 422.089844 C 461.769531 424.332031 461.769531 426.5625 461.769531 428.808594 C 459.527344 428.808594 457.296875 428.808594 455.050781 428.808594 C 455.050781 431.496094 455.050781 434.183594 455.050781 436.871094 C 452.363281 436.871094 449.675781 436.871094 446.988281 436.871094 C 446.988281 434.183594 446.988281 431.496094 446.988281 428.808594 C 444.746094 428.808594 442.515625 428.808594 440.269531 428.808594 C 440.269531 431.496094 440.269531 434.183594 440.269531 436.871094 C 442.515625 436.871094 444.746094 436.871094 446.988281 436.871094 C 446.988281 439.113281 446.988281 441.34375 446.988281 443.589844 C 444.746094 443.589844 442.515625 443.589844 440.269531 443.589844 C 440.269531 448.519531 440.269531 453.4375 440.269531 458.371094 C 435.339844 458.371094 430.421875 458.371094 425.488281 458.371094 C 425.488281 461.054688 425.488281 463.742188 425.488281 466.429688 C 427.734375 466.429688 429.964844 466.429688 432.207031 466.429688 C 432.207031 468.675781 432.207031 470.90625 432.207031 473.148438 C 429.964844 473.148438 427.734375 473.148438 425.488281 473.148438 C 425.488281 478.082031 425.488281 483 425.488281 487.929688 C 420.558594 487.929688 415.640625 487.929688 410.707031 487.929688 C 410.707031 490.617188 410.707031 493.304688 410.707031 495.992188 C 408.019531 495.992188 405.332031 495.992188 402.644531 495.992188 C 402.644531 493.304688 402.644531 490.617188 402.644531 487.929688 C 400.402344 487.929688 398.171875 487.929688 395.925781 487.929688 C 395.925781 490.617188 395.925781 493.304688 395.925781 495.992188 C 398.171875 495.992188 400.402344 495.992188 402.644531 495.992188 C 402.644531 498.238281 402.644531 500.46875 402.644531 502.710938 C 400.402344 502.710938 398.171875 502.710938 395.925781 502.710938 C 395.925781 505.398438 395.925781 508.085938 395.925781 510.773438 C 398.171875 510.773438 400.402344 510.773438 402.644531 510.773438 C 402.644531 508.085938 402.644531 505.398438 402.644531 502.710938 C 405.332031 502.710938 408.019531 502.710938 410.707031 502.710938 C 410.707031 505.398438 410.707031 508.085938 410.707031 510.773438 C 412.953125 510.773438 415.183594 510.773438 417.425781 510.773438 C 417.425781 513.019531 417.425781 515.25 417.425781 517.492188 C 415.183594 517.492188 412.953125 517.492188 410.707031 517.492188 C 410.707031 520.179688 410.707031 522.867188 410.707031 525.554688 C 408.019531 525.554688 405.332031 525.554688 402.644531 525.554688 C 402.644531 522.867188 402.644531 520.179688 402.644531 517.492188 C 400.402344 517.492188 398.171875 517.492188 395.925781 517.492188 C 395.925781 520.179688 395.925781 522.867188 395.925781 525.554688 C 398.171875 525.554688 400.402344 525.554688 402.644531 525.554688 C 402.644531 527.800781 402.644531 530.03125 402.644531 532.273438 C 400.402344 532.273438 398.171875 532.273438 395.925781 532.273438 C 395.925781 534.960938 395.925781 537.648438 395.925781 540.335938 C 393.238281 540.335938 390.550781 540.335938 387.867188 540.335938 C 387.867188 527.800781 387.867188 515.25 387.867188 502.710938 C 385.621094 502.710938 383.390625 502.710938 381.148438 502.710938 C 381.148438 495.550781 381.148438 488.375 381.148438 481.210938 C 378.460938 481.210938 375.773438 481.210938 373.085938 481.210938 C 373.085938 476.28125 373.085938 471.363281 373.085938 466.429688 C 370.839844 466.429688 368.609375 466.429688 366.367188 466.429688 C 366.367188 461.5 366.367188 456.582031 366.367188 451.652344 C 363.679688 451.652344 360.992188 451.652344 358.304688 451.652344 C 358.304688 448.964844 358.304688 446.277344 358.304688 443.589844 C 356.058594 443.589844 353.828125 443.589844 351.585938 443.589844 C 351.585938 441.34375 351.585938 439.113281 351.585938 436.871094 C 348.898438 436.871094 346.210938 436.871094 343.523438 436.871094 C 343.523438 434.183594 343.523438 431.496094 343.523438 428.808594 C 341.277344 428.808594 339.046875 428.808594 336.804688 428.808594 C 336.804688 426.5625 336.804688 424.332031 336.804688 422.089844 C 334.117188 422.089844 331.429688 422.089844 328.742188 422.089844 C 328.742188 419.402344 328.742188 416.714844 328.742188 414.027344 C 323.808594 414.027344 318.890625 414.027344 313.960938 414.027344 C 313.960938 411.78125 313.960938 409.550781 313.960938 407.308594 C 309.03125 407.308594 304.113281 407.308594 299.179688 407.308594 C 299.179688 404.621094 299.179688 401.933594 299.179688 399.246094 C 289.332031 399.246094 279.46875 399.246094 269.617188 399.246094 C 269.617188 397 269.617188 394.769531 269.617188 392.527344 C 259.769531 392.527344 249.90625 392.527344 240.058594 392.527344 C 240.058594 389.839844 240.058594 387.152344 240.058594 384.464844 C 237.8125 384.464844 235.582031 384.464844 233.339844 384.464844 C 233.339844 382.222656 233.339844 379.992188 233.339844 377.746094 C 235.582031 377.746094 237.8125 377.746094 240.058594 377.746094 C 240.058594 375.058594 240.058594 372.371094 240.058594 369.683594 C 242.742188 369.683594 245.429688 369.683594 248.117188 369.683594 C 248.117188 372.371094 248.117188 375.058594 248.117188 377.746094 C 250.363281 377.746094 252.59375 377.746094 254.835938 377.746094 C 254.835938 375.058594 254.835938 372.371094 254.835938 369.683594 C 257.523438 369.683594 260.210938 369.683594 262.898438 369.683594 C 262.898438 372.371094 262.898438 375.058594 262.898438 377.746094 C 265.144531 377.746094 267.375 377.746094 269.617188 377.746094 C 269.617188 375.058594 269.617188 372.371094 269.617188 369.683594 C 272.304688 369.683594 274.992188 369.683594 277.679688 369.683594 C 277.679688 372.371094 277.679688 375.058594 277.679688 377.746094 C 279.925781 377.746094 282.15625 377.746094 284.398438 377.746094 C 284.398438 375.058594 284.398438 372.371094 284.398438 369.683594 C 282.15625 369.683594 279.925781 369.683594 277.679688 369.683594 C 277.679688 367.441406 277.679688 365.210938 277.679688 362.964844 C 284.84375 362.964844 292.019531 362.964844 299.179688 362.964844 C 299.179688 365.210938 299.179688 367.441406 299.179688 369.683594 C 296.9375 369.683594 294.707031 369.683594 292.460938 369.683594 C 292.460938 372.371094 292.460938 375.058594 292.460938 377.746094 C 294.707031 377.746094 296.9375 377.746094 299.179688 377.746094 C 299.179688 375.058594 299.179688 372.371094 299.179688 369.683594 C 301.867188 369.683594 304.554688 369.683594 307.242188 369.683594 C 307.242188 372.371094 307.242188 375.058594 307.242188 377.746094 C 309.488281 377.746094 311.71875 377.746094 313.960938 377.746094 C 313.960938 375.058594 313.960938 372.371094 313.960938 369.683594 C 311.71875 369.683594 309.488281 369.683594 307.242188 369.683594 C 307.242188 367.441406 307.242188 365.210938 307.242188 362.964844 C 309.488281 362.964844 311.71875 362.964844 313.960938 362.964844 C 313.960938 360.277344 313.960938 357.589844 313.960938 354.902344 C 316.648438 354.902344 319.335938 354.902344 322.023438 354.902344 C 322.023438 357.589844 322.023438 360.277344 322.023438 362.964844 C 324.265625 362.964844 326.496094 362.964844 328.742188 362.964844 C 328.742188 360.277344 328.742188 357.589844 328.742188 354.902344 C 326.496094 354.902344 324.265625 354.902344 322.023438 354.902344 C 322.023438 352.660156 322.023438 350.429688 322.023438 348.183594 C 324.265625 348.183594 326.496094 348.183594 328.742188 348.183594 C 328.742188 345.496094 328.742188 342.808594 328.742188 340.121094 C 331.429688 340.121094 334.117188 340.121094 336.804688 340.121094 C 336.804688 342.808594 336.804688 345.496094 336.804688 348.183594 C 339.046875 348.183594 341.277344 348.183594 343.523438 348.183594 C 343.523438 350.429688 343.523438 352.660156 343.523438 354.902344 C 341.277344 354.902344 339.046875 354.902344 336.804688 354.902344 C 336.804688 357.589844 336.804688 360.277344 336.804688 362.964844 C 339.046875 362.964844 341.277344 362.964844 343.523438 362.964844 C 343.523438 360.277344 343.523438 357.589844 343.523438 354.902344 C 346.210938 354.902344 348.898438 354.902344 351.585938 354.902344 C 351.585938 357.589844 351.585938 360.277344 351.585938 362.964844 C 353.828125 362.964844 356.058594 362.964844 358.304688 362.964844 C 358.304688 365.210938 358.304688 367.441406 358.304688 369.683594 C 356.058594 369.683594 353.828125 369.683594 351.585938 369.683594 C 351.585938 372.371094 351.585938 375.058594 351.585938 377.746094 C 348.898438 377.746094 346.210938 377.746094 343.523438 377.746094 C 343.523438 375.058594 343.523438 372.371094 343.523438 369.683594 C 341.277344 369.683594 339.046875 369.683594 336.804688 369.683594 C 336.804688 372.371094 336.804688 375.058594 336.804688 377.746094 C 339.046875 377.746094 341.277344 377.746094 343.523438 377.746094 C 343.523438 379.992188 343.523438 382.222656 343.523438 384.464844 C 341.277344 384.464844 339.046875 384.464844 336.804688 384.464844 C 336.804688 387.152344 336.804688 389.839844 336.804688 392.527344 C 339.046875 392.527344 341.277344 392.527344 343.523438 392.527344 C 343.523438 389.839844 343.523438 387.152344 343.523438 384.464844 C 346.210938 384.464844 348.898438 384.464844 351.585938 384.464844 C 351.585938 387.152344 351.585938 389.839844 351.585938 392.527344 C 353.828125 392.527344 356.058594 392.527344 358.304688 392.527344 C 358.304688 389.839844 358.304688 387.152344 358.304688 384.464844 C 356.058594 384.464844 353.828125 384.464844 351.585938 384.464844 C 351.585938 382.222656 351.585938 379.992188 351.585938 377.746094 C 353.828125 377.746094 356.058594 377.746094 358.304688 377.746094 C 358.304688 375.058594 358.304688 372.371094 358.304688 369.683594 C 360.992188 369.683594 363.679688 369.683594 366.367188 369.683594 C 366.367188 372.371094 366.367188 375.058594 366.367188 377.746094 C 368.609375 377.746094 370.839844 377.746094 373.085938 377.746094 C 373.085938 379.992188 373.085938 382.222656 373.085938 384.464844 C 370.839844 384.464844 368.609375 384.464844 366.367188 384.464844 C 366.367188 387.152344 366.367188 389.839844 366.367188 392.527344 C 368.609375 392.527344 370.839844 392.527344 373.085938 392.527344 C 373.085938 389.839844 373.085938 387.152344 373.085938 384.464844 C 375.773438 384.464844 378.460938 384.464844 381.148438 384.464844 C 381.148438 387.152344 381.148438 389.839844 381.148438 392.527344 C 383.390625 392.527344 385.621094 392.527344 387.867188 392.527344 C 387.867188 394.769531 387.867188 397 387.867188 399.246094 C 385.621094 399.246094 383.390625 399.246094 381.148438 399.246094 C 381.148438 401.933594 381.148438 404.621094 381.148438 407.308594 C 383.390625 407.308594 385.621094 407.308594 387.867188 407.308594 C 387.867188 404.621094 387.867188 401.933594 387.867188 399.246094 C 390.550781 399.246094 393.238281 399.246094 395.925781 399.246094 C 395.925781 401.933594 395.925781 404.621094 395.925781 407.308594 C 398.171875 407.308594 400.402344 407.308594 402.644531 407.308594 C 402.644531 409.550781 402.644531 411.78125 402.644531 414.027344 C 400.402344 414.027344 398.171875 414.027344 395.925781 414.027344 C 395.925781 416.714844 395.925781 419.402344 395.925781 422.089844 C 398.171875 422.089844 400.402344 422.089844 402.644531 422.089844 C 402.644531 419.402344 402.644531 416.714844 402.644531 414.027344 C 405.332031 414.027344 408.019531 414.027344 410.707031 414.027344 C 410.707031 416.714844 410.707031 419.402344 410.707031 422.089844 C 412.953125 422.089844 415.183594 422.089844 417.425781 422.089844 C 417.425781 419.402344 417.425781 416.714844 417.425781 414.027344 C 415.183594 414.027344 412.953125 414.027344 410.707031 414.027344 C 410.707031 411.78125 410.707031 409.550781 410.707031 407.308594 C 412.953125 407.308594 415.183594 407.308594 417.425781 407.308594 C 417.425781 404.621094 417.425781 401.933594 417.425781 399.246094 C 420.113281 399.246094 422.800781 399.246094 425.488281 399.246094 C 425.488281 401.933594 425.488281 404.621094 425.488281 407.308594 C 427.734375 407.308594 429.964844 407.308594 432.207031 407.308594 C 432.207031 409.550781 432.207031 411.78125 432.207031 414.027344 C 429.964844 414.027344 427.734375 414.027344 425.488281 414.027344 C 425.488281 416.714844 425.488281 419.402344 425.488281 422.089844 C 427.734375 422.089844 429.964844 422.089844 432.207031 422.089844 C 432.207031 419.402344 432.207031 416.714844 432.207031 414.027344 C 434.894531 414.027344 437.582031 414.027344 440.269531 414.027344 C 440.269531 411.78125 440.269531 409.550781 440.269531 407.308594 C 442.515625 407.308594 444.746094 407.308594 446.988281 407.308594 C 446.988281 404.621094 446.988281 401.933594 446.988281 399.246094 C 449.675781 399.246094 452.363281 399.246094 455.050781 399.246094 C 455.050781 401.933594 455.050781 404.621094 455.050781 407.308594 C 457.296875 407.308594 459.527344 407.308594 461.769531 407.308594 C 461.769531 404.621094 461.769531 401.933594 461.769531 399.246094 C 459.527344 399.246094 457.296875 399.246094 455.050781 399.246094 C 455.050781 397 455.050781 394.769531 455.050781 392.527344 C 457.296875 392.527344 459.527344 392.527344 461.769531 392.527344 C 461.769531 389.839844 461.769531 387.152344 461.769531 384.464844 C 464.457031 384.464844 467.144531 384.464844 469.832031 384.464844 C 469.832031 387.152344 469.832031 389.839844 469.832031 392.527344 C 472.074219 392.527344 474.304688 392.527344 476.550781 392.527344 C 476.550781 389.839844 476.550781 387.152344 476.550781 384.464844 C 479.238281 384.464844 481.925781 384.464844 484.613281 384.464844 C 484.613281 387.152344 484.613281 389.839844 484.613281 392.527344 C 486.855469 392.527344 489.085938 392.527344 491.332031 392.527344 C 491.332031 389.839844 491.332031 387.152344 491.332031 384.464844 C 494.019531 384.464844 496.707031 384.464844 499.394531 384.464844 C 499.394531 387.152344 499.394531 389.839844 499.394531 392.527344 C 501.636719 392.527344 503.867188 392.527344 506.113281 392.527344 C 506.113281 389.839844 506.113281 387.152344 506.113281 384.464844 C 508.800781 384.464844 511.488281 384.464844 514.175781 384.464844 C 514.175781 387.152344 514.175781 389.839844 514.175781 392.527344 C 516.417969 392.527344 518.648438 392.527344 520.894531 392.527344 C 520.894531 389.839844 520.894531 387.152344 520.894531 384.464844 C 523.582031 384.464844 526.269531 384.464844 528.957031 384.464844 C 528.957031 382.222656 528.957031 379.992188 528.957031 377.746094 C 531.199219 377.746094 533.429688 377.746094 535.675781 377.746094 C 535.675781 379.992188 535.675781 382.222656 535.675781 384.464844 C 538.359375 384.464844 541.046875 384.464844 543.734375 384.464844 C 543.734375 382.222656 543.734375 379.992188 543.734375 377.746094 C 545.980469 377.746094 548.210938 377.746094 550.453125 377.746094 C 550.453125 379.992188 550.453125 382.222656 550.453125 384.464844 Z M 313.960938 384.464844 C 311.71875 384.464844 309.488281 384.464844 307.242188 384.464844 C 307.242188 387.152344 307.242188 389.839844 307.242188 392.527344 C 309.488281 392.527344 311.71875 392.527344 313.960938 392.527344 C 313.960938 389.839844 313.960938 387.152344 313.960938 384.464844 Z M 328.742188 369.683594 C 326.496094 369.683594 324.265625 369.683594 322.023438 369.683594 C 322.023438 372.371094 322.023438 375.058594 322.023438 377.746094 C 324.265625 377.746094 326.496094 377.746094 328.742188 377.746094 C 328.742188 375.058594 328.742188 372.371094 328.742188 369.683594 Z M 358.304688 399.246094 C 356.058594 399.246094 353.828125 399.246094 351.585938 399.246094 C 351.585938 401.933594 351.585938 404.621094 351.585938 407.308594 C 353.828125 407.308594 356.058594 407.308594 358.304688 407.308594 C 358.304688 404.621094 358.304688 401.933594 358.304688 399.246094 Z M 373.085938 414.027344 C 370.839844 414.027344 368.609375 414.027344 366.367188 414.027344 C 366.367188 416.714844 366.367188 419.402344 366.367188 422.089844 C 368.609375 422.089844 370.839844 422.089844 373.085938 422.089844 C 373.085938 419.402344 373.085938 416.714844 373.085938 414.027344 Z M 373.085938 399.246094 C 370.839844 399.246094 368.609375 399.246094 366.367188 399.246094 C 366.367188 401.933594 366.367188 404.621094 366.367188 407.308594 C 368.609375 407.308594 370.839844 407.308594 373.085938 407.308594 C 373.085938 404.621094 373.085938 401.933594 373.085938 399.246094 Z M 387.867188 428.808594 C 385.621094 428.808594 383.390625 428.808594 381.148438 428.808594 C 381.148438 431.496094 381.148438 434.183594 381.148438 436.871094 C 383.390625 436.871094 385.621094 436.871094 387.867188 436.871094 C 387.867188 434.183594 387.867188 431.496094 387.867188 428.808594 Z M 402.644531 473.148438 C 400.402344 473.148438 398.171875 473.148438 395.925781 473.148438 C 395.925781 475.835938 395.925781 478.523438 395.925781 481.210938 C 398.171875 481.210938 400.402344 481.210938 402.644531 481.210938 C 402.644531 478.523438 402.644531 475.835938 402.644531 473.148438 Z M 402.644531 443.589844 C 400.402344 443.589844 398.171875 443.589844 395.925781 443.589844 C 395.925781 446.277344 395.925781 448.964844 395.925781 451.652344 C 398.171875 451.652344 400.402344 451.652344 402.644531 451.652344 C 402.644531 448.964844 402.644531 446.277344 402.644531 443.589844 Z M 402.644531 428.808594 C 400.402344 428.808594 398.171875 428.808594 395.925781 428.808594 C 395.925781 431.496094 395.925781 434.183594 395.925781 436.871094 C 398.171875 436.871094 400.402344 436.871094 402.644531 436.871094 C 402.644531 434.183594 402.644531 431.496094 402.644531 428.808594 Z M 417.425781 473.148438 C 415.183594 473.148438 412.953125 473.148438 410.707031 473.148438 C 410.707031 475.835938 410.707031 478.523438 410.707031 481.210938 C 412.953125 481.210938 415.183594 481.210938 417.425781 481.210938 C 417.425781 478.523438 417.425781 475.835938 417.425781 473.148438 Z M 417.425781 458.371094 C 415.183594 458.371094 412.953125 458.371094 410.707031 458.371094 C 410.707031 461.054688 410.707031 463.742188 410.707031 466.429688 C 412.953125 466.429688 415.183594 466.429688 417.425781 466.429688 C 417.425781 463.742188 417.425781 461.054688 417.425781 458.371094 Z M 417.425781 443.589844 C 415.183594 443.589844 412.953125 443.589844 410.707031 443.589844 C 410.707031 446.277344 410.707031 448.964844 410.707031 451.652344 C 412.953125 451.652344 415.183594 451.652344 417.425781 451.652344 C 417.425781 448.964844 417.425781 446.277344 417.425781 443.589844 Z M 417.425781 428.808594 C 415.183594 428.808594 412.953125 428.808594 410.707031 428.808594 C 410.707031 431.496094 410.707031 434.183594 410.707031 436.871094 C 412.953125 436.871094 415.183594 436.871094 417.425781 436.871094 C 417.425781 434.183594 417.425781 431.496094 417.425781 428.808594 Z M 432.207031 443.589844 C 429.964844 443.589844 427.734375 443.589844 425.488281 443.589844 C 425.488281 446.277344 425.488281 448.964844 425.488281 451.652344 C 427.734375 451.652344 429.964844 451.652344 432.207031 451.652344 C 432.207031 448.964844 432.207031 446.277344 432.207031 443.589844 Z M 432.207031 428.808594 C 429.964844 428.808594 427.734375 428.808594 425.488281 428.808594 C 425.488281 431.496094 425.488281 434.183594 425.488281 436.871094 C 427.734375 436.871094 429.964844 436.871094 432.207031 436.871094 C 432.207031 434.183594 432.207031 431.496094 432.207031 428.808594 Z M 476.550781 399.246094 C 474.304688 399.246094 472.074219 399.246094 469.832031 399.246094 C 469.832031 401.933594 469.832031 404.621094 469.832031 407.308594 C 472.074219 407.308594 474.304688 407.308594 476.550781 407.308594 C 476.550781 404.621094 476.550781 401.933594 476.550781 399.246094 Z M 366.367188 348.183594 C 366.367188 345.496094 366.367188 342.808594 366.367188 340.121094 C 363.679688 340.121094 360.992188 340.121094 358.304688 340.121094 C 358.304688 342.808594 358.304688 345.496094 358.304688 348.183594 C 360.992188 348.183594 363.679688 348.183594 366.367188 348.183594 Z M 395.925781 348.183594 C 395.925781 345.496094 395.925781 342.808594 395.925781 340.121094 C 393.238281 340.121094 390.550781 340.121094 387.867188 340.121094 C 387.867188 342.808594 387.867188 345.496094 387.867188 348.183594 C 390.550781 348.183594 393.238281 348.183594 395.925781 348.183594 Z M 402.644531 348.183594 C 405.332031 348.183594 408.019531 348.183594 410.707031 348.183594 C 410.707031 345.496094 410.707031 342.808594 410.707031 340.121094 C 408.019531 340.121094 405.332031 340.121094 402.644531 340.121094 C 402.644531 342.808594 402.644531 345.496094 402.644531 348.183594 Z M 440.269531 348.183594 C 440.269531 345.496094 440.269531 342.808594 440.269531 340.121094 C 437.582031 340.121094 434.894531 340.121094 432.207031 340.121094 C 432.207031 342.808594 432.207031 345.496094 432.207031 348.183594 C 434.894531 348.183594 437.582031 348.183594 440.269531 348.183594 Z M 455.050781 348.183594 C 455.050781 345.496094 455.050781 342.808594 455.050781 340.121094 C 452.363281 340.121094 449.675781 340.121094 446.988281 340.121094 C 446.988281 342.808594 446.988281 345.496094 446.988281 348.183594 C 449.675781 348.183594 452.363281 348.183594 455.050781 348.183594 Z M 313.960938 348.183594 C 311.71875 348.183594 309.488281 348.183594 307.242188 348.183594 C 307.242188 350.429688 307.242188 352.660156 307.242188 354.902344 C 309.488281 354.902344 311.71875 354.902344 313.960938 354.902344 C 313.960938 352.660156 313.960938 350.429688 313.960938 348.183594 Z M 358.304688 348.183594 C 356.058594 348.183594 353.828125 348.183594 351.585938 348.183594 C 351.585938 350.429688 351.585938 352.660156 351.585938 354.902344 C 353.828125 354.902344 356.058594 354.902344 358.304688 354.902344 C 358.304688 352.660156 358.304688 350.429688 358.304688 348.183594 Z M 366.367188 348.183594 C 366.367188 350.429688 366.367188 352.660156 366.367188 354.902344 C 368.609375 354.902344 370.839844 354.902344 373.085938 354.902344 C 373.085938 352.660156 373.085938 350.429688 373.085938 348.183594 C 370.839844 348.183594 368.609375 348.183594 366.367188 348.183594 Z M 387.867188 348.183594 C 385.621094 348.183594 383.390625 348.183594 381.148438 348.183594 C 381.148438 350.429688 381.148438 352.660156 381.148438 354.902344 C 383.390625 354.902344 385.621094 354.902344 387.867188 354.902344 C 387.867188 352.660156 387.867188 350.429688 387.867188 348.183594 Z M 395.925781 354.902344 C 398.171875 354.902344 400.402344 354.902344 402.644531 354.902344 C 402.644531 352.660156 402.644531 350.429688 402.644531 348.183594 C 400.402344 348.183594 398.171875 348.183594 395.925781 348.183594 C 395.925781 350.429688 395.925781 352.660156 395.925781 354.902344 Z M 425.488281 354.902344 C 427.734375 354.902344 429.964844 354.902344 432.207031 354.902344 C 432.207031 352.660156 432.207031 350.429688 432.207031 348.183594 C 429.964844 348.183594 427.734375 348.183594 425.488281 348.183594 C 425.488281 350.429688 425.488281 352.660156 425.488281 354.902344 Z M 440.269531 348.183594 C 440.269531 350.429688 440.269531 352.660156 440.269531 354.902344 C 442.515625 354.902344 444.746094 354.902344 446.988281 354.902344 C 446.988281 352.660156 446.988281 350.429688 446.988281 348.183594 C 444.746094 348.183594 442.515625 348.183594 440.269531 348.183594 Z M 455.050781 354.902344 C 457.296875 354.902344 459.527344 354.902344 461.769531 354.902344 C 461.769531 352.660156 461.769531 350.429688 461.769531 348.183594 C 459.527344 348.183594 457.296875 348.183594 455.050781 348.183594 C 455.050781 350.429688 455.050781 352.660156 455.050781 354.902344 Z M 476.550781 354.902344 C 476.550781 352.660156 476.550781 350.429688 476.550781 348.183594 C 474.304688 348.183594 472.074219 348.183594 469.832031 348.183594 C 469.832031 350.429688 469.832031 352.660156 469.832031 354.902344 C 472.074219 354.902344 474.304688 354.902344 476.550781 354.902344 Z M 491.332031 348.183594 C 489.085938 348.183594 486.855469 348.183594 484.613281 348.183594 C 484.613281 350.429688 484.613281 352.660156 484.613281 354.902344 C 486.855469 354.902344 489.085938 354.902344 491.332031 354.902344 C 491.332031 352.660156 491.332031 350.429688 491.332031 348.183594 Z M 307.242188 354.902344 C 304.554688 354.902344 301.867188 354.902344 299.179688 354.902344 C 299.179688 357.589844 299.179688 360.277344 299.179688 362.964844 C 301.867188 362.964844 304.554688 362.964844 307.242188 362.964844 C 307.242188 360.277344 307.242188 357.589844 307.242188 354.902344 Z M 366.367188 354.902344 C 363.679688 354.902344 360.992188 354.902344 358.304688 354.902344 C 358.304688 357.589844 358.304688 360.277344 358.304688 362.964844 C 360.992188 362.964844 363.679688 362.964844 366.367188 362.964844 C 366.367188 360.277344 366.367188 357.589844 366.367188 354.902344 Z M 381.148438 369.683594 C 383.390625 369.683594 385.621094 369.683594 387.867188 369.683594 C 387.867188 367.441406 387.867188 365.210938 387.867188 362.964844 C 385.621094 362.964844 383.390625 362.964844 381.148438 362.964844 C 381.148438 360.277344 381.148438 357.589844 381.148438 354.902344 C 378.460938 354.902344 375.773438 354.902344 373.085938 354.902344 C 373.085938 357.589844 373.085938 360.277344 373.085938 362.964844 C 370.839844 362.964844 368.609375 362.964844 366.367188 362.964844 C 366.367188 365.210938 366.367188 367.441406 366.367188 369.683594 C 368.609375 369.683594 370.839844 369.683594 373.085938 369.683594 C 373.085938 372.371094 373.085938 375.058594 373.085938 377.746094 C 375.773438 377.746094 378.460938 377.746094 381.148438 377.746094 C 381.148438 375.058594 381.148438 372.371094 381.148438 369.683594 Z M 395.925781 354.902344 C 393.238281 354.902344 390.550781 354.902344 387.867188 354.902344 C 387.867188 357.589844 387.867188 360.277344 387.867188 362.964844 C 390.550781 362.964844 393.238281 362.964844 395.925781 362.964844 C 395.925781 360.277344 395.925781 357.589844 395.925781 354.902344 Z M 446.988281 362.964844 C 449.675781 362.964844 452.363281 362.964844 455.050781 362.964844 C 455.050781 360.277344 455.050781 357.589844 455.050781 354.902344 C 452.363281 354.902344 449.675781 354.902344 446.988281 354.902344 C 446.988281 357.589844 446.988281 360.277344 446.988281 362.964844 Z M 484.613281 362.964844 C 484.613281 360.277344 484.613281 357.589844 484.613281 354.902344 C 481.925781 354.902344 479.238281 354.902344 476.550781 354.902344 C 476.550781 357.589844 476.550781 360.277344 476.550781 362.964844 C 479.238281 362.964844 481.925781 362.964844 484.613281 362.964844 Z M 269.617188 362.964844 C 267.375 362.964844 265.144531 362.964844 262.898438 362.964844 C 262.898438 365.210938 262.898438 367.441406 262.898438 369.683594 C 265.144531 369.683594 267.375 369.683594 269.617188 369.683594 C 269.617188 367.441406 269.617188 365.210938 269.617188 362.964844 Z M 402.644531 369.683594 C 402.644531 367.441406 402.644531 365.210938 402.644531 362.964844 C 400.402344 362.964844 398.171875 362.964844 395.925781 362.964844 C 395.925781 365.210938 395.925781 367.441406 395.925781 369.683594 C 398.171875 369.683594 400.402344 369.683594 402.644531 369.683594 Z M 417.425781 362.964844 C 415.183594 362.964844 412.953125 362.964844 410.707031 362.964844 C 410.707031 365.210938 410.707031 367.441406 410.707031 369.683594 C 412.953125 369.683594 415.183594 369.683594 417.425781 369.683594 C 417.425781 367.441406 417.425781 365.210938 417.425781 362.964844 Z M 432.207031 362.964844 C 429.964844 362.964844 427.734375 362.964844 425.488281 362.964844 C 425.488281 365.210938 425.488281 367.441406 425.488281 369.683594 C 427.734375 369.683594 429.964844 369.683594 432.207031 369.683594 C 432.207031 367.441406 432.207031 365.210938 432.207031 362.964844 Z M 446.988281 362.964844 C 444.746094 362.964844 442.515625 362.964844 440.269531 362.964844 C 440.269531 365.210938 440.269531 367.441406 440.269531 369.683594 C 442.515625 369.683594 444.746094 369.683594 446.988281 369.683594 C 446.988281 367.441406 446.988281 365.210938 446.988281 362.964844 Z M 461.769531 369.683594 C 461.769531 367.441406 461.769531 365.210938 461.769531 362.964844 C 459.527344 362.964844 457.296875 362.964844 455.050781 362.964844 C 455.050781 365.210938 455.050781 367.441406 455.050781 369.683594 C 457.296875 369.683594 459.527344 369.683594 461.769531 369.683594 Z M 476.550781 362.964844 C 474.304688 362.964844 472.074219 362.964844 469.832031 362.964844 C 469.832031 365.210938 469.832031 367.441406 469.832031 369.683594 C 472.074219 369.683594 474.304688 369.683594 476.550781 369.683594 C 476.550781 367.441406 476.550781 365.210938 476.550781 362.964844 Z M 491.332031 369.683594 C 491.332031 367.441406 491.332031 365.210938 491.332031 362.964844 C 489.085938 362.964844 486.855469 362.964844 484.613281 362.964844 C 484.613281 365.210938 484.613281 367.441406 484.613281 369.683594 C 486.855469 369.683594 489.085938 369.683594 491.332031 369.683594 Z M 506.113281 362.964844 C 503.867188 362.964844 501.636719 362.964844 499.394531 362.964844 C 499.394531 365.210938 499.394531 367.441406 499.394531 369.683594 C 501.636719 369.683594 503.867188 369.683594 506.113281 369.683594 C 506.113281 367.441406 506.113281 365.210938 506.113281 362.964844 Z M 520.894531 362.964844 C 518.648438 362.964844 516.417969 362.964844 514.175781 362.964844 C 514.175781 365.210938 514.175781 367.441406 514.175781 369.683594 C 516.417969 369.683594 518.648438 369.683594 520.894531 369.683594 C 520.894531 367.441406 520.894531 365.210938 520.894531 362.964844 Z M 535.675781 362.964844 C 533.429688 362.964844 531.199219 362.964844 528.957031 362.964844 C 528.957031 365.210938 528.957031 367.441406 528.957031 369.683594 C 531.199219 369.683594 533.429688 369.683594 535.675781 369.683594 C 535.675781 367.441406 535.675781 365.210938 535.675781 362.964844 Z M 225.277344 369.683594 C 225.277344 372.371094 225.277344 375.058594 225.277344 377.746094 C 227.964844 377.746094 230.652344 377.746094 233.339844 377.746094 C 233.339844 375.058594 233.339844 372.371094 233.339844 369.683594 C 230.652344 369.683594 227.964844 369.683594 225.277344 369.683594 Z M 395.925781 369.683594 C 393.238281 369.683594 390.550781 369.683594 387.867188 369.683594 C 387.867188 372.371094 387.867188 375.058594 387.867188 377.746094 C 390.550781 377.746094 393.238281 377.746094 395.925781 377.746094 C 395.925781 375.058594 395.925781 372.371094 395.925781 369.683594 Z M 410.707031 377.746094 C 410.707031 375.058594 410.707031 372.371094 410.707031 369.683594 C 408.019531 369.683594 405.332031 369.683594 402.644531 369.683594 C 402.644531 372.371094 402.644531 375.058594 402.644531 377.746094 C 405.332031 377.746094 408.019531 377.746094 410.707031 377.746094 Z M 425.488281 377.746094 C 425.488281 375.058594 425.488281 372.371094 425.488281 369.683594 C 422.800781 369.683594 420.113281 369.683594 417.425781 369.683594 C 417.425781 372.371094 417.425781 375.058594 417.425781 377.746094 C 420.113281 377.746094 422.800781 377.746094 425.488281 377.746094 Z M 440.269531 377.746094 C 440.269531 375.058594 440.269531 372.371094 440.269531 369.683594 C 437.582031 369.683594 434.894531 369.683594 432.207031 369.683594 C 432.207031 372.371094 432.207031 375.058594 432.207031 377.746094 C 434.894531 377.746094 437.582031 377.746094 440.269531 377.746094 Z M 446.988281 369.683594 C 446.988281 372.371094 446.988281 375.058594 446.988281 377.746094 C 449.675781 377.746094 452.363281 377.746094 455.050781 377.746094 C 455.050781 375.058594 455.050781 372.371094 455.050781 369.683594 C 452.363281 369.683594 449.675781 369.683594 446.988281 369.683594 Z M 469.832031 377.746094 C 469.832031 375.058594 469.832031 372.371094 469.832031 369.683594 C 467.144531 369.683594 464.457031 369.683594 461.769531 369.683594 C 461.769531 372.371094 461.769531 375.058594 461.769531 377.746094 C 464.457031 377.746094 467.144531 377.746094 469.832031 377.746094 Z M 484.613281 377.746094 C 484.613281 375.058594 484.613281 372.371094 484.613281 369.683594 C 481.925781 369.683594 479.238281 369.683594 476.550781 369.683594 C 476.550781 372.371094 476.550781 375.058594 476.550781 377.746094 C 479.238281 377.746094 481.925781 377.746094 484.613281 377.746094 Z M 499.394531 377.746094 C 499.394531 375.058594 499.394531 372.371094 499.394531 369.683594 C 496.707031 369.683594 494.019531 369.683594 491.332031 369.683594 C 491.332031 372.371094 491.332031 375.058594 491.332031 377.746094 C 494.019531 377.746094 496.707031 377.746094 499.394531 377.746094 Z M 514.175781 377.746094 C 514.175781 375.058594 514.175781 372.371094 514.175781 369.683594 C 511.488281 369.683594 508.800781 369.683594 506.113281 369.683594 C 506.113281 372.371094 506.113281 375.058594 506.113281 377.746094 C 508.800781 377.746094 511.488281 377.746094 514.175781 377.746094 Z M 528.957031 377.746094 C 528.957031 375.058594 528.957031 372.371094 528.957031 369.683594 C 526.269531 369.683594 523.582031 369.683594 520.894531 369.683594 C 520.894531 372.371094 520.894531 375.058594 520.894531 377.746094 C 523.582031 377.746094 526.269531 377.746094 528.957031 377.746094 Z M 543.734375 377.746094 C 543.734375 375.058594 543.734375 372.371094 543.734375 369.683594 C 541.046875 369.683594 538.359375 369.683594 535.675781 369.683594 C 535.675781 372.371094 535.675781 375.058594 535.675781 377.746094 C 538.359375 377.746094 541.046875 377.746094 543.734375 377.746094 Z M 558.515625 369.683594 C 555.828125 369.683594 553.140625 369.683594 550.453125 369.683594 C 550.453125 372.371094 550.453125 375.058594 550.453125 377.746094 C 553.140625 377.746094 555.828125 377.746094 558.515625 377.746094 C 558.515625 375.058594 558.515625 372.371094 558.515625 369.683594 Z M 565.234375 369.683594 C 565.234375 372.371094 565.234375 375.058594 565.234375 377.746094 C 567.921875 377.746094 570.609375 377.746094 573.296875 377.746094 C 573.296875 375.058594 573.296875 372.371094 573.296875 369.683594 C 570.609375 369.683594 567.921875 369.683594 565.234375 369.683594 Z M 144.652344 384.464844 C 171.527344 384.464844 198.402344 384.464844 225.277344 384.464844 C 225.277344 382.222656 225.277344 379.992188 225.277344 377.746094 C 198.402344 377.746094 171.527344 377.746094 144.652344 377.746094 C 144.652344 379.992188 144.652344 382.222656 144.652344 384.464844 Z M 387.867188 377.746094 C 385.621094 377.746094 383.390625 377.746094 381.148438 377.746094 C 381.148438 379.992188 381.148438 382.222656 381.148438 384.464844 C 383.390625 384.464844 385.621094 384.464844 387.867188 384.464844 C 387.867188 382.222656 387.867188 379.992188 387.867188 377.746094 Z M 395.925781 377.746094 C 395.925781 379.992188 395.925781 382.222656 395.925781 384.464844 C 398.171875 384.464844 400.402344 384.464844 402.644531 384.464844 C 402.644531 382.222656 402.644531 379.992188 402.644531 377.746094 C 400.402344 377.746094 398.171875 377.746094 395.925781 377.746094 Z M 417.425781 377.746094 C 415.183594 377.746094 412.953125 377.746094 410.707031 377.746094 C 410.707031 379.992188 410.707031 382.222656 410.707031 384.464844 C 412.953125 384.464844 415.183594 384.464844 417.425781 384.464844 C 417.425781 382.222656 417.425781 379.992188 417.425781 377.746094 Z M 425.488281 377.746094 C 425.488281 379.992188 425.488281 382.222656 425.488281 384.464844 C 427.734375 384.464844 429.964844 384.464844 432.207031 384.464844 C 432.207031 382.222656 432.207031 379.992188 432.207031 377.746094 C 429.964844 377.746094 427.734375 377.746094 425.488281 377.746094 Z M 440.269531 377.746094 C 440.269531 379.992188 440.269531 382.222656 440.269531 384.464844 C 442.515625 384.464844 444.746094 384.464844 446.988281 384.464844 C 446.988281 382.222656 446.988281 379.992188 446.988281 377.746094 C 444.746094 377.746094 442.515625 377.746094 440.269531 377.746094 Z M 455.050781 377.746094 C 455.050781 379.992188 455.050781 382.222656 455.050781 384.464844 C 457.296875 384.464844 459.527344 384.464844 461.769531 384.464844 C 461.769531 382.222656 461.769531 379.992188 461.769531 377.746094 C 459.527344 377.746094 457.296875 377.746094 455.050781 377.746094 Z M 469.832031 377.746094 C 469.832031 379.992188 469.832031 382.222656 469.832031 384.464844 C 472.074219 384.464844 474.304688 384.464844 476.550781 384.464844 C 476.550781 382.222656 476.550781 379.992188 476.550781 377.746094 C 474.304688 377.746094 472.074219 377.746094 469.832031 377.746094 Z M 484.613281 377.746094 C 484.613281 379.992188 484.613281 382.222656 484.613281 384.464844 C 486.855469 384.464844 489.085938 384.464844 491.332031 384.464844 C 491.332031 382.222656 491.332031 379.992188 491.332031 377.746094 C 489.085938 377.746094 486.855469 377.746094 484.613281 377.746094 Z M 499.394531 377.746094 C 499.394531 379.992188 499.394531 382.222656 499.394531 384.464844 C 501.636719 384.464844 503.867188 384.464844 506.113281 384.464844 C 506.113281 382.222656 506.113281 379.992188 506.113281 377.746094 C 503.867188 377.746094 501.636719 377.746094 499.394531 377.746094 Z M 514.175781 377.746094 C 514.175781 379.992188 514.175781 382.222656 514.175781 384.464844 C 516.417969 384.464844 518.648438 384.464844 520.894531 384.464844 C 520.894531 382.222656 520.894531 379.992188 520.894531 377.746094 C 518.648438 377.746094 516.417969 377.746094 514.175781 377.746094 Z M 558.515625 384.464844 C 560.761719 384.464844 562.992188 384.464844 565.234375 384.464844 C 565.234375 382.222656 565.234375 379.992188 565.234375 377.746094 C 562.992188 377.746094 560.761719 377.746094 558.515625 377.746094 C 558.515625 379.992188 558.515625 382.222656 558.515625 384.464844 Z M 573.296875 384.464844 C 575.542969 384.464844 577.773438 384.464844 580.015625 384.464844 C 580.015625 382.222656 580.015625 379.992188 580.015625 377.746094 C 577.773438 377.746094 575.542969 377.746094 573.296875 377.746094 C 573.296875 379.992188 573.296875 382.222656 573.296875 384.464844 Z M 588.078125 384.464844 C 595.242188 384.464844 602.417969 384.464844 609.578125 384.464844 C 609.578125 382.222656 609.578125 379.992188 609.578125 377.746094 C 602.417969 377.746094 595.242188 377.746094 588.078125 377.746094 C 588.078125 379.992188 588.078125 382.222656 588.078125 384.464844 Z M 617.640625 384.464844 C 629.734375 384.464844 641.828125 384.464844 653.921875 384.464844 C 653.921875 382.222656 653.921875 379.992188 653.921875 377.746094 C 641.828125 377.746094 629.734375 377.746094 617.640625 377.746094 C 617.640625 379.992188 617.640625 382.222656 617.640625 384.464844 Z M 395.925781 384.464844 C 393.238281 384.464844 390.550781 384.464844 387.867188 384.464844 C 387.867188 387.152344 387.867188 389.839844 387.867188 392.527344 C 390.550781 392.527344 393.238281 392.527344 395.925781 392.527344 C 395.925781 389.839844 395.925781 387.152344 395.925781 384.464844 Z M 410.707031 392.527344 C 410.707031 389.839844 410.707031 387.152344 410.707031 384.464844 C 408.019531 384.464844 405.332031 384.464844 402.644531 384.464844 C 402.644531 387.152344 402.644531 389.839844 402.644531 392.527344 C 400.402344 392.527344 398.171875 392.527344 395.925781 392.527344 C 395.925781 394.769531 395.925781 397 395.925781 399.246094 C 398.171875 399.246094 400.402344 399.246094 402.644531 399.246094 C 402.644531 401.933594 402.644531 404.621094 402.644531 407.308594 C 405.332031 407.308594 408.019531 407.308594 410.707031 407.308594 C 410.707031 404.621094 410.707031 401.933594 410.707031 399.246094 C 412.953125 399.246094 415.183594 399.246094 417.425781 399.246094 C 417.425781 397 417.425781 394.769531 417.425781 392.527344 C 415.183594 392.527344 412.953125 392.527344 410.707031 392.527344 Z M 417.425781 384.464844 C 417.425781 387.152344 417.425781 389.839844 417.425781 392.527344 C 420.113281 392.527344 422.800781 392.527344 425.488281 392.527344 C 425.488281 389.839844 425.488281 387.152344 425.488281 384.464844 C 422.800781 384.464844 420.113281 384.464844 417.425781 384.464844 Z M 440.269531 392.527344 C 440.269531 389.839844 440.269531 387.152344 440.269531 384.464844 C 437.582031 384.464844 434.894531 384.464844 432.207031 384.464844 C 432.207031 387.152344 432.207031 389.839844 432.207031 392.527344 C 429.964844 392.527344 427.734375 392.527344 425.488281 392.527344 C 425.488281 394.769531 425.488281 397 425.488281 399.246094 C 427.734375 399.246094 429.964844 399.246094 432.207031 399.246094 C 432.207031 401.933594 432.207031 404.621094 432.207031 407.308594 C 434.894531 407.308594 437.582031 407.308594 440.269531 407.308594 C 440.269531 404.621094 440.269531 401.933594 440.269531 399.246094 C 442.515625 399.246094 444.746094 399.246094 446.988281 399.246094 C 446.988281 397 446.988281 394.769531 446.988281 392.527344 C 444.746094 392.527344 442.515625 392.527344 440.269531 392.527344 Z M 446.988281 384.464844 C 446.988281 387.152344 446.988281 389.839844 446.988281 392.527344 C 449.675781 392.527344 452.363281 392.527344 455.050781 392.527344 C 455.050781 389.839844 455.050781 387.152344 455.050781 384.464844 C 452.363281 384.464844 449.675781 384.464844 446.988281 384.464844 Z M 417.425781 502.710938 C 417.425781 500.46875 417.425781 498.238281 417.425781 495.992188 C 415.183594 495.992188 412.953125 495.992188 410.707031 495.992188 C 410.707031 498.238281 410.707031 500.46875 410.707031 502.710938 C 412.953125 502.710938 415.183594 502.710938 417.425781 502.710938 Z M 584.71875 104.300781 C 584.71875 109.230469 584.71875 114.148438 584.71875 119.082031 C 586.964844 119.082031 589.195312 119.082031 591.4375 119.082031 C 591.4375 114.148438 591.4375 109.230469 591.4375 104.300781 C 589.195312 104.300781 586.964844 104.300781 584.71875 104.300781 Z M 395.925781 540.335938 C 395.925781 542.578125 395.925781 544.808594 395.925781 547.054688 C 398.171875 547.054688 400.402344 547.054688 402.644531 547.054688 C 402.644531 549.742188 402.644531 552.429688 402.644531 555.117188 C 405.332031 555.117188 408.019531 555.117188 410.707031 555.117188 C 410.707031 547.496094 410.707031 539.890625 410.707031 532.273438 C 408.019531 532.273438 405.332031 532.273438 402.644531 532.273438 C 402.644531 534.960938 402.644531 537.648438 402.644531 540.335938 C 400.402344 540.335938 398.171875 540.335938 395.925781 540.335938 Z M 599.5 119.082031 C 596.8125 119.082031 594.125 119.082031 591.4375 119.082031 C 591.4375 121.769531 591.4375 124.457031 591.4375 127.144531 C 594.125 127.144531 596.8125 127.144531 599.5 127.144531 C 599.5 124.457031 599.5 121.769531 599.5 119.082031 Z M 584.71875 127.144531 C 584.71875 129.386719 584.71875 131.617188 584.71875 133.863281 C 586.964844 133.863281 589.195312 133.863281 591.4375 133.863281 C 591.4375 131.617188 591.4375 129.386719 591.4375 127.144531 C 589.195312 127.144531 586.964844 127.144531 584.71875 127.144531 Z M 599.5 133.863281 C 596.8125 133.863281 594.125 133.863281 591.4375 133.863281 C 591.4375 136.550781 591.4375 139.238281 591.4375 141.925781 C 594.125 141.925781 596.8125 141.925781 599.5 141.925781 C 599.5 139.238281 599.5 136.550781 599.5 133.863281 Z M 395.925781 561.835938 C 398.171875 561.835938 400.402344 561.835938 402.644531 561.835938 C 402.644531 559.589844 402.644531 557.359375 402.644531 555.117188 C 400.402344 555.117188 398.171875 555.117188 395.925781 555.117188 C 395.925781 557.359375 395.925781 559.589844 395.925781 561.835938 Z M 576.65625 171.484375 C 579.34375 171.484375 582.03125 171.484375 584.71875 171.484375 C 584.71875 168.796875 584.71875 166.109375 584.71875 163.425781 C 586.964844 163.425781 589.195312 163.425781 591.4375 163.425781 C 591.4375 161.179688 591.4375 158.949219 591.4375 156.707031 C 589.195312 156.707031 586.964844 156.707031 584.71875 156.707031 C 584.71875 154.019531 584.71875 151.332031 584.71875 148.644531 C 586.964844 148.644531 589.195312 148.644531 591.4375 148.644531 C 591.4375 146.398438 591.4375 144.167969 591.4375 141.925781 C 586.507812 141.925781 581.589844 141.925781 576.65625 141.925781 C 576.65625 146.855469 576.65625 151.773438 576.65625 156.707031 C 574.414062 156.707031 572.183594 156.707031 569.9375 156.707031 C 569.9375 158.949219 569.9375 161.179688 569.9375 163.425781 C 572.183594 163.425781 574.414062 163.425781 576.65625 163.425781 C 576.65625 166.109375 576.65625 168.796875 576.65625 171.484375 Z M 395.925781 576.617188 C 398.171875 576.617188 400.402344 576.617188 402.644531 576.617188 C 402.644531 574.371094 402.644531 572.140625 402.644531 569.898438 C 400.402344 569.898438 398.171875 569.898438 395.925781 569.898438 C 395.925781 572.140625 395.925781 574.371094 395.925781 576.617188 Z M 599.5 156.707031 C 599.5 158.949219 599.5 161.179688 599.5 163.425781 C 601.746094 163.425781 603.976562 163.425781 606.21875 163.425781 C 606.21875 161.179688 606.21875 158.949219 606.21875 156.707031 C 603.976562 156.707031 601.746094 156.707031 599.5 156.707031 Z M 629.0625 192.984375 C 626.375 192.984375 623.6875 192.984375 621 192.984375 C 621 195.671875 621 198.359375 621 201.046875 C 618.753906 201.046875 616.523438 201.046875 614.28125 201.046875 C 614.28125 198.359375 614.28125 195.671875 614.28125 192.984375 C 611.59375 192.984375 608.90625 192.984375 606.21875 192.984375 C 606.21875 195.671875 606.21875 198.359375 606.21875 201.046875 C 603.976562 201.046875 601.746094 201.046875 599.5 201.046875 C 599.5 203.292969 599.5 205.523438 599.5 207.765625 C 601.746094 207.765625 603.976562 207.765625 606.21875 207.765625 C 606.21875 210.453125 606.21875 213.140625 606.21875 215.828125 C 603.976562 215.828125 601.746094 215.828125 599.5 215.828125 C 599.5 213.140625 599.5 210.453125 599.5 207.765625 C 596.8125 207.765625 594.125 207.765625 591.4375 207.765625 C 591.4375 210.453125 591.4375 213.140625 591.4375 215.828125 C 589.195312 215.828125 586.964844 215.828125 584.71875 215.828125 C 584.71875 213.140625 584.71875 210.453125 584.71875 207.765625 C 586.964844 207.765625 589.195312 207.765625 591.4375 207.765625 C 591.4375 205.523438 591.4375 203.292969 591.4375 201.046875 C 589.195312 201.046875 586.964844 201.046875 584.71875 201.046875 C 584.71875 198.359375 584.71875 195.671875 584.71875 192.984375 C 582.03125 192.984375 579.34375 192.984375 576.65625 192.984375 C 576.65625 195.671875 576.65625 198.359375 576.65625 201.046875 C 574.414062 201.046875 572.183594 201.046875 569.9375 201.046875 C 569.9375 198.359375 569.9375 195.671875 569.9375 192.984375 C 572.183594 192.984375 574.414062 192.984375 576.65625 192.984375 C 576.65625 190.742188 576.65625 188.511719 576.65625 186.265625 C 574.414062 186.265625 572.183594 186.265625 569.9375 186.265625 C 569.9375 183.578125 569.9375 180.890625 569.9375 178.203125 C 572.183594 178.203125 574.414062 178.203125 576.65625 178.203125 C 576.65625 175.960938 576.65625 173.730469 576.65625 171.484375 C 574.414062 171.484375 572.183594 171.484375 569.9375 171.484375 C 569.9375 168.796875 569.9375 166.109375 569.9375 163.425781 C 567.25 163.425781 564.5625 163.425781 561.875 163.425781 C 561.875 166.109375 561.875 168.796875 561.875 171.484375 C 559.632812 171.484375 557.402344 171.484375 555.15625 171.484375 C 555.15625 173.730469 555.15625 175.960938 555.15625 178.203125 C 557.402344 178.203125 559.632812 178.203125 561.875 178.203125 C 561.875 180.890625 561.875 183.578125 561.875 186.265625 C 559.632812 186.265625 557.402344 186.265625 555.15625 186.265625 C 555.15625 183.578125 555.15625 180.890625 555.15625 178.203125 C 552.46875 178.203125 549.78125 178.203125 547.09375 178.203125 C 547.09375 180.890625 547.09375 183.578125 547.09375 186.265625 C 539.933594 186.265625 532.757812 186.265625 525.597656 186.265625 C 525.597656 188.511719 525.597656 190.742188 525.597656 192.984375 C 522.910156 192.984375 520.222656 192.984375 517.535156 192.984375 C 517.535156 195.671875 517.535156 198.359375 517.535156 201.046875 C 525.152344 201.046875 532.757812 201.046875 540.375 201.046875 C 540.375 203.292969 540.375 205.523438 540.375 207.765625 C 547.539062 207.765625 554.714844 207.765625 561.875 207.765625 C 561.875 212.699219 561.875 217.617188 561.875 222.546875 C 564.5625 222.546875 567.25 222.546875 569.9375 222.546875 C 569.9375 225.234375 569.9375 227.921875 569.9375 230.609375 C 572.183594 230.609375 574.414062 230.609375 576.65625 230.609375 C 576.65625 235.539062 576.65625 240.460938 576.65625 245.390625 C 579.34375 245.390625 582.03125 245.390625 584.71875 245.390625 C 584.71875 242.703125 584.71875 240.015625 584.71875 237.328125 C 586.964844 237.328125 589.195312 237.328125 591.4375 237.328125 C 591.4375 240.015625 591.4375 242.703125 591.4375 245.390625 C 589.195312 245.390625 586.964844 245.390625 584.71875 245.390625 C 584.71875 257.484375 584.71875 269.578125 584.71875 281.671875 C 586.964844 281.671875 589.195312 281.671875 591.4375 281.671875 C 591.4375 276.738281 591.4375 271.820312 591.4375 266.890625 C 594.125 266.890625 596.8125 266.890625 599.5 266.890625 C 599.5 257.039062 599.5 247.175781 599.5 237.328125 C 601.746094 237.328125 603.976562 237.328125 606.21875 237.328125 C 606.21875 235.085938 606.21875 232.855469 606.21875 230.609375 C 603.976562 230.609375 601.746094 230.609375 599.5 230.609375 C 599.5 227.921875 599.5 225.234375 599.5 222.546875 C 604.433594 222.546875 609.351562 222.546875 614.28125 222.546875 C 614.28125 217.617188 614.28125 212.699219 614.28125 207.765625 C 621.441406 207.765625 628.617188 207.765625 635.78125 207.765625 C 635.78125 205.523438 635.78125 203.292969 635.78125 201.046875 C 633.535156 201.046875 631.304688 201.046875 629.0625 201.046875 C 629.0625 198.359375 629.0625 195.671875 629.0625 192.984375 Z M 614.28125 163.425781 C 611.59375 163.425781 608.90625 163.425781 606.21875 163.425781 C 606.21875 166.109375 606.21875 168.796875 606.21875 171.484375 C 608.90625 171.484375 611.59375 171.484375 614.28125 171.484375 C 614.28125 168.796875 614.28125 166.109375 614.28125 163.425781 Z M 395.925781 591.398438 C 398.171875 591.398438 400.402344 591.398438 402.644531 591.398438 C 402.644531 589.152344 402.644531 586.921875 402.644531 584.679688 C 400.402344 584.679688 398.171875 584.679688 395.925781 584.679688 C 395.925781 586.921875 395.925781 589.152344 395.925781 591.398438 Z M 591.4375 178.203125 C 591.4375 175.960938 591.4375 173.730469 591.4375 171.484375 C 589.195312 171.484375 586.964844 171.484375 584.71875 171.484375 C 584.71875 173.730469 584.71875 175.960938 584.71875 178.203125 C 586.964844 178.203125 589.195312 178.203125 591.4375 178.203125 Z M 599.5 171.484375 C 599.5 173.730469 599.5 175.960938 599.5 178.203125 C 601.746094 178.203125 603.976562 178.203125 606.21875 178.203125 C 606.21875 175.960938 606.21875 173.730469 606.21875 171.484375 C 603.976562 171.484375 601.746094 171.484375 599.5 171.484375 Z M 621 178.203125 C 621 175.960938 621 173.730469 621 171.484375 C 618.753906 171.484375 616.523438 171.484375 614.28125 171.484375 C 614.28125 173.730469 614.28125 175.960938 614.28125 178.203125 C 616.523438 178.203125 618.753906 178.203125 621 178.203125 Z M 576.65625 186.265625 C 579.34375 186.265625 582.03125 186.265625 584.71875 186.265625 C 584.71875 183.578125 584.71875 180.890625 584.71875 178.203125 C 582.03125 178.203125 579.34375 178.203125 576.65625 178.203125 C 576.65625 180.890625 576.65625 183.578125 576.65625 186.265625 Z M 614.28125 178.203125 C 611.59375 178.203125 608.90625 178.203125 606.21875 178.203125 C 606.21875 180.890625 606.21875 183.578125 606.21875 186.265625 C 608.90625 186.265625 611.59375 186.265625 614.28125 186.265625 C 614.28125 183.578125 614.28125 180.890625 614.28125 178.203125 Z M 643.84375 178.203125 C 641.15625 178.203125 638.46875 178.203125 635.78125 178.203125 C 635.78125 180.890625 635.78125 183.578125 635.78125 186.265625 C 638.46875 186.265625 641.15625 186.265625 643.84375 186.265625 C 643.84375 183.578125 643.84375 180.890625 643.84375 178.203125 Z M 395.925781 606.179688 C 398.171875 606.179688 400.402344 606.179688 402.644531 606.179688 C 402.644531 603.933594 402.644531 601.703125 402.644531 599.460938 C 400.402344 599.460938 398.171875 599.460938 395.925781 599.460938 C 395.925781 601.703125 395.925781 603.933594 395.925781 606.179688 Z M 510.816406 186.265625 C 510.816406 188.511719 510.816406 190.742188 510.816406 192.984375 C 513.058594 192.984375 515.289062 192.984375 517.535156 192.984375 C 517.535156 190.742188 517.535156 188.511719 517.535156 186.265625 C 515.289062 186.265625 513.058594 186.265625 510.816406 186.265625 Z M 591.4375 192.984375 C 591.4375 190.742188 591.4375 188.511719 591.4375 186.265625 C 589.195312 186.265625 586.964844 186.265625 584.71875 186.265625 C 584.71875 188.511719 584.71875 190.742188 584.71875 192.984375 C 586.964844 192.984375 589.195312 192.984375 591.4375 192.984375 Z M 606.21875 186.265625 C 603.976562 186.265625 601.746094 186.265625 599.5 186.265625 C 599.5 188.511719 599.5 190.742188 599.5 192.984375 C 601.746094 192.984375 603.976562 192.984375 606.21875 192.984375 C 606.21875 190.742188 606.21875 188.511719 606.21875 186.265625 Z M 621 192.984375 C 621 190.742188 621 188.511719 621 186.265625 C 618.753906 186.265625 616.523438 186.265625 614.28125 186.265625 C 614.28125 188.511719 614.28125 190.742188 614.28125 192.984375 C 616.523438 192.984375 618.753906 192.984375 621 192.984375 Z M 635.78125 186.265625 C 633.535156 186.265625 631.304688 186.265625 629.0625 186.265625 C 629.0625 188.511719 629.0625 190.742188 629.0625 192.984375 C 631.304688 192.984375 633.535156 192.984375 635.78125 192.984375 C 635.78125 190.742188 635.78125 188.511719 635.78125 186.265625 Z M 643.84375 186.265625 C 643.84375 188.511719 643.84375 190.742188 643.84375 192.984375 C 646.085938 192.984375 648.316406 192.984375 650.5625 192.984375 C 650.5625 190.742188 650.5625 188.511719 650.5625 186.265625 C 648.316406 186.265625 646.085938 186.265625 643.84375 186.265625 Z M 658.625 186.265625 C 658.625 188.511719 658.625 190.742188 658.625 192.984375 C 655.9375 192.984375 653.25 192.984375 650.5625 192.984375 C 650.5625 195.671875 650.5625 198.359375 650.5625 201.046875 C 655.492188 201.046875 660.410156 201.046875 665.34375 201.046875 C 665.34375 196.117188 665.34375 191.199219 665.34375 186.265625 C 663.097656 186.265625 660.867188 186.265625 658.625 186.265625 Z M 599.5 201.046875 C 599.5 198.359375 599.5 195.671875 599.5 192.984375 C 596.8125 192.984375 594.125 192.984375 591.4375 192.984375 C 591.4375 195.671875 591.4375 198.359375 591.4375 201.046875 C 594.125 201.046875 596.8125 201.046875 599.5 201.046875 Z M 635.78125 201.046875 C 638.46875 201.046875 641.15625 201.046875 643.84375 201.046875 C 643.84375 198.359375 643.84375 195.671875 643.84375 192.984375 C 641.15625 192.984375 638.46875 192.984375 635.78125 192.984375 C 635.78125 195.671875 635.78125 198.359375 635.78125 201.046875 Z M 395.925781 620.957031 C 398.171875 620.957031 400.402344 620.957031 402.644531 620.957031 C 402.644531 618.714844 402.644531 616.484375 402.644531 614.238281 C 400.402344 614.238281 398.171875 614.238281 395.925781 614.238281 C 395.925781 616.484375 395.925781 618.714844 395.925781 620.957031 Z M 395.925781 635.738281 C 398.171875 635.738281 400.402344 635.738281 402.644531 635.738281 C 402.644531 633.496094 402.644531 631.265625 402.644531 629.019531 C 400.402344 629.019531 398.171875 629.019531 395.925781 629.019531 C 395.925781 631.265625 395.925781 633.496094 395.925781 635.738281 Z M 395.925781 650.519531 C 398.171875 650.519531 400.402344 650.519531 402.644531 650.519531 C 402.644531 648.277344 402.644531 646.046875 402.644531 643.800781 C 400.402344 643.800781 398.171875 643.800781 395.925781 643.800781 C 395.925781 646.046875 395.925781 648.277344 395.925781 650.519531 Z M 395.925781 650.519531 " fill-opacity="1" fill-rule="evenodd"/></g></svg>