<svg xmlns="http://www.w3.org/2000/svg" xmlns:xlink="http://www.w3.org/1999/xlink" width="1080" zoomAndPan="magnify" viewBox="0 0 810 817.92" height="1080" preserveAspectRatio="xMidYMid meet" version="1.0"><defs><clipPath id="35299ff098"><path d="M 60 275.558594 L 277 275.558594 L 277 534.285156 L 60 534.285156 Z M 60 275.558594 " clip-rule="nonzero"/></clipPath><clipPath id="1a4c1c7f13"><path d="M 716 478 L 750.960938 478 L 750.960938 526 L 716 526 Z M 716 478 " clip-rule="nonzero"/></clipPath></defs><path fill="#23bf0b" d="M 374.070312 354.953125 L 373.359375 331.253906 L 340.179688 330.304688 L 347.289062 313.476562 L 312.6875 288.832031 L 312.453125 301.390625 L 276.429688 348.554688 L 284.488281 371.777344 Z M 374.070312 354.953125 " fill-opacity="1" fill-rule="nonzero"/><path fill="#23bf0b" d="M 352.03125 392.632812 L 354.164062 397.136719 L 364.589844 388.839844 L 367.195312 363.246094 L 284.722656 381.257812 L 301.3125 412.777344 Z M 352.03125 392.632812 " fill-opacity="1" fill-rule="nonzero"/><path fill="#23bf0b" d="M 365.539062 441.453125 L 372.175781 397.136719 L 283.777344 425.101562 L 279.984375 409.933594 L 265.289062 466.339844 L 281.644531 470.367188 L 326.910156 447.140625 L 324.300781 492.882812 L 391.84375 468.234375 L 398.71875 418.703125 L 386.628906 435.292969 Z M 365.539062 441.453125 " fill-opacity="1" fill-rule="nonzero"/><path fill="#23bf0b" d="M 427.867188 371.066406 L 429.050781 343.339844 L 392.082031 318.929688 L 381.652344 375.332031 L 392.316406 370.121094 Z M 427.867188 371.066406 " fill-opacity="1" fill-rule="nonzero"/><path fill="#23bf0b" d="M 548.496094 329.121094 L 515.078125 330.777344 L 516.5 317.980469 L 475.976562 307.316406 L 475.503906 332.675781 L 443.507812 334.570312 L 430.949219 327.222656 L 435.449219 342.628906 L 433.554688 381.019531 L 375.019531 388.839844 L 387.816406 400.21875 L 407.960938 427.707031 L 432.84375 394.53125 L 430 453.539062 L 444.691406 442.875 L 473.605469 437.1875 L 473.132812 462.308594 L 499.4375 465.628906 L 503.46875 431.5 L 538.304688 424.628906 Z M 474.554688 399.980469 L 466.734375 401.402344 L 467.207031 368.460938 L 475.027344 367.75 Z M 517.449219 391.6875 L 507.96875 393.582031 L 511.289062 364.667969 L 518.871094 363.957031 Z M 517.449219 391.6875 " fill-opacity="1" fill-rule="nonzero"/><path fill="#23bf0b" d="M 680.261719 358.269531 L 639.027344 363.484375 L 644.242188 341.441406 L 668.414062 338.363281 L 680.261719 292.148438 L 571.011719 291.4375 L 561.765625 281.246094 L 555.84375 352.34375 L 600.871094 346.65625 L 593.050781 369.410156 L 552.050781 374.621094 L 545.652344 426.285156 L 575.277344 420.597656 L 554.421875 480.082031 L 526.457031 496.910156 L 607.03125 495.960938 L 627.652344 410.40625 L 721.5 392.160156 Z M 680.261719 358.269531 " fill-opacity="1" fill-rule="nonzero"/><path fill="#23bf0b" d="M 86.835938 439.792969 L 78.777344 515.871094 L 84.941406 513.5 L 95.839844 437.425781 Z M 86.835938 439.792969 " fill-opacity="1" fill-rule="nonzero"/><g clip-path="url(#35299ff098)"><path fill="#23bf0b" d="M 239.695312 401.402344 L 241.828125 375.332031 L 261.5 372.253906 L 268.84375 343.8125 L 244.671875 342.390625 L 250.597656 275.558594 L 174.996094 290.488281 L 186.136719 299.734375 L 186.371094 339.308594 L 154.617188 337.414062 L 161.015625 320.824219 L 110.0625 289.542969 L 111.484375 306.132812 L 65.269531 347.84375 L 60.765625 403.0625 L 186.371094 383.863281 L 186.609375 414.671875 L 102.714844 435.765625 L 93.707031 509.945312 L 186.609375 472.5 L 186.847656 521.558594 L 228.082031 534.355469 L 235.191406 453.066406 L 259.839844 443.113281 L 276.429688 392.160156 Z M 239.695312 401.402344 " fill-opacity="1" fill-rule="nonzero"/></g><path fill="#23bf0b" d="M 72.851562 443.113281 L 59.582031 523.691406 L 71.90625 518.714844 L 81.386719 440.980469 Z M 72.851562 443.113281 " fill-opacity="1" fill-rule="nonzero"/><path fill="#23bf0b" d="M 649.21875 414.199219 L 630.96875 428.894531 L 704.671875 506.390625 L 733.113281 469.894531 Z M 649.21875 414.199219 " fill-opacity="1" fill-rule="nonzero"/><path fill="#23bf0b" d="M 736.667969 472.027344 L 708.226562 509.945312 L 711.78125 513.5 L 742.355469 475.816406 Z M 736.667969 472.027344 " fill-opacity="1" fill-rule="nonzero"/><g clip-path="url(#1a4c1c7f13)"><path fill="#23bf0b" d="M 746.621094 478.660156 L 716.050781 518.238281 L 722.683594 525.113281 L 750.414062 481.269531 Z M 746.621094 478.660156 " fill-opacity="1" fill-rule="nonzero"/></g></svg>