<svg xmlns="http://www.w3.org/2000/svg" xmlns:xlink="http://www.w3.org/1999/xlink" width="1080" zoomAndPan="magnify" viewBox="0 0 810 817.92" height="1080" preserveAspectRatio="xMidYMid meet" version="1.0"><path fill="#23bf0b" d="M 201.320312 412.292969 L 714.617188 406.546875 C 716.621094 406.46875 717.515625 403.523438 715.558594 403.449219 L 205.753906 397.710938 C 204.453125 397.664062 204.277344 396.085938 205.460938 395.117188 L 343.90625 281.671875 C 345.683594 280.214844 344.246094 278.144531 342.382812 279.480469 L 197.21875 383.714844 C 196.007812 384.578125 194.660156 383.988281 194.933594 382.707031 L 208.726562 318.691406 C 209.128906 316.808594 206.375 316.808594 205.640625 318.691406 L 180.175781 383.882812 C 179.683594 385.132812 178.03125 385.734375 177.3125 384.9375 L 139.921875 342.867188 C 138.839844 341.652344 136.300781 343.601562 137.078125 345.050781 L 163.957031 395.191406 C 164.472656 396.148438 163.417969 397.617188 162.132812 397.730469 L 95.207031 403.441406 C 93.269531 403.609375 92.441406 406.367188 94.277344 406.527344 L 157.746094 412.238281 C 158.960938 412.347656 159.128906 413.816406 158.03125 414.777344 L 100.777344 464.917969 C 99.121094 466.367188 100.476562 468.3125 102.300781 467.097656 L 165.179688 425.039062 C 166.382812 424.230469 167.671875 424.84375 167.398438 426.09375 L 153.355469 491.292969 C 152.949219 493.175781 155.707031 493.175781 156.441406 491.292969 L 181.445312 427.277344 C 181.941406 426 183.65625 425.40625 184.339844 426.273438 L 266.230469 530.355469 C 267.285156 531.691406 269.976562 529.621094 269.082031 528.160156 L 199.449219 414.878906 C 198.855469 413.910156 199.984375 412.339844 201.320312 412.292969 Z M 201.320312 412.292969 " fill-opacity="1" fill-rule="nonzero"/></svg>